<?xml version="1.0" encoding="UTF-8"?>
<svg width="24px" height="24px" viewBox="0 0 24 24" version="1.1" xmlns="http://www.w3.org/2000/svg" xmlns:xlink="http://www.w3.org/1999/xlink">
    <!-- Generator: Sketch 53.2 (72643) - https://sketchapp.com -->
    <title>矩形</title>
    <desc>Created with Sketch.</desc>
    <g id="Page-1" stroke="none" stroke-width="1" fill="none" fill-rule="evenodd">
        <g id="画板" transform="translate(-517.000000, -150.000000)">
            <g id="分组-32" transform="translate(517.000000, 150.000000)">
                <rect id="矩形" x="0" y="0" width="24" height="24"></rect>
                <path d="M20.7591027,13.8496432 L13.5950097,20.1265933 C12.6688265,20.8758638 11.3460595,20.879396 10.4160885,20.1348661 L3.25499318,13.8658867 C3.09141923,13.681073 3.00081334,13.443067 3,13.1962537 C3.00062743,12.7393899 3.30537368,12.3388789 3.74543619,12.2163437 C3.82704888,12.1889226 3.91263531,12.1753979 3.99877945,12.1763972 L6.10939239,12.1763972 L6.10939239,5.63645993 C6.10920648,4.69549721 6.81697349,4 7.75475257,4 L16.2454236,4 C17.1830401,4 17.8909,4.69549721 17.8909,5.63645993 L17.8909,12.1771175 L19.9601954,12.1771175 C19.9670971,12.1771175 19.9733482,12.1748634 19.9804359,12.1748634 C19.9874306,12.1748634 19.993426,12.1771175 20.0004905,12.1771175 L20.0241005,12.1771175 L20.0241005,12.1795808 C20.4120629,12.1943836 20.7576387,12.4292059 20.9140553,12.7845883 C21.0704486,13.1399707 21.0102616,13.5534486 20.7591027,13.8495503 L20.7591027,13.8496432 Z M14.2906928,11.0352835 C14.6658742,11.0352835 14.8867304,10.7440619 14.8867304,10.3679975 C14.8867304,9.99181691 14.6659671,9.72622709 14.2906928,9.72622709 L12.8464828,9.72622709 L14.3387262,8.22645447 C14.6013183,7.95847112 14.5995987,7.52912144 14.3346363,7.26332247 C14.0697436,6.9976397 13.640394,6.99445607 13.3715973,7.25632777 L11.9895728,8.6435576 L10.6119636,7.26141694 C10.3427486,7.00263593 9.91581572,7.00707443 9.65213143,7.27159529 C9.38851687,7.53602319 9.38524027,7.96293286 9.64485786,8.23135774 L11.1341036,9.72866711 L9.70922778,9.72866711 C9.33395348,9.72866711 9.11319023,9.99428016 9.11319023,10.3704375 C9.11319023,10.7466181 9.33395348,11.0352835 9.70867007,11.0352835 L11.1813004,11.0352835 L11.1813004,11.8543384 L9.70876302,11.8543384 C9.33360491,11.8543384 9.1127487,12.098154 9.1127487,12.4744973 C9.1127487,12.8509335 9.33413939,13.1635807 9.70876302,13.1635807 L11.1813934,13.1635807 L11.1813934,14.1451174 C11.1813934,14.6153199 11.5303388,14.9635449 11.999542,14.9635449 C12.4685826,14.9635449 12.8176209,14.615227 12.8176209,14.1451174 L12.8176209,13.1635807 L14.3320104,13.1635807 C14.7071685,13.1635807 14.8847319,12.9122127 14.8847319,12.5353117 C14.8847319,12.0460539 14.6237432,11.8536877 14.2489337,11.8536877 L12.8166217,11.8536877 L12.8166217,11.0352835 L14.2907858,11.0352835 L14.2906928,11.0352835 Z" id="yingshouzhangkuanx" fill="#0263FF"></path>
            </g>
        </g>
    </g>
</svg>