<?xml version="1.0" encoding="UTF-8"?>
<svg width="14px" height="14px" viewBox="0 0 14 14" version="1.1" xmlns="http://www.w3.org/2000/svg" xmlns:xlink="http://www.w3.org/1999/xlink">
    <!-- Generator: Sketch 53.2 (72643) - https://sketchapp.com -->
    <title>fugai</title>
    <desc>Created with Sketch.</desc>
    <g id="fugai" stroke="none" stroke-width="1" fill="none" fill-rule="evenodd">
        <path d="M12.2189689,6.37475491 L7.3312191,6.37475491 C6.80312779,6.37475491 6.37445709,6.80279918 6.37445709,7.33091412 L6.37445709,12.2175914 C6.37445709,12.523614 6.10718349,12.7515169 5.80246576,12.724401 C2.49124283,12.4293539 -0.09175638,9.603487 0.00249952712,6.19398207 C0.0948186691,2.86776177 2.86762087,0.0948354921 6.19369233,0.00251221908 C9.61724765,-0.0923935231 12.4533175,2.51331788 12.7276926,5.84470311 C12.7509338,6.13329404 12.5081925,6.37475491 12.2189689,6.37475491 L12.2189689,6.37475491 Z M13.4197634,7.655014 L8.29960171,7.655014 C7.94323691,7.655014 7.65465889,7.94360494 7.65465889,8.29934006 L7.65465889,13.4203764 C7.65465889,13.7670729 7.95808544,14.031776 8.30347524,13.9969127 C11.3061069,13.6941182 13.6934928,11.3066254 13.9969194,8.30321377 C14.0317812,7.95845413 13.7664443,7.655014 13.4197634,7.655014 L13.4197634,7.655014 Z" id="分析" fill="#0263FF"></path>
    </g>
</svg>