<?xml version="1.0" encoding="UTF-8"?>
<svg width="30px" height="28px" viewBox="0 0 30 28" version="1.1" xmlns="http://www.w3.org/2000/svg" xmlns:xlink="http://www.w3.org/1999/xlink">
    <!-- Generator: Sketch 52.5 (67469) - http://www.bohemiancoding.com/sketch -->
    <title></title>
    <desc>密码装饰图标</desc>
    <g id="Page-1" stroke="none" stroke-width="1" fill-rule="evenodd">
        <g id="切图" transform="translate(-208.000000, -1416.000000)">
            <g id="icon20" transform="translate(208.000000, 1416.000000)">
                <path d="M22.1360415,12.313015 C20.9357536,13.5700555 18.9437102,13.6158236 17.6868984,12.4155187 C16.4298757,11.2154246 16.3841083,9.22356372 17.5841853,7.96652319 C18.7844732,6.70969357 20.7765167,6.66350365 22.0333284,7.86380863 C23.2903511,9.06411361 23.3363295,11.0559745 22.1360415,12.313015 M22.9992955,6.85227065 C21.1835727,5.11877801 18.3065515,5.18521555 16.5728726,7.00075329 C14.8389828,8.81629102 14.9054194,11.693564 16.7211422,13.4272676 C18.5366542,15.1609711 21.4138862,15.0945336 23.1475652,13.2789958 C24.8812441,11.4634581 24.8148075,8.58618511 22.9992955,6.85227065" id="Fill-1"></path>
                <path d="M26.1790087,16.1735104 C22.8465819,19.6640115 17.3159101,19.7909042 13.8265111,16.4584363 C10.3366885,13.1261802 10.2087383,7.5956519 13.5411651,4.10578624 C16.8738037,0.616132427 22.4042637,0.488392413 25.8936627,3.82086034 C29.3834853,7.15311643 29.5114355,12.6836447 26.1790087,16.1735104 M26.8628225,2.80635466 C22.812476,-1.06122318 16.394202,-0.912722765 12.5266719,3.13725002 C8.65935364,7.1872228 8.80721671,13.6057878 12.8575632,17.4733656 C16.907486,21.3409435 23.3259718,21.192443 27.1935019,17.1424703 C31.061032,13.0924975 30.9129571,6.67372065 26.8628225,2.80635466" id="Fill-3"></path>
                <path d="M15.8244756,19.9769415 L11.6925576,23.2937273 C12.7595692,24.0748134 12.798233,25.370449 11.7798195,26.188171 C10.760869,27.0060989 9.0706731,27.0359427 8.00392994,26.2550625 L5.62772128,27.9098536 C5.62772128,27.9098536 2.82916504,28.2562483 1.54171639,27.3137995 C0.253999253,26.3711448 0,23.7961334 0,23.7961334 L10.0297485,15.7354072 L11.33814,14.6853147 L12.277615,15.9074726 L2.2674669,23.9432946 C2.2674669,23.9432946 2.29163173,25.4966165 2.96932107,25.9928481 C3.5755899,26.4363897 5.48649126,26.2995195 5.48649126,26.2995195 L7.94566584,24.3252961 L9.23338298,25.2679508 C9.58914303,25.5285186 10.1521837,25.5184334 10.4923708,25.2457222 C10.8317525,24.9728052 10.8188646,24.5414069 10.4631045,24.2810449 L9.17511888,23.3381844 L15.5447006,18.2250034 L17.1328671,18.9266431 L15.8244756,19.9769415 Z" id="Fill-5"></path>
            </g>
        </g>
    </g>
</svg>
