<?xml version="1.0" encoding="UTF-8"?>
<svg width="26px" height="26px" viewBox="0 0 26 26" version="1.1" xmlns="http://www.w3.org/2000/svg" xmlns:xlink="http://www.w3.org/1999/xlink">
    <!-- Generator: Sketch 53.2 (72643) - https://sketchapp.com -->
    <title>矩形</title>
    <desc>Created with Sketch.</desc>
    <defs>
        <polygon id="path-1" points="0.00164705883 0.0091411765 16.8658275 0.0091411765 16.8658275 18.7490471 0.00164705883 18.7490471"></polygon>
    </defs>
    <g id="Page-1" stroke="none" stroke-width="1" fill="none" fill-rule="evenodd">
        <g id="首页-债务人-经办2" transform="translate(-33.000000, -156.000000)">
            <g id="分组-20" transform="translate(33.000000, 156.000000)">
                <rect id="矩形" x="0" y="0" width="26" height="26"></rect>
                <g id="文件" transform="translate(4.000000, 3.000000)">
                    <g>
                        <mask id="mask-2" fill="white">
                            <use xlink:href="#path-1"></use>
                        </mask>
                        <g id="Clip-2"></g>
                        <path d="M14.9918863,1.88310981 L11.0752902,1.88310981 C10.681753,0.796215689 9.65105101,0.0091411765 8.43291375,0.0091411765 C7.2148863,0.0091411765 6.18418434,0.796215689 5.79064708,1.88310981 L1.87396863,1.88310981 C0.84326667,1.88310981 0,2.72648628 0,3.7571608 L0,16.8749961 C0,17.9056981 0.84326667,18.7490471 1.87396863,18.7490471 L14.9918863,18.7490471 C16.0225883,18.7490471 16.8658275,17.9056981 16.8658275,16.8749961 L16.8658275,3.7571608 C16.8658275,2.72648628 16.0225883,1.88310981 14.9918863,1.88310981 Z M8.43291375,1.88310981 C8.94827846,1.88310981 9.36989807,2.30472942 9.36989807,2.82009413 C9.36989807,3.33543138 8.94827846,3.7571608 8.43291375,3.7571608 C7.9175765,3.7571608 7.49592944,3.33543138 7.49592944,2.82009413 C7.49592944,2.30472942 7.9175765,1.88310981 8.43291375,1.88310981 Z M6.55897257,15.0010275 L2.8109255,11.2531177 L4.13211374,9.93192945 L6.55897257,12.3493177 L12.7337138,6.17457649 L14.054902,7.50509807 L6.55897257,15.0010275 Z" id="Fill-1" fill="#08b448" mask="url(#mask-2)"></path>
                    </g>
                </g>
            </g>
        </g>
    </g>
</svg>
