<?xml version="1.0" encoding="UTF-8"?>
<svg width="20px" height="20px" viewBox="0 0 20 20" version="1.1" xmlns="http://www.w3.org/2000/svg" xmlns:xlink="http://www.w3.org/1999/xlink">
    <!-- Generator: Sketch 63 (92445) - https://sketch.com -->
    <title>矩形</title>
    <desc>Created with Sketch.</desc>
    <g id="页面-1" stroke="none" stroke-width="1" fill="none" fill-rule="evenodd">
        <g id="画板" transform="translate(-274.000000, -685.000000)">
            <g id="名单管理-点击" transform="translate(274.000000, 685.000000)">
                <rect id="矩形" x="0" y="0" width="20" height="20"></rect>
                <path d="M11.0000188,4.66670247 L8.99998431,4.66670247 C8.73477139,4.66670247 8.48046004,4.57301095 8.29292355,4.40631153 C8.10538706,4.23961211 7.99998431,4.01355715 7.99998431,3.77779514 L7.99998431,2.88890734 C7.99998431,2.65314533 8.10538706,2.42701224 8.29292355,2.26031282 C8.48046004,2.0936134 8.73477139,2 8.99998431,2 L11.0000188,2 C11.5522572,2 12.0000377,2.3979497 12.0000377,2.88890734 L12.0000377,3.77779514 C12.0000377,4.26867464 11.5522572,4.66670247 11.0000188,4.66670247 M13.5,13.555561 L6.5,13.555561 C6.22389179,13.555561 6.00003453,13.7545456 6.00003453,13.9999756 C6.00003453,14.2455032 6.22389179,14.4444683 6.5,14.4444683 L13.5,14.4444683 C13.7761302,14.4444683 13.9999655,14.2455032 13.9999655,13.9999756 C13.9999655,13.7545456 13.7761302,13.555561 13.5,13.555561 M13.5,10.8888585 L6.5,10.8888585 C6.22389179,10.8888585 6.00003453,11.0879212 6.00003453,11.3333512 C6.00003453,11.5787812 6.22389179,11.7777658 6.5,11.7777658 L13.5,11.7777658 C13.7761302,11.7777658 13.9999655,11.5787812 13.9999655,11.3333512 C13.9999655,11.0879212 13.7761302,10.8888585 13.5,10.8888585 M13.5,8.22223416 L6.5,8.22223416 C6.22389179,8.22223416 6.00003453,8.42121878 6.00003453,8.66664876 C6.00003453,8.91215688 6.22389179,9.11114149 6.5,9.11114149 L13.5,9.11114149 C13.7761302,9.11114149 13.9999655,8.91215688 13.9999655,8.66664876 C13.9999655,8.42121878 13.7761302,8.22223416 13.5,8.22223416 M14.9999843,18 L5.00001569,18 C4.46959614,18 3.96086359,17.8126951 3.58579061,17.4792962 C3.21071763,17.1458974 3,16.6937679 3,16.222283 L3,4.66670247 C3,3.68480674 3.89547301,2.88890734 5.00001569,2.88890734 L6.99996547,2.88890734 L6.99996547,5.55553168 L12.9999686,5.55553168 L12.9999686,2.88890734 L14.9999843,2.88890734 C15.5304258,2.88890734 16.0391364,3.07621225 16.4142094,3.4096111 C16.7893043,3.74300994 17,4.19521752 17,4.66670247 L17,16.222283 C17,16.6937679 16.7893043,17.1458974 16.4142094,17.4792962 C16.0391364,17.8126951 15.5304258,18 14.9999843,18" id="Fill-1" fill="#08B347"></path>
            </g>
        </g>
    </g>
</svg>