<?xml version="1.0" encoding="UTF-8"?>
<svg width="26px" height="26px" viewBox="0 0 26 26" version="1.1" xmlns="http://www.w3.org/2000/svg" xmlns:xlink="http://www.w3.org/1999/xlink">
    <!-- Generator: Sketch 53.2 (72643) - https://sketchapp.com -->
    <title>矩形</title>
    <desc>Created with Sketch.</desc>
    <defs>
        <polygon id="path-1" points="0.00626304802 0.0089868407 18.006263 0.0089868407 18.006263 12.9320638 0.00626304802 12.9320638"></polygon>
    </defs>
    <g id="Page-1" stroke="none" stroke-width="1" fill="none" fill-rule="evenodd">
        <g id="首页-保理-业务" transform="translate(-33.000000, -257.000000)">
            <g id="分组-28" transform="translate(33.000000, 257.000000)">
                <rect id="矩形" x="0" y="0" width="26" height="26"></rect>
                <g id="piaoju" transform="translate(4.000000, 6.000000)">
                    <mask id="mask-2" fill="white">
                        <use xlink:href="#path-1"></use>
                    </mask>
                    <g id="Clip-2"></g>
                    <path d="M6.2678507,8.49938683 L14.0692447,8.49938683 L14.0692447,7.34001807 L6.2678507,7.34001807 L6.2678507,8.49938683 Z M6.2678507,5.60103254 L11.7472035,5.60103254 L11.7472035,4.44163673 L6.2678507,4.44163673 L6.2678507,5.60103254 Z M17.7736601,4.41672995 C17.1709769,4.91702904 16.8007557,5.66926251 16.8007557,6.4705253 C16.8007557,7.27178809 17.1709769,8.02307506 17.7736601,8.52432065 C17.9211123,8.64147177 18.0076,8.82793459 18.0062474,9.02556625 L18.0062474,12.2812152 C18.0002612,12.637969 17.7338602,12.9256004 17.403439,12.9320638 L5.19405665,12.9320638 L5.19405665,0.0089868407 L17.403439,0.0089868407 C17.7283749,0.0089868407 18.0062474,0.309004032 18.0062474,0.659727213 L18.0062474,3.91643087 C18.0073996,4.11373801 17.9210121,4.29976814 17.7736601,4.41672995 Z M0.191775856,0.209295777 C0.284149546,0.109560478 0.46964834,0.0089868407 0.609060477,0.0089868407 L4.12026259,0.0089868407 L4.12026259,12.9320638 L0.609060477,12.9320638 C0.563675139,12.9320638 0.423461495,12.8821961 0.33121304,12.8323285 C0.284149546,12.7816225 0.23883935,12.7816225 0.191775856,12.7308083 C0.0995274013,12.6311001 0.00627706263,12.4307911 0.00627706263,12.2812152 L0.00627706263,9.02556625 C0.00627706263,8.82528436 0.0995274013,8.62405595 0.23883935,8.52432065 C0.841547622,8.02307506 1.2126454,7.27178809 1.2126454,6.4705253 C1.2126454,5.66926251 0.841547622,4.91786737 0.237962701,4.41756829 C0.091111577,4.29998448 0.00499966073,4.11373801 0.00627706263,3.91643087 L0.00627706263,0.659727213 C0.00627706263,0.510232437 0.0524639078,0.309004032 0.191775856,0.209295777 Z" id="Fill-1" fill="#08b448" mask="url(#mask-2)"></path>
                </g>
            </g>
        </g>
    </g>
</svg>
