<?xml version="1.0" encoding="UTF-8"?>
<svg width="26px" height="26px" viewBox="0 0 26 26" version="1.1" xmlns="http://www.w3.org/2000/svg" xmlns:xlink="http://www.w3.org/1999/xlink">
    <!-- Generator: Sketch 53.2 (72643) - https://sketchapp.com -->
    <title>矩形</title>
    <desc>Created with Sketch.</desc>
    <g id="Page-1" stroke="none" stroke-width="1" fill="none" fill-rule="evenodd">
        <g id="首页-债务人-经办2" transform="translate(-32.000000, -103.000000)">
            <g id="分组-10" transform="translate(32.000000, 103.000000)">
                <rect id="矩形" x="0" y="0" width="26" height="26"></rect>
                <path d="M6,4 L12,4 L12,14 L4,14 L4,6 C4,4.8954305 4.8954305,4 6,4 Z M14,12 L22,12 L22,20 C22,21.1045695 21.1045695,22 20,22 L14,22 L14,12 Z M14,4 L20,4 C21.1045695,4 22,4.8954305 22,6 L22,10 L14,10 L14,4 Z M4,16 L12,16 L12,22 L6,22 C4.8954305,22 4,21.1045695 4,20 L4,16 Z" id="合并形状" fill="#08b448"></path>
            </g>
        </g>
    </g>
</svg>
