<?xml version="1.0" encoding="UTF-8"?>
<svg width="20px" height="20px" viewBox="0 0 20 20" version="1.1" xmlns="http://www.w3.org/2000/svg" xmlns:xlink="http://www.w3.org/1999/xlink">
    <!-- Generator: Sketch 63 (92445) - https://sketch.com -->
    <title>矩形</title>
    <desc>Created with Sketch.</desc>
    <g id="页面-1" stroke="none" stroke-width="1" fill="none" fill-rule="evenodd">
        <g id="画板" transform="translate(-513.000000, -401.000000)">
            <g id="审批人员设置" transform="translate(513.000000, 401.000000)">
                <rect id="矩形" x="0" y="0" width="20" height="20"></rect>
                <g id="角色" transform="translate(2.000000, 2.000000)" fill="#08B347" fill-rule="nonzero">
                    <path d="M8.41876531,14.1342391 L8.41876593,14.1342391 C7.79600388,14.1667738 7.17247322,14.1824253 6.54886943,14.1812458 C0.992549692,14.1812458 0.11488886,13.075366 0.11488886,13.075366 C-0.470208412,10.5602865 1.28400884,10.3594186 3.23364656,9.65534383 C5.28151686,8.95123917 4.9889533,7.64348617 4.59815715,7.34220675 C4.4038411,7.24176535 4.30668308,7.0409124 4.20845049,6.93939644 C3.91590186,6.63811701 3.72158581,6.33682266 3.6244427,5.93511676 C3.23364656,5.93511676 2.941083,5.63274785 2.8439399,5.02906966 C2.74569239,4.52692236 2.94217248,4.0225961 3.33187914,4.0225961 C3.33184061,1.80990041 4.3066592,1.17162281e-07 6.54883958,1.17162281e-07 C8.69277842,1.17162281e-07 9.76582986,1.80988549 9.76582986,4.0225961 C10.1555365,4.12412698 10.3498526,4.62625936 10.2526946,5.12949614 C10.154447,5.63164344 9.86298789,6.03554323 9.47328123,6.03554323 C9.37503372,6.43724914 9.18073259,6.73854349 8.98532706,7.03982291 C8.88707955,7.1413538 8.69277842,7.34219182 8.49847729,7.4437227 C8.16990109,7.69699025 7.9799579,8.66415287 9.09232028,9.32348425 L9.09232027,9.32348425 C8.91816563,9.32329753 8.75341338,9.40246029 8.64473668,9.53854525 L8.64473633,9.53854589 C8.52167069,9.7599841 8.412657,9.98894423 8.31833909,10.2240696 L8.31833906,10.2240698 C8.2675387,10.4599115 8.37016921,10.7022723 8.57488998,10.829912 L8.77137007,10.9467255 C9.07921624,11.1497574 9.10758758,11.4979891 9.08685755,11.8909642 C9.0661126,12.2850437 8.85324548,12.4149459 8.52904213,12.5841442 L8.32162244,12.6801978 L8.3216224,12.6801978 C8.10414066,12.7838271 7.97619801,13.0138692 8.0028814,13.2532958 L8.00288134,13.2532956 C8.07035185,13.4973011 8.15498067,13.7362352 8.25613396,13.9683101 C8.29762387,14.0349029 8.35438147,14.0916605 8.41878038,14.1342398 L8.41876531,14.1342391 Z M15.6343382,12.6933006 L15.6343382,12.6933006 C15.7762438,12.7712309 15.8519901,12.9315377 15.8220875,13.0906485 L15.8220877,13.0906481 C15.7671811,13.2503021 15.7022914,13.406346 15.627803,13.5578558 L15.627803,13.5578558 C15.5340591,13.6875916 15.368885,13.7444007 15.2151724,13.6997722 L15.0688831,13.6539243 L15.0688831,13.6539243 C14.6883251,13.5531288 14.298111,13.7799207 14.1973159,14.1604788 C14.1654814,14.2806712 14.1656393,14.4071005 14.197774,14.5272123 L14.2425473,14.6713076 L14.2425473,14.6713077 C14.287172,14.8250233 14.2303574,14.9901979 14.100616,15.0839383 L14.1006161,15.0839382 C13.9498451,15.1605683 13.7932595,15.225173 13.6323174,15.2771499 L13.6323174,15.2771499 C13.4740484,15.3033962 13.3164673,15.2267933 13.2393423,15.0861172 L13.1683916,14.9485736 L13.1683916,14.9485736 C12.9669834,14.6089056 12.5283545,14.4968261 12.1886865,14.6982342 C12.0848315,14.7598159 11.9982627,14.8466941 11.9370516,14.9507675 L11.866086,15.0861321 L11.866086,15.0861321 C11.7889607,15.2268082 11.63138,15.3034108 11.4731109,15.2771647 L11.4731109,15.2771648 C11.3125405,15.2251295 11.1563205,15.1605207 11.0059017,15.0839382 L11.0059017,15.0839382 C10.8761659,14.9901941 10.8193583,14.8250202 10.8639853,14.6713076 L10.9098331,14.5250333 L10.9098331,14.5250332 C11.0102847,14.1443842 10.7831403,13.754376 10.4024921,13.6539242 C10.2832769,13.6224638 10.1579405,13.6224638 10.0387241,13.6539242 L9.89244982,13.6975931 L9.89244982,13.6975931 C9.73873717,13.7422209 9.57356255,13.6854126 9.47981924,13.5556767 L9.47981906,13.5556764 C9.40286438,13.4052919 9.33789118,13.2490719 9.2855045,13.0884701 L9.28550449,13.0884701 C9.25945107,12.9299413 9.33653305,12.7722811 9.47764158,12.69548 L9.61300614,12.6245293 L9.6130061,12.6245293 C9.95267414,12.4231212 10.0647536,11.9844923 9.86334547,11.6448242 C9.80176385,11.5409693 9.71488562,11.4544005 9.61081221,11.3931894 L9.47544765,11.3211492 L9.47544764,11.3211492 C9.33575261,11.2430861 9.25950759,11.0862357 9.28441497,10.9281592 L9.28441498,10.9281591 C9.33889123,10.7677902 9.40342804,10.6110165 9.47764005,10.4587724 L9.47764006,10.4587724 C9.570767,10.3282074 9.73653411,10.2711947 9.89027064,10.316856 L10.03653,10.3637934 L10.03653,10.3637933 C10.417176,10.4642539 10.8071901,10.2371185 10.9076509,9.85647175 C10.939116,9.73725034 10.939117,9.61190515 10.9076541,9.49268434 L10.8639852,9.34642495 L10.8639852,9.34642493 C10.8193541,9.19206455 10.8760726,9.02627505 11.0059016,8.93160045 L11.0059017,8.93160042 C11.1570234,8.85491736 11.3139762,8.7903119 11.4752898,8.73838877 L11.4752898,8.73838877 C11.6335649,8.71213566 11.7911519,8.78873946 11.8682799,8.92942145 L11.9392306,9.06478601 L11.9392306,9.06478607 C12.137642,9.40481081 12.5741292,9.51961249 12.9141555,9.32120118 C13.0203025,9.25926256 13.1086327,9.17093308 13.1705706,9.06478607 L13.2415213,8.92942151 L13.2415213,8.92942152 C13.3186485,8.78873954 13.4762363,8.71213528 13.6345113,8.73838884 L13.6345112,8.7383888 C13.7941399,8.79294579 13.9501837,8.85747678 14.1017204,8.93160044 C14.2294437,9.02111716 14.2938426,9.19249437 14.2436219,9.34423103 L14.1999679,9.49050534 L14.1999679,9.49050538 C14.0995162,9.87115441 14.3266608,10.2611625 14.7073089,10.3616144 C14.8265242,10.3930748 14.9518606,10.3930748 15.0710769,10.3616144 L15.2173363,10.3179455 L15.2173363,10.3179455 C15.3710534,10.2733107 15.5362355,10.3301198 15.6299818,10.4598619 L15.6299818,10.459862 C15.7065592,10.6102808 15.7711631,10.7665007 15.8231935,10.9270712 L15.8231935,10.9270712 C15.8494397,11.0853403 15.772837,11.2429214 15.6321608,11.3200463 L15.4967963,11.391012 L15.4967962,11.391012 C15.1571282,11.5924201 15.0450487,12.0310491 15.2464569,12.3707171 C15.3080385,12.474572 15.3949167,12.5611409 15.4989901,12.6223519 L15.6343547,12.6943921 L15.6343382,12.6933006 Z M12.5559958,13.3373642 L12.5559958,13.3373642 C13.2915104,13.3373642 13.8877622,12.7411125 13.8877622,12.0055978 C13.8877622,11.2700832 13.2915104,10.6738314 12.5559958,10.6738314 C12.5559958,10.6738314 12.5559958,10.6738314 12.5559957,10.6738314 L12.5559957,10.6738314 C11.8204811,10.6738314 11.2242293,11.2700832 11.2242293,12.0055978 C11.2242293,12.7411125 11.8204811,13.3373642 12.5559957,13.3373642 L12.5559958,13.3373642 Z" id="形状"></path>
                </g>
            </g>
        </g>
    </g>
</svg>