<?xml version="1.0" encoding="UTF-8"?>
<svg width="20px" height="20px" viewBox="0 0 20 20" version="1.1" xmlns="http://www.w3.org/2000/svg" xmlns:xlink="http://www.w3.org/1999/xlink">
    <!-- Generator: Sketch 63 (92445) - https://sketch.com -->
    <title>矩形</title>
    <desc>Created with Sketch.</desc>
    <defs>
        <polygon id="path-1" points="1.09440388e-16 0 16 0 16 17.0666667 1.09440388e-16 17.0666667"></polygon>
    </defs>
    <g id="页面-1" stroke="none" stroke-width="1" fill="none" fill-rule="evenodd">
        <g id="画板" transform="translate(-249.000000, -685.000000)">
            <g id="map中心-点击" transform="translate(249.000000, 685.000000)">
                <rect id="矩形" x="0" y="0" width="20" height="20"></rect>
                <g id="icon" transform="translate(2.000000, 1.000000)">
                    <mask id="mask-2" fill="white">
                        <use xlink:href="#path-1"></use>
                    </mask>
                    <g id="Clip-2"></g>
                    <path d="M14.387625,4.40940446 C14.6461339,4.27000199 14.7691383,4.02930814 14.744547,3.80126024 C14.7691383,3.56044265 14.6461339,3.3324195 14.387625,3.19301703 L8.82461291,0.20273124 C8.57841172,0.063328765 8.28300396,0 7.98769234,0 C7.69228458,0 7.39687681,0.063328765 7.15077178,0.20273124 L1.5876635,3.18034632 C1.32925081,3.3197488 1.21845788,3.56044265 1.23074149,3.78858954 C1.21845788,4.02930814 1.32925081,4.27000199 1.5876635,4.40940446 L7.15077178,7.38701955 C7.39687681,7.52642202 7.69228458,7.58975079 7.98769234,7.58975079 C8.28300396,7.58975079 8.57841172,7.52642202 8.82461291,7.38701955 L14.387625,4.40940446 Z M6.57223987,8.83147963 L1.1076409,5.79053578 C0.603123188,5.51173083 0,5.91726756 0,6.55072844 L0,12.4806667 C0,13.1014816 0.307715422,13.6590668 0.81232929,13.9377727 L6.27692825,16.9786918 C6.78154212,17.2574968 7.38456916,16.8394131 7.38456916,16.2058285 L7.38456916,10.2885857 C7.38456916,9.66777074 7.07685374,9.11025983 6.57223987,8.83147963 L6.57223987,8.83147963 Z M14.8922629,5.79053578 L9.42763994,8.84412559 C8.92302607,9.12293054 8.61531065,9.6804167 8.61531065,10.3013306 L8.61531065,16.2058285 C8.61531065,16.8394131 9.21843384,17.2574968 9.72304771,16.9660459 L15.1876707,13.9124313 C15.6799769,13.6336264 16,13.0761402 16,12.4553253 L16,6.56339914 C16,5.91726756 15.3968528,5.51173083 14.8922629,5.79053578 L14.8922629,5.79053578 Z" id="Fill-1" fill="#08B347" mask="url(#mask-2)"></path>
                </g>
            </g>
        </g>
    </g>
</svg>