<?xml version="1.0" encoding="UTF-8"?>
<svg width="28px" height="28px" viewBox="0 0 28 28" version="1.1" xmlns="http://www.w3.org/2000/svg" xmlns:xlink="http://www.w3.org/1999/xlink">
    <!-- Generator: Sketch 53.2 (72643) - https://sketchapp.com -->
    <title>矩形</title>
    <desc>Created with Sketch.</desc>
    <defs>
        <polygon id="path-1" points="0.00167364017 0.0258856346 19.9944491 0.0258856346 19.9944491 18.6889261 0.00167364017 18.6889261"></polygon>
    </defs>
    <g id="Page-1" stroke="none" stroke-width="1" fill="none" fill-rule="evenodd">
        <g id="首页-保理-业务修订版" transform="translate(-1271.000000, -32.000000)">
            <g id="分组-36" transform="translate(1271.000000, 28.000000)">
                <g id="分组-38" transform="translate(0.000000, 4.000000)">
                    <rect id="矩形" x="0" y="0" width="28" height="28"></rect>
                    <g id="yujing-(1)" transform="translate(4.000000, 5.000000)">
                        <mask id="mask-2" fill="white">
                            <use xlink:href="#path-1"></use>
                        </mask>
                        <g id="Clip-2"></g>
                        <path d="M19.1524965,17.075537 L17.5687587,17.075537 L17.5687587,7.65609484 C17.5687587,6.63230126 17.3641283,5.63366806 16.9617294,4.69288703 C16.5732775,3.78437936 16.0198605,2.96859135 15.3127197,2.26591353 C14.6079498,1.56320781 13.7847699,1.01308229 12.8729707,0.629316597 C11.9263319,0.229428173 10.9495955,0.0258856346 9.91707113,0.0258856346 C8.88435146,0.0258856346 7.87972106,0.229428173 6.93308229,0.629316597 C6.02150628,1.01308229 5.19829847,1.56538354 4.49344491,2.26591353 C3.78638773,2.96859135 3.23277545,3.78471409 2.84454672,4.69288703 C2.44214784,5.63595537 2.23751743,6.63458856 2.23751743,7.66078103 L2.25386332,17.075537 L0.781478382,17.075537 C0.362845188,17.075537 0,17.4362064 0,17.8822873 C0,18.3260809 0.36306834,18.6889261 0.811659693,18.6889261 L19.1825662,18.6889261 C19.6293166,18.6889261 19.9944491,18.3258856 19.9944491,17.8822873 C19.9919386,17.4359833 19.6293166,17.075537 19.1524965,17.075537 Z M9.48440725,16.2896234 L9.48440725,10.6010879 L6.6260251,10.6010879 L10.5517713,3.28284519 L10.5517713,9.24410042 L13.3101255,9.24410042 L9.48440725,16.2896234 Z" id="Fill-1" fill="#2475F7" mask="url(#mask-2)"></path>
                    </g>
                </g>
            </g>
        </g>
    </g>
</svg>