<?xml version="1.0" encoding="UTF-8"?>
<svg width="20px" height="20px" viewBox="0 0 20 20" version="1.1" xmlns="http://www.w3.org/2000/svg" xmlns:xlink="http://www.w3.org/1999/xlink">
    <!-- Generator: Sketch 63 (92445) - https://sketch.com -->
    <title>矩形</title>
    <desc>Created with Sketch.</desc>
    <g id="页面-1" stroke="none" stroke-width="1" fill="none" fill-rule="evenodd">
        <g id="画板" transform="translate(-299.000000, -685.000000)">
            <g id="贷款产品管理-点击" transform="translate(299.000000, 685.000000)">
                <rect id="矩形" x="0" y="0" width="20" height="20"></rect>
                <g id="分组-7" transform="translate(2.000000, 2.000000)">
                    <circle id="椭圆形" fill="#08B347" cx="8" cy="8" r="8"></circle>
                    <path d="M7.99472246,5.33333333 C7.86741429,5.33333333 7.69783402,5.37570966 7.57052585,5.50291628 L5.49235853,7.58114228 C5.28032494,7.79328276 5.28032494,8.17490264 5.49235853,8.42941945 L7.57052585,10.5076196 C7.78268887,10.7196824 8.16430273,10.7196824 8.41881552,10.5076196 L10.4969828,8.42941945 C10.6241875,8.30221282 10.6666667,8.17490264 10.6666667,8.00531969 C10.6666667,7.83565908 10.6241875,7.70842657 10.4969828,7.58114228 L8.41881552,5.50291628 C8.2916109,5.37570966 8.16430273,5.33333333 7.99472246,5.33333333 Z" id="路径" fill="#FFFFFF"></path>
                </g>
            </g>
        </g>
    </g>
</svg>