<?xml version="1.0" encoding="UTF-8"?>
<svg width="20px" height="20px" viewBox="0 0 20 20" version="1.1" xmlns="http://www.w3.org/2000/svg" xmlns:xlink="http://www.w3.org/1999/xlink">
    <!-- Generator: Sketch 63 (92445) - https://sketch.com -->
    <title>矩形</title>
    <desc>Created with Sketch.</desc>
    <g id="页面-1" stroke="none" stroke-width="1" fill="none" fill-rule="evenodd">
        <g id="画板" transform="translate(-324.000000, -685.000000)">
            <g id="订单流转审批-点击" transform="translate(324.000000, 685.000000)">
                <rect id="矩形" x="0" y="0" width="20" height="20"></rect>
                <g id="编组-8" transform="translate(3.000000, 2.000000)" fill="#08B347">
                    <path d="M12.9579614,10.1280397 L9.5599014,10.1280397 C9.25779631,9.75999238 9.03131428,9.3280192 9.00106137,8.8639952 C8.85005491,6.9280358 10.8737921,5.99998779 10.8737921,3.63197709 C10.8889462,1.61597854 9.39375927,2.84217094e-14 6.99244138,2.84217094e-14 C4.60624073,2.84217094e-14 3.11109063,1.61597854 3.11109063,3.63197709 C3.11109063,6.01602297 5.13482785,6.9280358 4.9838214,8.8639952 C4.95364223,9.34401531 4.72708646,9.75999238 4.42505511,10.1280397 L1.02699507,10.1280397 C0.453037801,10.1280397 9.76996262e-15,10.6080012 9.76996262e-15,11.2000332 L9.76996262e-15,13.3280436 L14,13.3280436 L14,11.2000332 C14,10.6080012 13.531845,10.1280397 12.9579614,10.1280397 L12.9579614,10.1280397 Z" id="路径"></path>
                    <polygon id="路径" points="9.76996262e-15 16 14 16 14 14.4000371 9.76996262e-15 14.4000371"></polygon>
                </g>
            </g>
        </g>
    </g>
</svg>