<?xml version="1.0" encoding="UTF-8"?>
<svg width="20px" height="20px" viewBox="0 0 20 20" version="1.1" xmlns="http://www.w3.org/2000/svg" xmlns:xlink="http://www.w3.org/1999/xlink">
    <!-- Generator: Sketch 63 (92445) - https://sketch.com -->
    <title>矩形</title>
    <desc>Created with Sketch.</desc>
    <g id="页面-1" stroke="none" stroke-width="1" fill="none" fill-rule="evenodd">
        <g id="画板" transform="translate(-349.000000, -685.000000)">
            <g id="业务中心-点击" transform="translate(349.000000, 685.000000)">
                <rect id="矩形" x="0" y="0" width="20" height="20"></rect>
                <g id="icon" transform="translate(1.000000, 3.000000)" fill="#08B347">
                    <path d="M9.92822791,13.5291544 C9.77197209,13.8997074 9.34220465,14.0766659 8.96820465,13.9217581 L0.452855814,10.4176567 C0.0789488372,10.262841 -0.099655814,9.83703456 0.0566,9.46648157 C0.212925581,9.0959977 0.642623256,8.91906221 1.01662326,9.07385484 L9.53006512,12.5798687 C9.90587907,12.7309516 10.0844837,13.1586935 9.92822791,13.5291544" id="Fill-1"></path>
                    <path d="M9.80159235,10.4673932 C9.64732959,10.8328932 9.22304388,11.0074386 8.85381429,10.8546432 L0.447079592,7.398325 C0.0779418367,7.24559773 -0.0983846939,6.82562045 0.0558780612,6.46012045 C0.210209694,6.09468864 0.634426531,5.92016591 1.00365612,6.07284773 L9.40850816,9.53105227 C9.77952857,9.680075 9.9558551,10.1019841 9.80159235,10.4673932" id="路径"></path>
                    <path d="M8.46995969,13.5546659 C8.62422245,13.9201659 9.04850816,14.0946886 9.41773776,13.9419159 L17.5360592,10.6019841 C17.9052888,10.4491659 18.0816153,10.0292568 17.9273526,9.66375682 C17.772998,9.29834773 17.3487122,9.12373409 16.9795745,9.27650682 L8.86116122,12.6165295 C8.49202347,12.7692114 8.31569694,13.1892568 8.46995969,13.5546659" id="路径"></path>
                    <g id="分组">
                        <path d="M17.9401959,3.76128251 C17.8740964,3.58493674 17.7326449,3.43450255 17.5342546,3.35676778 L9.12931071,0.06841611 C9.03568316,0.0321312377 8.93829031,0.0148208251 8.84287194,0.0165064833 C8.74736173,0.0148208251 8.64994592,0.0321312377 8.55634133,0.06841611 L0.452644898,3.23747505 C0.23772398,3.3204613 0.0889484694,3.48989155 0.0320326531,3.6852334 C0.0301270408,3.68869116 0.0301270408,3.69383458 0.0283362245,3.69729234 L0.0283362245,3.69906444 C-0.0689647959,4.0258444 0.107361735,4.37847112 0.448971429,4.51159489 L8.85382347,7.79992495 C9.04114745,7.87260275 9.24321122,7.86737289 9.41586429,7.79823929 L9.41774694,7.79823929 L17.5360454,4.62226483 C17.8960684,4.48222554 18.0724638,4.10191513 17.9401959,3.76128251" id="路径"></path>
                        <path d="M8.46996888,10.5765281 C8.62423163,10.9240762 9.04851735,11.0900271 9.41774694,10.944758 L17.5360454,7.76886994 C17.905275,7.62357917 18.0816015,7.22427269 17.9273388,6.87672456 C17.7730071,6.52926287 17.3486985,6.36322554 16.9795607,6.5084947 L8.86117041,9.68446916 C8.49203265,9.82967348 8.31570612,10.2290664 8.46996888,10.5765281" id="路径"></path>
                    </g>
                </g>
            </g>
        </g>
    </g>
</svg>