<?xml version="1.0" encoding="UTF-8"?>
<svg width="20px" height="20px" viewBox="0 0 20 20" version="1.1" xmlns="http://www.w3.org/2000/svg" xmlns:xlink="http://www.w3.org/1999/xlink">
    <!-- Generator: Sketch 63 (92445) - https://sketch.com -->
    <title>矩形</title>
    <desc>Created with Sketch.</desc>
    <g id="页面-1" stroke="none" stroke-width="1" fill="none" fill-rule="evenodd">
        <g id="画板" transform="translate(-423.000000, -685.000000)">
            <g id="运营角色设置-点击" transform="translate(423.000000, 685.000000)">
                <rect id="矩形" x="0" y="0" width="20" height="20"></rect>
                <g id="编组-9" transform="translate(1.000000, 2.000000)" fill="#08B347" fill-rule="nonzero">
                    <path d="M9.74667008,13.2176223 L8.85832773,12.6833934 L9.77800722,11.1313646 C9.6090496,11.1040451 9.43905107,11.0787525 9.26806639,11.0574959 C9.20838703,11.051433 9.1426265,11.0484015 9.08901003,11.0241134 C8.81479175,10.9067635 8.66203229,10.6335861 8.70147765,10.340193 C8.72576576,10.1631089 8.7824502,9.99820539 8.86943087,9.84442328 C8.9301329,9.73313624 9.01309598,9.63399325 9.06773511,9.52066089 C9.10617607,9.43567075 9.1759907,9.38508573 9.24175123,9.32841955 C9.44513223,9.15137198 9.63227854,8.95911239 9.80023176,8.74868236 C10.2049484,8.2418095 10.4998938,7.67116665 10.7143597,7.06208283 C10.7305578,7.01657458 10.7467377,6.97508391 10.7629359,6.92650768 C10.785197,6.93257057 10.8013769,6.93560202 10.8115121,6.94170144 C10.9511231,7.00138081 11.0887253,6.98317386 11.206057,6.90022903 C11.2951195,6.83952701 11.3821185,6.76461735 11.4448475,6.67763668 C11.7564659,6.23650609 11.8556271,5.74681753 11.7463489,5.21865149 C11.7220608,5.0982701 11.6714757,4.98798745 11.5925485,4.89390297 C11.4954326,4.77954795 11.3800731,4.7229183 11.2283546,4.74110699 C11.2081023,4.74517936 11.1838142,4.74110699 11.1575173,4.74110699 L11.1575173,4.68445907 C11.153445,4.35664258 11.1635802,4.02681729 11.1473821,3.69697374 C11.1291934,3.25180731 11.0542837,2.81673961 10.9207539,2.39080279 C10.7548277,1.87379467 10.5059384,1.40638543 10.1189539,1.0158216 C9.69500761,0.586853327 9.17597244,0.325801754 8.59623524,0.17200138 C8.04381761,0.0263274797 7.47923765,-0.0141405361 6.90963572,0.00408468038 C6.47659508,0.0202463203 6.05268531,0.0829753972 5.64190573,0.21451471 C4.58968253,0.548394103 3.84297825,1.22018873 3.42717669,2.24613329 C3.22280956,2.74794764 3.12667976,3.27406837 3.08822053,3.81028784 C3.06090097,4.17050066 3.06899092,4.5306587 3.09125198,4.89087152 L3.09125198,4.96976224 C3.07808527,4.96976224 3.07505382,4.97178929 3.07202237,4.97178929 C3.06393242,4.97178929 3.0507657,4.97582513 3.04369841,4.97178929 C2.85651557,4.93637978 2.71487752,5.01227557 2.61975212,5.16200357 C2.56208154,5.25102956 2.51149652,5.3562537 2.49023986,5.46145959 C2.38298866,5.97545452 2.48521788,6.45301728 2.77861099,6.88401261 C2.82411925,6.95077753 2.88383514,7.01147955 2.94554156,7.06409163 C3.14485019,7.2300178 3.31181728,7.23810775 3.54147692,7.09847848 C3.55562977,7.13995089 3.56779209,7.16931577 3.5759003,7.19966678 C3.6305029,7.3261476 3.67907913,7.44855604 3.7326956,7.5720054 C4.05444919,8.28021394 4.48341747,8.91360413 5.09655539,9.40933732 C5.11074476,9.42149964 5.13097877,9.43362544 5.13097877,9.44578776 C5.13401022,9.51459799 5.18864934,9.5510119 5.2230362,9.60157866 C5.3181616,9.74931614 5.40516053,9.9010712 5.46586256,10.0669974 C5.51038468,10.1924373 5.54276274,10.324981 5.53770424,10.4595517 C5.5276055,10.7610531 5.29387349,11.0221046 5.00857032,11.0544462 C4.32561777,11.1323873 3.65177783,11.2649127 2.98907755,11.4531 C2.41439885,11.6159947 1.85995416,11.8193392 1.33788754,12.1147593 C1.03028679,12.2887754 0.742956572,12.489125 0.496094371,12.7420866 C0.299817189,12.9454311 0.1328501,13.1740863 0.0316983225,13.4402147 C0.013473106,13.4887544 0.0013473106,13.546425 0.0013473106,13.6000414 C-0.00168413824,13.8368049 0.0013473106,14.0745545 0.0013473106,14.3123223 C0.0013473106,14.3447004 0.00437875944,14.3770967 0.00841460398,14.4195735 L9.05055081,14.4195735 L8.87350324,14.1221446 L9.71931399,13.5777804 C9.82756958,13.5089701 9.86398349,13.3855755 9.81339847,13.2732476 C9.79723683,13.2479733 9.78711983,13.2419104 9.74667008,13.2176223 L9.74667008,13.2176223 Z" id="形状"></path>
                    <g id="运营" transform="translate(10.000000, 7.677176)">
                        <path d="M3.09048954,2.55715486 C3.09048954,1.87620169 2.51429839,1.30001054 1.78096421,1.30001054 C1.07382053,1.30001054 0.471438872,1.85001118 0.471438872,2.55715486 C0.471438872,2.89763145 0.602391406,3.18572702 0.838105966,3.42144158 C0.785724952,3.65715614 0.733343939,3.91906121 0.733343939,4.18096628 C0.733343939,5.35953908 1.38810661,6.40715934 2.35715535,6.98335049 L2.61906042,5.96192073 C2.09525029,5.54287262 1.7547737,4.88810996 1.7547737,4.18096628 C1.7547737,4.05001374 1.7547737,3.91906121 1.78096421,3.78810868 C2.51429839,3.78810868 3.09048954,3.23810804 3.09048954,2.55715486 L3.09048954,2.55715486 Z M4.21668133,1.87620169 C4.66191994,1.87620169 5.08096805,1.98096372 5.44763514,2.19048777 C5.39525413,2.3214403 5.36906362,2.47858334 5.36906362,2.63572638 C5.36906362,3.31667956 5.94525477,3.8928707 6.65239845,3.8928707 C7.35954213,3.8928707 7.96192378,3.34287006 7.96192378,2.63572638 C7.96192378,1.95477321 7.38573263,1.37858206 6.65239845,1.37858206 C6.49525541,1.37858206 6.31192186,1.40477257 6.18096933,1.45715358 C5.63096869,1.09048649 4.95001551,0.854771931 4.21668133,0.854771931 C3.7190617,0.854771931 3.24763258,0.959533958 2.82858447,1.1428675 L3.43096613,1.95477321 C3.66668069,1.9023922 3.92858575,1.87620169 4.21668133,1.87620169 L4.21668133,1.87620169 Z M6.62620794,4.2857283 C6.60001743,5.12382452 6.0762073,5.8571587 5.34287311,6.2238258 C5.13334906,5.8309682 4.68811045,5.54287262 4.19049082,5.54287262 C3.48334714,5.54287262 2.88096549,6.09287326 2.88096549,6.80001694 C2.88096549,7.48097012 3.45715663,8.05716126 4.19049082,8.05716126 C4.74049146,8.05716126 5.18573007,7.74287518 5.39525413,7.29763657 C6.73096997,6.82620745 7.67382821,5.62144414 7.67382821,4.20715678 L7.67382821,3.99763273 L6.62620794,4.2857283 L6.62620794,4.2857283 Z M3.09048954,2.55715486 C3.09048954,1.87620169 2.51429839,1.30001054 1.78096421,1.30001054 C1.07382053,1.30001054 0.471438872,1.85001118 0.471438872,2.55715486 C0.471438872,2.89763145 0.602391406,3.18572702 0.838105966,3.42144158 C0.785724952,3.65715614 0.733343939,3.91906121 0.733343939,4.18096628 C0.733343939,5.35953908 1.38810661,6.40715934 2.35715535,6.98335049 L2.61906042,5.96192073 C2.09525029,5.54287262 1.7547737,4.88810996 1.7547737,4.18096628 C1.7547737,4.05001374 1.7547737,3.91906121 1.78096421,3.78810868 C2.51429839,3.78810868 3.09048954,3.23810804 3.09048954,2.55715486 Z M4.21668133,1.87620169 C4.66191994,1.87620169 5.08096805,1.98096372 5.44763514,2.19048777 C5.39525413,2.3214403 5.36906362,2.47858334 5.36906362,2.63572638 C5.36906362,3.31667956 5.94525477,3.8928707 6.65239845,3.8928707 C7.35954213,3.8928707 7.96192378,3.34287006 7.96192378,2.63572638 C7.96192378,1.95477321 7.38573263,1.37858206 6.65239845,1.37858206 C6.49525541,1.37858206 6.31192186,1.40477257 6.18096933,1.45715358 C5.63096869,1.09048649 4.95001551,0.854771931 4.21668133,0.854771931 C3.7190617,0.854771931 3.24763258,0.959533958 2.82858447,1.1428675 L3.43096613,1.95477321 C3.66668069,1.9023922 3.92858575,1.87620169 4.21668133,1.87620169 L4.21668133,1.87620169 Z M6.62620794,4.2857283 C6.60001743,5.12382452 6.0762073,5.8571587 5.34287311,6.2238258 C5.13334906,5.8309682 4.68811045,5.54287262 4.19049082,5.54287262 C3.48334714,5.54287262 2.88096549,6.09287326 2.88096549,6.80001694 C2.88096549,7.48097012 3.45715663,8.05716126 4.19049082,8.05716126 C4.74049146,8.05716126 5.18573007,7.74287518 5.39525413,7.29763657 C6.73096997,6.82620745 7.67382821,5.62144414 7.67382821,4.20715678 L7.67382821,3.99763273 L6.62620794,4.2857283 L6.62620794,4.2857283 Z M3.09048954,2.55715486 C3.09048954,1.87620169 2.51429839,1.30001054 1.78096421,1.30001054 C1.07382053,1.30001054 0.471438872,1.85001118 0.471438872,2.55715486 C0.471438872,2.89763145 0.602391406,3.18572702 0.838105966,3.42144158 C0.785724952,3.65715614 0.733343939,3.91906121 0.733343939,4.18096628 C0.733343939,5.35953908 1.38810661,6.40715934 2.35715535,6.98335049 L2.61906042,5.96192073 C2.09525029,5.54287262 1.7547737,4.88810996 1.7547737,4.18096628 C1.7547737,4.05001374 1.7547737,3.91906121 1.78096421,3.78810868 C2.51429839,3.78810868 3.09048954,3.23810804 3.09048954,2.55715486 Z M4.21668133,1.87620169 C4.66191994,1.87620169 5.08096805,1.98096372 5.44763514,2.19048777 C5.39525413,2.3214403 5.36906362,2.47858334 5.36906362,2.63572638 C5.36906362,3.31667956 5.94525477,3.8928707 6.65239845,3.8928707 C7.35954213,3.8928707 7.96192378,3.34287006 7.96192378,2.63572638 C7.96192378,1.95477321 7.38573263,1.37858206 6.65239845,1.37858206 C6.49525541,1.37858206 6.31192186,1.40477257 6.18096933,1.45715358 C5.63096869,1.09048649 4.95001551,0.854771931 4.21668133,0.854771931 C3.7190617,0.854771931 3.24763258,0.959533958 2.82858447,1.1428675 L3.43096613,1.95477321 C3.66668069,1.9023922 3.92858575,1.87620169 4.21668133,1.87620169 L4.21668133,1.87620169 Z M6.62620794,4.2857283 C6.60001743,5.12382452 6.0762073,5.8571587 5.34287311,6.2238258 C5.13334906,5.8309682 4.68811045,5.54287262 4.19049082,5.54287262 C3.48334714,5.54287262 2.88096549,6.09287326 2.88096549,6.80001694 C2.88096549,7.48097012 3.45715663,8.05716126 4.19049082,8.05716126 C4.74049146,8.05716126 5.18573007,7.74287518 5.39525413,7.29763657 C6.73096997,6.82620745 7.67382821,5.62144414 7.67382821,4.20715678 L7.67382821,3.99763273 L6.62620794,4.2857283 L6.62620794,4.2857283 Z" id="形状"></path>
                    </g>
                </g>
            </g>
        </g>
    </g>
</svg>