<?xml version="1.0" encoding="UTF-8"?>
<svg width="20px" height="20px" viewBox="0 0 20 20" version="1.1" xmlns="http://www.w3.org/2000/svg" xmlns:xlink="http://www.w3.org/1999/xlink">
    <!-- Generator: Sketch 63 (92445) - https://sketch.com -->
    <title>矩形</title>
    <desc>Created with Sketch.</desc>
    <g id="页面-1" stroke="none" stroke-width="1" fill="none" fill-rule="evenodd">
        <g id="画板" transform="translate(-399.000000, -685.000000)">
            <g id="运营人员设置-点击" transform="translate(399.000000, 685.000000)">
                <rect id="矩形" x="0" y="0" width="20" height="20"></rect>
                <path d="M11.9244631,15.5404465 L11.0361208,15.0062176 L11.9558003,13.4541888 C11.7868427,13.4268693 11.6168441,13.4015768 11.4458594,13.3803201 C11.3861801,13.3742572 11.3204195,13.3712257 11.2668031,13.3469376 C10.9925848,13.2295877 10.8398253,12.9564103 10.8792707,12.6630172 C10.9035588,12.4859331 10.9602433,12.3210296 11.0472239,12.1672475 C11.1079259,12.0559604 11.190889,11.9568175 11.2455282,11.8434851 C11.2839691,11.758495 11.3537837,11.7079099 11.4195443,11.6512438 C11.6229253,11.4741962 11.8100716,11.2819366 11.9780248,11.0715066 C12.3827415,10.5646337 12.6776869,9.99399085 12.8921527,9.38490704 C12.9083509,9.33939878 12.9245308,9.29790811 12.940729,9.24933188 C12.96299,9.25539478 12.9791699,9.25842623 12.9893052,9.26452565 C13.1289162,9.32420501 13.2665184,9.30599806 13.3838501,9.22305324 C13.4729126,9.16235121 13.5599115,9.08744155 13.6226406,9.00046089 C13.9342589,8.5593303 14.0334202,8.06964174 13.9241419,7.54147569 C13.8998538,7.4210943 13.8492688,7.31081165 13.7703415,7.21672717 C13.6732256,7.10237215 13.5578662,7.0457425 13.4061477,7.06393119 C13.3858954,7.06800356 13.3616073,7.06393119 13.3353104,7.06393119 L13.3353104,7.00728327 C13.331238,6.67946678 13.3413733,6.34964149 13.3251751,6.01979795 C13.3069864,5.57463151 13.2320768,5.13956382 13.0985469,4.71362699 C12.9326207,4.19661887 12.6837315,3.72920964 12.296747,3.3386458 C11.8728007,2.90967753 11.3537655,2.64862596 10.7740283,2.49482558 C10.2216107,2.34915168 9.6570307,2.30868367 9.08742877,2.32690888 C8.65438813,2.34307052 8.23047836,2.4057996 7.81969878,2.53733891 C6.76747558,2.87121831 6.02077129,3.54301293 5.60496973,4.56895749 C5.4006026,5.07077184 5.3044728,5.59689257 5.26601358,6.13311204 C5.23869402,6.49332486 5.24678397,6.8534829 5.26904503,7.21369572 L5.26904503,7.29258644 C5.25587831,7.29258644 5.25284686,7.29461349 5.24981542,7.29461349 C5.24172546,7.29461349 5.22855875,7.29864934 5.22149146,7.29461349 C5.03430862,7.25920398 4.89267057,7.33509977 4.79754516,7.48482778 C4.73987459,7.57385376 4.68928957,7.6790779 4.6680329,7.78428379 C4.5607817,8.29827872 4.66301092,8.77584148 4.95640404,9.20683681 C5.00191229,9.27360173 5.06162818,9.33430376 5.1233346,9.38691583 C5.32264323,9.552842 5.48961032,9.56093195 5.71926997,9.42130268 C5.73342281,9.4627751 5.74558513,9.49213997 5.75369335,9.52249099 C5.80829595,9.6489718 5.85687218,9.77138024 5.91048864,9.8948296 C6.23224224,10.6030381 6.66121051,11.2364283 7.27434844,11.7321615 C7.28853781,11.7443238 7.30877181,11.7564496 7.30877181,11.768612 C7.31180326,11.8374222 7.36644239,11.8738361 7.40082925,11.9244029 C7.49595465,12.0721403 7.58295358,12.2238954 7.6436556,12.3898216 C7.68817773,12.5152615 7.72055579,12.6478052 7.71549729,12.7823759 C7.70539855,13.0838773 7.47166654,13.3449288 7.18636337,13.3772704 C6.50341082,13.4552115 5.82957087,13.5877369 5.16687059,13.7759242 C4.5921919,13.9388189 4.03774721,14.1421634 3.51568058,14.4375835 C3.20807984,14.6115996 2.92074962,14.8119492 2.67388742,15.0649108 C2.47761024,15.2682553 2.31064315,15.4969105 2.20949137,15.7630389 C2.19126615,15.8115786 2.17914036,15.8692492 2.17914036,15.9228656 C2.17610891,16.1596291 2.17914036,16.3973787 2.17914036,16.6351465 C2.17914036,16.6675246 2.18217181,16.6999209 2.18620765,16.7423977 L11.2283439,16.7423977 L11.0512963,16.4449688 L11.897107,15.9006046 C12.0053626,15.8317943 12.0417765,15.7083997 11.9911915,15.5960718 C11.9750299,15.5707975 11.9649129,15.5647346 11.9244631,15.5404465 L11.9244631,15.5404465 Z M18.3213132,16.3741497 C17.9995596,15.7701244 18.1999092,15.0467221 18.7644526,14.6834779 L18.120982,13.5978722 C17.9591282,13.7182901 17.7183288,13.7577355 17.5159522,13.7577355 C16.8340224,13.7577355 16.3099287,13.1951826 16.3099287,12.5112621 L15.0634554,12.5112621 C15.0634554,12.7125978 15.020942,12.9544015 14.901565,13.1142648 C14.579848,13.7182901 13.814955,13.8791578 13.2119341,13.5574407 L12.5689565,14.6440508 C12.7687947,14.7644687 12.8881717,14.8848501 13.009594,15.0861857 C13.331311,15.6902111 13.130998,16.4146543 12.5689565,16.7768576 L13.2119341,17.8614772 C13.3717973,17.7420636 13.6146237,17.7016139 13.814955,17.7016139 C14.4988754,17.7016139 15.020942,18.2641668 15.020942,18.9076375 L16.2694789,18.9076375 C16.2694789,18.7072879 16.3099287,18.5049478 16.4293422,18.3046165 C16.7510593,17.7016139 17.5159522,17.540728 18.120982,17.8614772 L18.7644526,16.7768576 C18.6025806,16.7363531 18.4406902,16.5744445 18.3213132,16.3741497 Z M15.6664397,17.0581067 C14.731603,17.0581067 14.0658348,16.0554276 14.5292264,15.1701532 C14.7133778,14.8180486 15.059383,14.5640826 15.4519739,14.5003491 C16.2755418,14.366801 16.9533993,15.0204252 16.9533993,15.7701062 C16.9533993,16.4550675 16.390883,17.0581067 15.6664397,17.0581067 Z" id="形状" fill="#08B347" fill-rule="nonzero"></path>
            </g>
        </g>
    </g>
</svg>