<svg t="1584325763052" class="icon" viewBox="0 0 1024 1024" version="1.1" xmlns="http://www.w3.org/2000/svg" p-id="2667" width="128" height="128"><path d="M780.007475 958.730461 243.903497 958.730461c-98.599645 0-178.61298-79.969333-178.61298-178.61298L65.290517 244.01248c0-98.730629 80.013335-178.744987 178.61298-178.744987l536.105001 0c98.772584 0 178.700985 80.013335 178.700985 178.744987l0 536.105001C958.70846 878.760105 878.781082 958.730461 780.007475 958.730461L780.007475 958.730461zM869.44546 288.687982c0-74.03825-60.119239-134.069485-134.113487-134.069485L288.578999 154.618497c-73.994248 0-134.027529 60.031235-134.027529 134.069485l0 446.665992c0 74.124208 60.033281 134.069485 134.027529 134.069485l446.752973 0c73.994248 0 134.113487-59.945277 134.113487-134.069485L869.44546 288.687982 869.44546 288.687982zM556.630988 735.353974l-89.351004 0L467.279984 556.740994 288.578999 556.740994l0-89.440032 178.700985 0L467.279984 288.687982 556.630988 288.687982l0 178.61298 178.700985 0 0 89.440032L556.630988 556.740994 556.630988 735.353974 556.630988 735.353974z" p-id="2668" fill="#0084ff"></path></svg>
