<?xml version="1.0" encoding="UTF-8"?>
<svg width="24px" height="24px" viewBox="0 0 24 24" version="1.1" xmlns="http://www.w3.org/2000/svg" xmlns:xlink="http://www.w3.org/1999/xlink">
    <!-- Generator: Sketch 53.2 (72643) - https://sketchapp.com -->
    <title>矩形</title>
    <desc>Created with Sketch.</desc>
    <g id="Page-1" stroke="none" stroke-width="1" fill="none" fill-rule="evenodd">
        <g id="画板" transform="translate(-330.000000, -149.000000)">
            <g id="分组-40" transform="translate(330.000000, 149.000000)">
                <rect id="矩形" x="0" y="0" width="24" height="24"></rect>
                <g id="分组-36" transform="translate(3.000000, 3.000000)">
                    <path d="M15.5790418,1.29674049e-13 L3.22598195,1.29674049e-13 C1.88890961,1.29674049e-13 0.80495282,1.08393315 0.80495282,2.42093456 L0.80495282,4.80439591 C0.35343025,4.8613741 0,5.2305029 0,5.69781859 C0,6.16501608 0.35343025,6.53305733 0.80495282,6.59114671 L0.80495282,8.352411 C0.34910369,8.40328945 0.00333357851,8.78702925 0,9.24573911 C0,9.71175448 0.35343025,10.0809778 0.80495282,10.1390672 L0.80495282,11.9366462 C0.35343025,11.9935299 0,12.3627532 0,12.8299744 C0,13.2972664 0.35343025,13.6652131 0.80495282,13.7220967 L0.80495282,16.0704491 C0.80495282,17.4075451 1.88890961,18.4915019 3.22598195,18.4915019 L15.5790418,18.4915019 C16.9160432,18.4915019 18,17.4075451 18,16.0704491 L18,2.42093456 C18,1.08393315 16.9160432,1.29674049e-13 15.5790418,1.29674049e-13 Z" id="fangkuanbishu" fill="#0263FF"></path>
                    <path d="M12.6651429,10.9979079 C13.0649905,10.9979079 13.3916952,11.3246127 13.3916952,11.7244603 C13.3916952,12.1243079 13.0649905,12.4510127 12.6651429,12.4510127 L10.4214857,12.4510127 L10.4214857,14.3240793 C10.4214857,14.723927 10.094781,15.0506317 9.69493333,15.0506317 C9.29408658,15.0496267 8.96938601,14.7249261 8.96838095,14.3240793 L8.96838095,12.4510127 L6.72655238,12.4510127 C6.32570563,12.4500076 6.00100505,12.125307 6,11.7244603 C6,11.3246127 6.32670476,10.9979079 6.72655238,10.9979079 L8.97020952,10.9979079 L8.97020952,9.92453648 L6.72655238,9.92453648 C6.32570563,9.92353143 6.00100505,9.59883086 6,9.1979841 C6,8.79813648 6.32670476,8.4708222 6.72655238,8.4708222 L8.33874286,8.4708222 L6.38826667,6.19607934 C6.12981531,5.89130559 6.16517155,5.43520999 6.46750476,5.17390791 C6.77203494,4.91401875 7.22941799,4.94945367 7.49028571,5.25314601 L9.6967619,7.82411744 L11.9032381,5.25314601 C12.164756,4.95073883 12.6210444,4.91538872 12.926019,5.17390791 C13.2283429,5.43417458 13.2636952,5.89314601 13.0052571,6.19607934 L11.054781,8.4708222 L12.667581,8.4708222 C13.0674286,8.4708222 13.3941333,8.79813648 13.3941333,9.1979841 C13.3941333,9.5972222 13.0674286,9.92453648 12.667581,9.92453648 L10.4214857,9.92453648 L10.4214857,10.9972984 L12.6651429,10.9972984 L12.6651429,10.9979079 Z" id="路径" fill="#FFFFFF"></path>
                </g>
            </g>
        </g>
    </g>
</svg>