<?xml version="1.0" encoding="UTF-8"?>
<svg width="24px" height="24px" viewBox="0 0 24 24" version="1.1" xmlns="http://www.w3.org/2000/svg" xmlns:xlink="http://www.w3.org/1999/xlink">
    <!-- Generator: Sketch 53.2 (72643) - https://sketchapp.com -->
    <title>矩形</title>
    <desc>Created with Sketch.</desc>
    <g id="Page-1" stroke="none" stroke-width="1" fill="none" fill-rule="evenodd">
        <g id="画板" transform="translate(-443.000000, -150.000000)">
            <g id="分组-29" transform="translate(443.000000, 150.000000)">
                <rect id="矩形" x="0" y="0" width="24" height="24"></rect>
                <g id="fangkuane" transform="translate(4.000000, 3.000000)" fill="#0263FF">
                    <path d="M14.7833554,8.99250647 L14.7785899,8.98668201 C13.6423597,9.76221007 11.1069237,10.7287482 8.1070964,10.7287482 C5.10729209,10.7287482 2.49648345,9.76221007 1.36142734,8.98668201 L1.34370072,9.01023309 C0.571671942,8.42083453 0.123741007,7.70419568 0.123741007,6.8945036 L0.123741007,9.22831655 C0.123741007,10.2348662 0.743804317,11.1106763 1.77275396,11.8108547 C3.00809209,12.8445928 5.36313094,13.5753439 8.07058417,13.5753439 C10.8947799,13.5753439 13.3335482,12.7785669 14.5192518,11.6729094 C15.4315741,10.9975482 15.980846,10.1713036 15.980846,9.22714245 L15.980846,6.8945036 C15.980846,7.69719712 15.542446,8.4078964 14.7833554,8.99250647 Z" id="Fill-1"></path>
                    <path d="M7.96689496,14.9981007 C1.0950446,14.9390964 0,11.4383885 0,11.4383885 L0,13.6496115 C0,15.3681496 2.33381295,16.842705 5.40440863,17.3342388 C6.55010072,17.448541 7.34100719,17.4803799 7.96689496,17.4721842 C8.59153957,17.4803799 9.38364317,17.448541 10.5294043,17.3330647 C13.5999079,16.842705 15.9337209,15.3681496 15.9337209,13.6496115 L15.9337209,11.4383885 C15.9337209,11.4383885 14.8375022,14.9390964 7.96689496,14.9981007 Z M8.18371223,9.58190504 C12.0321842,9.58190504 15.2206043,8.2652777 15.8512576,6.53612662 C15.9279655,6.39827338 15.9696115,6.24359137 15.9726504,6.0858705 L15.9726504,4.22471367 C15.9726504,4.21527482 15.9678849,4.20698705 15.9667338,4.1963741 L15.9667338,4.19170072 C15.8441439,1.98162878 12.2821065,0.0167136691 7.9833554,0.0167136691 C3.68580144,0.0167136691 0.246307914,1.85906187 0.246307914,4.06913381 L0.246307914,5.4211223 C0.222756835,5.84538705 0.331211511,6.25321439 0.550446043,6.63864173 C1.26708489,8.31831942 4.41187914,9.58307914 8.18371223,9.58307914 L8.18371223,9.58190504 Z" id="Fill-2"></path>
                </g>
            </g>
        </g>
    </g>
</svg>