<?xml version="1.0" encoding="UTF-8"?>
<svg width="24px" height="24px" viewBox="0 0 24 24" version="1.1" xmlns="http://www.w3.org/2000/svg" xmlns:xlink="http://www.w3.org/1999/xlink">
    <!-- Generator: Sketch 53.2 (72643) - https://sketchapp.com -->
    <title>分组 26</title>
    <desc>Created with Sketch.</desc>
    <g id="Page-1" stroke="none" stroke-width="1" fill="none" fill-rule="evenodd">
        <g id="画板" transform="translate(-254.000000, -149.000000)">
            <g id="分组-26" transform="translate(254.000000, 149.000000)">
                <rect id="矩形" x="0" y="0" width="24" height="24"></rect>
                <g id="fugai" transform="translate(3.000000, 3.000000)" fill="#0263FF">
                    <path d="M15.7101029,8.19611346 L9.42585313,8.19611346 C8.74687858,8.19611346 8.19573054,8.74645608 8.19573054,9.42546102 L8.19573054,15.7083318 C8.19573054,16.1017895 7.85209305,16.3948075 7.46031312,16.3599441 C3.20302649,15.9805979 -0.117972489,12.3473404 0.00321367773,7.96369123 C0.121909717,3.68712228 3.68694112,0.121931347 7.96331871,0.00322999597 C12.3650327,-0.118791673 16.0114082,3.2314087 16.3641762,7.51461829 C16.3940577,7.88566377 16.0819618,8.19611346 15.7101029,8.19611346 L15.7101029,8.19611346 Z M17.2539815,9.84216086 L10.6709165,9.84216086 C10.2127332,9.84216086 9.84170429,10.2132063 9.84170429,10.6705801 L9.84170429,17.2547697 C9.84170429,17.7005223 10.2318241,18.0408549 10.6758967,17.9960306 C14.5364232,17.6067234 17.6059194,14.5370898 17.9960392,10.6755606 C18.0408615,10.2322982 17.6997141,9.84216086 17.2539815,9.84216086 L17.2539815,9.84216086 Z" id="分析"></path>
                </g>
            </g>
        </g>
    </g>
</svg>