<?xml version="1.0" encoding="UTF-8"?>
<svg width="30px" height="30px" viewBox="0 0 30 30" version="1.1" xmlns="http://www.w3.org/2000/svg" xmlns:xlink="http://www.w3.org/1999/xlink">
    <!-- Generator: Sketch 52.5 (67469) - http://www.bohemiancoding.com/sketch -->
    <title></title>
    <desc>用户装饰图标</desc>
    <g id="Page-1" stroke="none" stroke-width="1" fill-rule="evenodd">
        <g id="切图" transform="translate(-101.000000, -1422.000000)">
            <g id="icon18" transform="translate(101.000000, 1422.000000)">
                <path d="M14.9253731,16.5671642 C10.4029851,16.5671642 6.7164179,12.880597 6.7164179,8.35820895 C6.7164179,3.83582089 10.4029851,0.149253721 14.9253731,0.149253721 C19.4477612,0.149253721 23.1343283,3.83582089 23.1343283,8.35820895 C23.1343283,12.880597 19.4477612,16.5671642 14.9253731,16.5671642 Z M14.9253731,1.64179104 C11.2238806,1.64179104 8.20895522,4.65671643 8.20895522,8.35820895 C8.20895522,12.0597015 11.2238806,15.0746268 14.9253731,15.0746269 C18.6268656,15.0746269 21.641791,12.0597015 21.6417911,8.35820895 C21.6417911,4.6567164 18.6268657,1.64179104 14.9253731,1.64179104 Z" id="形状"></path>
                <path d="M29.8507463,30 L28.358209,30 C28.358209,23.3432836 21.5820896,16.5671642 14.9253731,16.5671642 C8.26865669,16.5671642 1.49253729,23.3432836 1.49253732,30 L-3.73034936e-14,30 C-3.73034936e-14,26.4477612 1.70149254,22.7164179 4.64179104,19.7462687 C7.61194031,16.7761194 11.3582089,15.0746269 14.9253731,15.0746269 C18.4925373,15.0746269 22.238806,16.7761194 25.2089552,19.7462687 C28.1492537,22.7164179 29.8507463,26.4477612 29.8507463,30 Z" id="路径"></path>
            </g>
        </g>
    </g>
</svg>
