<?xml version="1.0" encoding="UTF-8"?>
<svg width="28px" height="28px" viewBox="0 0 28 28" version="1.1" xmlns="http://www.w3.org/2000/svg" xmlns:xlink="http://www.w3.org/1999/xlink">
    <!-- Generator: Sketch 53.2 (72643) - https://sketchapp.com -->
    <title>矩形</title>
    <desc>Created with Sketch.</desc>
    <defs>
        <polygon id="path-1" points="0.0036294896 0.0205293913 15.9939599 0.0205293913 15.9939599 19.968208 0.0036294896 19.968208"></polygon>
    </defs>
    <g id="Page-1" stroke="none" stroke-width="1" fill="none" fill-rule="evenodd">
        <g id="首页-保理-业务修订版" transform="translate(-1222.000000, -31.000000)">
            <g id="分组-5" transform="translate(1222.000000, 27.000000)">
                <g id="消息通知" transform="translate(0.000000, 4.000000)">
                    <rect id="矩形" x="0" y="0" width="28" height="28"></rect>
                    <g id="分组" transform="translate(4.000000, 4.000000)">
                        <g>
                            <mask id="mask-2" fill="white">
                                <use xlink:href="#path-1"></use>
                            </mask>
                            <g id="Clip-2"></g>
                            <path d="M14.4380885,4.98751325 C14.1816045,4.68562583 13.746096,4.66973179 13.4727047,4.95052649 C13.1968333,5.23393709 13.1822851,5.70810927 13.4387992,6.01012914 C13.567011,6.1610894 13.7848408,6.49221523 14.0074495,6.99019536 C14.3897558,7.84324172 14.6220431,8.84721523 14.6220431,9.99151987 C14.6220431,11.1358576 14.3897558,12.1398311 14.0074495,12.9928775 C13.7823607,13.4935728 13.5646216,13.8246987 13.4387992,13.9729437 C13.1799259,14.2749636 13.1943531,14.7491358 13.4727047,15.0325464 C13.7484854,15.3160563 14.1816045,15.3001623 14.4405686,14.9955596 C14.6558578,14.7438377 14.9510866,14.2935728 15.2389958,13.6524139 C15.71089,12.6008245 15.9939599,11.3743675 15.9939599,9.98893709 C15.9939599,8.60350662 15.71089,7.37691722 15.2389958,6.32536093 C14.9486064,5.68959934 14.6534684,5.2392351 14.4380885,4.98751325 M10.9440998,0.155791391 L5.47566881,3.99943377 L2.74635312,3.99943377 C1.22922647,3.99943377 9.07372401e-06,5.32926821 9.07372401e-06,6.9929106 L9.07372401e-06,12.9928775 C9.07372401e-06,14.6457914 1.21467826,15.9861887 2.74635312,15.9861887 L5.47566881,15.9861887 L10.94658,19.8299967 C11.7208408,20.1981093 12.318527,19.8034735 12.318527,18.9716523 L12.318527,1.01400331 C12.318527,0.179599338 11.7039335,-0.204440397 10.9440998,0.155791391" id="Fill-1" fill="#2475F7" mask="url(#mask-2)"></path>
                        </g>
                        <path d="M19.2171927,4.23942394 C18.5454262,3.24428632 17.8647093,2.55504817 17.3873124,2.18472852 C17.0425891,1.91727544 16.5181561,1.94302423 16.2116658,2.2438768 C15.9052125,2.54476151 15.934716,3.00245345 16.2794392,3.26990653 C16.3589992,3.33169076 16.5151357,3.46792467 16.7243123,3.68140495 C17.0838793,4.04404175 17.4434464,4.478653 17.7822763,4.98015967 C18.7517298,6.41505186 19.3321495,8.09177693 19.3321495,10.0000482 C19.3321495,11.9082231 18.7517298,13.5874555 17.7822763,15.0224763 C17.4434464,15.523983 17.080859,15.9559583 16.7243123,16.3211024 C16.5151357,16.5345827 16.3589992,16.6709452 16.2794392,16.7300935 C15.934716,16.9975466 15.9052125,17.4578744 16.2116658,17.7561232 C16.5151357,18.0569758 17.0456095,18.0827246 17.3873124,17.8152715 C17.8647093,17.4449518 18.5425901,16.7557137 19.2171927,15.7605761 C20.3311066,14.112075 21,12.1859628 21,10.0000482 C21,7.81413363 20.3311066,5.88792499 19.2171927,4.23942394" id="Fill-3" fill="#2475F7"></path>
                    </g>
                </g>
            </g>
        </g>
    </g>
</svg>