<?xml version="1.0" encoding="UTF-8"?>
<svg width="26px" height="26px" viewBox="0 0 26 26" version="1.1" xmlns="http://www.w3.org/2000/svg" xmlns:xlink="http://www.w3.org/1999/xlink">
    <!-- Generator: Sketch 53.2 (72643) - https://sketchapp.com -->
    <title>矩形</title>
    <desc>Created with Sketch.</desc>
    <defs>
        <polygon id="path-1" points="0.00215568862 0.000650026136 17.9742031 0.000650026136 17.9742031 22.1317664 0.00215568862 22.1317664"></polygon>
    </defs>
    <g id="Page-1" stroke="none" stroke-width="1" fill="none" fill-rule="evenodd">
        <g id="首页-保理-业务" transform="translate(-32.000000, -204.000000)">
            <g id="分组-27" transform="translate(32.000000, 204.000000)">
                <rect id="矩形" x="0" y="0" width="26" height="26"></rect>
                <g id="icon-32" transform="translate(4.000000, 2.000000)">
                    <mask id="mask-2" fill="white">
                        <use xlink:href="#path-1"></use>
                    </mask>
                    <g id="Clip-2"></g>
                    <path d="M17.9295449,18.6508743 C17.8691856,18.3577006 17.8576886,18.0442994 17.7772814,17.7568743 C17.3461437,16.2565868 16.6908503,14.8883713 15.2507784,14.2186707 C14.3827545,13.8163114 13.4256287,13.6151856 12.4398323,13.298982 L12.4398323,16.4434132 C12.0546108,16.0811856 11.6982754,15.7420958 11.338994,15.4028982 C10.9423473,15.0263353 10.5340958,14.8768743 9.95349701,14.9919521 C9.32701796,15.1184192 8.64,15.1184192 8.01337725,14.9919521 C7.43277844,14.8768743 7.03336527,15.0378683 6.62802395,15.4028982 C6.26019162,15.7305988 5.87213174,16.0352695 5.56171257,16.2967545 L5.56171257,13.3075329 C4.79134132,13.5461317 4.10730539,13.7990299 3.40027545,13.9687186 C2.66162874,14.144012 2.04355689,14.5032934 1.54056287,15.0809461 C0.643904192,16.1128743 0.181041916,17.3517126 0.017245509,18.7312814 C-0.0718562874,19.4671257 0.183988024,20.0332814 0.781868263,20.3581796 C1.43712575,20.7116766 2.12410778,21.056515 2.83397605,21.2577844 C6.58494611,22.3155449 10.3731377,22.4247305 14.1614371,21.5221796 C15.1932575,21.2750299 16.1964431,20.8323952 17.1651018,20.372479 C17.8118084,20.0649701 18.0905389,19.4297964 17.9295449,18.6508743 Z M4.24821557,8.46736527 C4.40626347,9.08529341 4.8459521,9.21172455 5.28578443,9.14281437 C5.5071018,9.71766467 5.69967665,10.234994 5.89796407,10.749485 C6.03312575,11.103018 6.30610778,11.4622994 6.29752096,11.8130299 C6.25444311,13.2559042 7.1482994,13.9687186 8.17437126,14.5550659 C8.49923353,14.7389102 8.95325749,14.781988 9.32982036,14.7274132 C10.4278563,14.5636168 11.5890539,13.1322754 11.6637485,11.9767904 C11.6837964,11.6606228 11.6780479,11.240982 11.8562874,11.0599401 C12.3823114,10.5224192 12.5288263,9.86996407 12.5720479,9.09398802 C13.0922874,9.20892216 13.4831497,9.13411976 13.6641916,8.62832335 C13.9085389,7.94134132 14.1872695,7.194 13.6842754,6.57901796 C13.4428743,6.28009581 13.4428743,6.08737725 13.5061796,5.7999521 C14.0435569,3.35403593 12.6236766,0.30154491 9.77820359,0.0428982036 C8.14279042,-0.106562874 6.69132934,0.091760479 5.56171257,1.43694611 C4.54713772,2.65275449 4.15616766,4.06979641 4.44653892,5.67926946 C4.48961677,5.91506587 4.52989222,6.26856287 4.40626347,6.39783234 C3.7825509,7.06182036 4.06997605,7.7631018 4.24821557,8.46736527 Z" id="Fill-1" fill="#FFFFFF" mask="url(#mask-2)"></path>
                </g>
            </g>
        </g>
    </g>
</svg>