<?xml version="1.0" encoding="UTF-8"?>
<svg width="26px" height="26px" viewBox="0 0 26 26" version="1.1" xmlns="http://www.w3.org/2000/svg" xmlns:xlink="http://www.w3.org/1999/xlink">
    <!-- Generator: Sketch 53.2 (72643) - https://sketchapp.com -->
    <title>矩形</title>
    <desc>Created with Sketch.</desc>
    <defs>
        <polygon id="path-1" points="0.00131707317 0.0175609756 14.7132439 0.0175609756 14.7132439 18.0000006 0.00131707317 18.0000006"></polygon>
    </defs>
    <g id="Page-1" stroke="none" stroke-width="1" fill="none" fill-rule="evenodd">
        <g id="画板" transform="translate(-35.000000, -256.000000)">
            <g id="分组-38" transform="translate(35.000000, 256.000000)">
                <rect id="矩形" x="0" y="0" width="26" height="26"></rect>
                <g id="hetongqianshux" transform="translate(4.000000, 4.000000)">
                    <g id="分组">
                        <mask id="mask-2" fill="white">
                            <use xlink:href="#path-1"></use>
                        </mask>
                        <g id="Clip-2"></g>
                        <path d="M14.7132439,9.02673659 C12.3220098,8.7992561 10.1743902,10.491739 9.83653902,12.8698463 C9.49870976,15.2480195 11.0899976,17.4716122 13.4499293,17.9190439 C13.2767122,17.9728902 13.0963829,18.0001537 12.9149561,18 L1.7982878,18 C0.805082927,18 -1.77635684e-14,17.1949171 -1.77635684e-14,16.2018 L-1.77635684e-14,1.81584878 C-1.77635684e-14,0.822643902 0.805082927,0.0175609756 1.7982878,0.0175609756 L12.9149561,0.0175609756 C13.908161,0.0175609756 14.7132439,0.822643902 14.7132439,1.81584878 L14.7132439,9.02673659 Z M4.04604878,4.51319268 C3.74637073,4.51319268 3.5964878,4.6629878 3.5964878,4.96277561 C3.5964878,5.26245366 3.74637073,5.41233659 4.04604878,5.41233659 L10.6635732,5.41233659 C10.9632732,5.41233659 11.1131561,5.26245366 11.1131561,4.96277561 C11.1131561,4.6629878 10.9632732,4.51319268 10.6635732,4.51319268 L4.04604878,4.51319268 Z M4.04604878,8.10968049 C3.74637073,8.10968049 3.5964878,8.25947561 3.5964878,8.55924146 C3.5964878,8.85894146 3.74637073,9.00882439 4.04604878,9.00882439 L10.6635732,9.00882439 C10.9632732,9.00882439 11.1131561,8.85894146 11.1131561,8.55924146 C11.1131561,8.25947561 10.9632732,8.10968049 10.6635732,8.10968049 L4.04604878,8.10968049 Z M4.04604878,11.7061683 C3.74637073,11.7061683 3.5964878,11.8559634 3.5964878,12.1557293 C3.5964878,12.4554293 3.74637073,12.6053122 4.04604878,12.6053122 L7.64253659,12.6053122 C7.94221463,12.6053122 8.09211951,12.4554293 8.09211951,12.1557293 C8.09211951,11.8559634 7.94221463,11.7061683 7.64253659,11.7061683 L4.04604878,11.7061683 Z" id="合并形状" fill="#FFFFFF" mask="url(#mask-2)"></path>
                    </g>
                    <path d="M10.625839,13.5043683 C10.625839,11.4729366 12.2726195,9.82606829 14.304139,9.82606829 C16.3355707,9.82606829 17.9824171,11.4729366 17.9824171,13.5043683 C17.9824171,15.5358878 16.3355707,17.1827341 14.304139,17.1827341 C12.2726195,17.1827341 10.625839,15.5358878 10.625839,13.5043683 Z M14.3049951,14.6561927 L15.5053537,15.1579098 L15.4001415,13.860461 L16.2480293,12.8731829 L14.9812024,12.5720341 L14.304139,11.4606659 L13.6270756,12.5720341 L12.3611049,12.8731829 L13.2081146,13.860461 L13.1029024,15.1579098 L14.3049951,14.6561927 Z" id="合并形状" fill="#FFFFFF"></path>
                </g>
            </g>
        </g>
    </g>
</svg>