<?xml version="1.0" encoding="UTF-8"?>
<svg width="26px" height="26px" viewBox="0 0 26 26" version="1.1" xmlns="http://www.w3.org/2000/svg" xmlns:xlink="http://www.w3.org/1999/xlink">
    <!-- Generator: Sketch 53.2 (72643) - https://sketchapp.com -->
    <title>矩形</title>
    <desc>Created with Sketch.</desc>
    <g id="Page-1" stroke="none" stroke-width="1" fill="none" fill-rule="evenodd">
        <g id="画板" transform="translate(-37.000000, -512.000000)">
            <g id="分组-16" transform="translate(37.000000, 512.000000)">
                <rect id="矩形" x="0" y="0" width="26" height="26"></rect>
                <g id="分组-15" transform="translate(3.000000, 3.000000)" fill="#FFFFFF">
                    <g id="分组-12">
                        <path d="M11.3767482,17.3052751 C11.0697317,17.4960678 10.7407634,17.699349 10.4209102,17.8932218 C10.2073419,18.0243957 9.94292391,18.0243957 9.72921749,17.8932218 C8.97586096,17.4361431 8.09862465,16.8583785 7.71414637,16.6520478 C7.26584148,16.9267687 6.33467237,17.4474528 5.47740777,17.9364309 C5.35104303,17.9859232 5.21607298,18.0064644 5.08160913,17.9964597 C4.96205502,17.9961213 4.84613631,17.9538306 4.75212206,17.8764022 C3.96098495,17.3876174 2.95742993,16.9286537 2.57364192,16.6531595 C2.2525761,16.8597318 1.5711453,17.4787722 0.94396943,17.8956384 C0.755572774,18.0347872 0.504085787,18.0347872 0.315689131,17.8956384 C0.116892465,17.756683 -0.00137314473,17.5214496 0.00147995558,17.2705565 L0.00147995558,0.688027331 C-0.0107147474,0.503784525 0.0528817789,0.323069978 0.176393412,0.191702731 C0.299720973,0.0602871513 0.470999027,-0.00921472572 0.646464696,0.000983393929 L14.3547373,0.000983393929 C14.5299729,-0.00921472572 14.7011129,0.0602871513 14.8244405,0.191702731 C14.947538,0.323069978 15.0109964,0.503929522 14.9984336,0.688027331 L14.9984336,11.0276378 C12.7492126,11.2770719 11,13.1842607 11,15.5 C11,16.1420365 11.1344568,16.7526689 11.3767482,17.3052751 Z M7.32716046,4.00100036 L2.67461816,4.00100036 C2.49086549,3.99439839 2.31196536,4.04513307 2.18332364,4.14057456 C2.05448385,4.23590841 1.98852897,4.36665608 2.00170014,4.49980772 C1.98833091,4.63281584 2.05428579,4.76374291 2.18272945,4.8591844 C2.31137117,4.95476941 2.49007324,5.00579114 2.67402397,4.99947621 L7.32597209,4.99947621 C7.50992282,5.00579114 7.68862489,4.95476941 7.81726661,4.8591844 C7.94590833,4.76374291 8.01166515,4.63281584 7.99829592,4.49980772 C8.01166515,4.36665608 7.94590833,4.23590841 7.81726661,4.14046692 C7.68862489,4.04498955 7.50972476,3.99396782 7.32597209,4.00056979 L7.32716046,4.00100036 Z M10.3698536,7 L3.63010119,7 C3.28208623,7 3,7.22386184 3,7.5 C3,7.77617406 3.28208623,8 3.63010119,8 L10.3698536,8 C10.7178685,8 11,7.77617406 11,7.5 C11,7.22386184 10.7178685,7 10.3698536,7 Z M10.3698536,11 L3.63010119,11 C3.28208623,11 3,11.2238259 3,11.5 C3,11.7761382 3.28208623,12 3.63010119,12 L10.3698536,12 C10.7178685,12 11,11.7761382 11,11.5 C11,11.2238259 10.7178685,11 10.3698536,11 Z" id="合并形状"></path>
                    </g>
                    <g id="weihu" transform="translate(16.511352, 16.843967) rotate(-91.000000) translate(-16.511352, -16.843967) translate(12.011352, 12.343967)">
                        <path d="M8.49640856,2.28609339 L8.03742023,2.7451284 C7.54970428,3.23759533 6.75122568,3.23759533 6.25877043,2.7451284 C5.77105447,2.25262646 5.77105447,1.45414786 6.25877043,0.961692607 L6.71775875,0.502657588 C6.97114786,0.249268482 6.80380156,-0.0519571984 6.34481323,0.0197743191 C5.88103891,0.0914941634 5.43157588,0.30663035 5.07298833,0.665252918 C4.50401556,1.23897665 4.29361868,2.03749027 4.451393,2.77380934 L0.597653696,6.64665759 C0.105198444,7.13915953 0.105198444,7.93762646 0.597653696,8.43009339 C1.08536965,8.92259533 1.88384825,8.92259533 2.3763035,8.43009339 L6.23482879,4.5620428 C6.97114786,4.71501946 7.76967315,4.50942023 8.33864591,3.93564981 C8.69722179,3.57707393 8.91240467,3.12761089 8.98408949,2.65903891 C9.05102335,2.20005058 8.74979767,2.03270428 8.49640856,2.28609339 Z M1.77864981,7.83243969 C1.61608949,7.99498833 1.34834241,7.99498833 1.1857821,7.83243969 C1.02322179,7.66987938 1.02322179,7.40212062 1.1857821,7.23957198 C1.34834241,7.07701167 1.61608949,7.07701167 1.77864981,7.23957198 C1.94599611,7.40212062 1.94599611,7.66987938 1.77864981,7.83243969 Z" id="Fill-1"></path>
                    </g>
                </g>
            </g>
        </g>
    </g>
</svg>