<?xml version="1.0" encoding="UTF-8"?>
<svg width="26px" height="26px" viewBox="0 0 26 26" version="1.1" xmlns="http://www.w3.org/2000/svg" xmlns:xlink="http://www.w3.org/1999/xlink">
    <!-- Generator: Sketch 53.2 (72643) - https://sketchapp.com -->
    <title>矩形</title>
    <desc>Created with Sketch.</desc>
    <defs>
        <polygon id="path-1" points="0.00139364303 0.00664303178 18.9917 0.00664303178 18.9917 19 0.00139364303 19"></polygon>
    </defs>
    <g id="Page-1" stroke="none" stroke-width="1" fill="none" fill-rule="evenodd">
        <g id="首页-保理-业务" transform="translate(-32.000000, -155.000000)">
            <g id="分组-26" transform="translate(32.000000, 155.000000)">
                <rect id="矩形" x="0" y="0" width="26" height="26"></rect>
                <g id="kehuchaxun" transform="translate(4.000000, 3.000000)">
                    <mask id="mask-2" fill="white">
                        <use xlink:href="#path-1"></use>
                    </mask>
                    <g id="Clip-2"></g>
                    <path d="M9.46125672,15.359665 C9.51152078,15.603088 9.59653301,15.8582408 9.71248411,16.136412 C9.83226773,16.4146064 10.0022922,16.6968655 10.2225807,16.9788692 C10.4467017,17.2647518 10.7326773,17.5469413 11.080368,17.8252054 C11.435956,18.1033998 11.8688215,18.3622457 12.3904389,18.6017897 C12.0387763,18.6907971 11.6368264,18.7602934 11.1808961,18.8105575 C10.7867506,18.8608215 10.3114254,18.9033741 9.74342298,18.9419315 C9.17918337,18.9806748 8.5222665,19 7.78226528,19 C7.40354279,19 6.97074694,18.9883863 6.48380807,18.9652518 C5.99503423,18.9382152 5.4868423,18.8995648 4.95932518,18.8492078 C4.43180807,18.7951345 3.91209535,18.741154 3.39619193,18.6792763 C2.92374694,18.622555 2.45220782,18.5581455 1.9818533,18.4860244 C1.5509621,18.4241235 1.18968337,18.3585293 0.897877751,18.2889401 C0.604190709,18.2193509 0.418720049,18.1536638 0.33951467,18.091879 C0.210045232,17.9913509 0.109517115,17.6783154 0.0381161369,17.1606002 C-0.0334706601,16.6426993 -0.00443643032,15.9819963 0.126937653,15.1703154 C0.204238386,14.7027714 0.399394866,14.3511785 0.712337408,14.1114719 C1.02544254,13.871835 1.38665159,13.6787689 1.79631296,13.5317861 C2.20588142,13.3849658 2.63486797,13.2535917 3.08515403,13.1338313 C3.53337286,13.0140477 3.93332518,12.8440232 4.28498778,12.6315391 C4.55937286,12.4653007 4.76804768,12.3107922 4.91105868,12.1562836 C5.05395355,12.0054914 5.15448166,11.8547689 5.21436186,11.7001675 C5.27233741,11.5495611 5.30127873,11.3910342 5.30127873,11.2288142 C5.30127873,11.0664083 5.29556479,10.8887421 5.28195355,10.6954902 C5.25491687,10.3940917 5.15457457,10.1621663 4.97865037,9.99604401 C4.80279584,9.82982885 4.60383007,9.65987408 4.38354156,9.48195232 C4.27918093,9.39703301 4.18845477,9.27337042 4.10915648,9.11493643 C4.03194866,8.95652567 3.96036186,8.79421271 3.89476773,8.63187653 C3.82880196,8.43634841 3.76374205,8.24056479 3.69958802,8.04447922 C3.60876895,8.02125183 3.51794988,7.97488998 3.42713081,7.91310513 C3.34792543,7.84741809 3.26672249,7.75850367 3.18177995,7.64645477 C3.09676773,7.53238509 3.02336919,7.36816748 2.95758924,7.15368582 C2.89380685,6.93927384 2.87067237,6.746022 2.88999756,6.57409291 C2.90932274,6.40404523 2.94416381,6.24944377 2.99623961,6.11035819 C3.04840831,5.95775428 3.1277066,5.82055012 3.23197433,5.69307824 C3.23197433,5.21392054 3.25710636,4.73276528 3.30927506,4.25360758 C3.36144377,3.84777873 3.45226284,3.41498289 3.58173227,2.95515037 C3.71310636,2.49332029 3.914,2.07984963 4.18836186,1.71276406 C4.43571027,1.37069438 4.70816748,1.09061858 5.0076846,0.8684022 C5.30717848,0.648113692 5.61431418,0.474163814 5.92734963,0.348596577 C6.23845721,0.221031785 6.55530196,0.134114914 6.87412103,0.0819462103 C7.19296333,0.0317750611 7.49436186,0.00664303178 7.78226528,0.00664303178 C8.15899022,0.00664303178 8.52235941,0.051007335 8.86624083,0.14001467 C9.21012225,0.228836186 9.52703667,0.342789731 9.82065403,0.47997066 C10.1143411,0.619172372 10.3772054,0.77758313 10.6129169,0.953321516 C10.8486284,1.13117359 11.0341919,1.30890954 11.1808961,1.48474083 C11.5055452,1.8905 11.7489682,2.33490954 11.9151137,2.82187164 C12.0775196,3.30874083 12.1895685,3.76664548 12.2551626,4.19553912 C12.3169474,4.70182641 12.344077,5.20602323 12.3325562,5.71240342 C12.4252103,5.77609291 12.4947995,5.85729584 12.5488729,5.95775428 C12.599044,6.0466687 12.6415966,6.16062225 12.6725355,6.29970782 C12.7071907,6.4387934 12.7111858,6.60884108 12.6841491,6.81170905 C12.6570196,7.08999633 12.6030391,7.3083802 12.517934,7.46488631 C12.4329218,7.62332029 12.3401748,7.74698289 12.2319352,7.8358044 C12.116077,7.93633252 11.9924144,8.00582885 11.8610171,8.04457213 C11.7991394,8.24546577 11.7334523,8.44252689 11.6676724,8.63187653 C11.6020782,8.79430562 11.5286797,8.95652567 11.4512861,9.11493643 C11.3741711,9.27337042 11.2814242,9.39703301 11.1808032,9.48204523 C11.064945,9.58647555 10.9722213,9.68310147 10.9065342,9.77582518 C10.8408472,9.87228851 10.7867506,9.96900733 10.7481002,10.0693496 C10.7094499,10.17378 10.6707995,10.2857592 10.6244377,10.4018032 C10.5780758,10.5253729 10.5084866,10.6529377 10.4157628,10.7921161 C10.1181504,11.2480465 9.88243888,11.6769401 9.71241443,12.07889 C9.54626895,12.4885281 9.42641565,12.875055 9.36463081,13.2459731 C9.29903667,13.6169841 9.27961858,13.9802604 9.30275306,14.328044 C9.32997555,14.6756418 9.3801467,15.0195929 9.46125672,15.359665 Z M18.6854315,17.7440024 C18.870879,17.960412 18.9715,18.138055 18.9869462,18.2926565 C19.0101736,18.4434487 18.9482726,18.5902689 18.8014756,18.7293545 C18.7241748,18.8182689 18.6236467,18.8647237 18.4999841,18.8723423 C18.3763912,18.8761516 18.2449242,18.8569193 18.1097408,18.8027531 C17.9743716,18.7525819 17.8430672,18.6907971 17.7194046,18.6173056 C17.5957421,18.539912 17.4875954,18.4627971 17.3947787,18.3853802 L16.0306112,17.1720281 C15.6635954,17.3884377 15.2770917,17.5429462 14.8676161,17.6356699 C14.4578619,17.7322958 14.0482005,17.767044 13.6386553,17.7439095 C13.2290868,17.7168729 12.8271369,17.6202469 12.4368936,17.4502225 C12.0464878,17.2801748 11.6948949,17.0329425 11.3818826,16.715912 C11.0185831,16.3643423 10.744198,15.9663875 10.5626528,15.5179829 C10.3772054,15.0697641 10.288291,14.6060526 10.288291,14.1423178 C10.288291,13.6708716 10.3771125,13.2149413 10.5626528,12.7667225 C10.744198,12.3184108 11.0185831,11.9164841 11.3818826,11.560989 C11.7334523,11.2093961 12.1393044,10.9426528 12.5952347,10.7649866 C13.0474487,10.5911528 13.5110905,10.5021455 13.9787042,10.5021455 C14.4501504,10.5021455 14.9100758,10.5911528 15.3660061,10.7649866 C15.8220293,10.9427457 16.2316675,11.2093961 16.5987763,11.560989 C16.9079095,11.8779963 17.1553276,12.2333985 17.3290685,12.6237347 C17.5030183,13.0140477 17.6112579,13.4159046 17.6421968,13.8177616 C17.6731357,14.2236137 17.6421968,14.62928 17.5415758,15.0312066 C17.448945,15.4369658 17.2866088,15.8117861 17.062511,16.1519279 L17.8082262,16.8706296 C18.0015012,17.0599792 18.1831394,17.2415244 18.3531638,17.411665 C18.5232115,17.5816895 18.6313582,17.6899291 18.6854315,17.7440024 Z M14.0173545,16.3218826 C14.3226785,16.3218826 14.6124633,16.2639768 14.8791369,16.151835 C15.1457873,16.0358839 15.3814291,15.8812824 15.5785831,15.6804817 C15.7794768,15.4833276 15.9379804,15.2515183 16.0539315,14.9847518 C16.1736919,14.7142922 16.2316675,14.4282934 16.2316675,14.1230856 C16.2316675,13.8177616 16.1736919,13.5316932 16.0539315,13.2691076 C15.9378875,13.0101687 15.7794768,12.7821455 15.5785831,12.5811822 C15.3814291,12.3802885 15.1458802,12.225687 14.8791369,12.1097359 C14.6124633,11.997687 14.3226785,11.9397812 14.0173545,11.9397812 C13.715956,11.9397812 13.4298643,11.99778 13.1594976,12.1097359 C12.8890147,12.225687 12.6571125,12.3802885 12.4562188,12.5811822 C12.2552555,12.7821455 12.100654,13.0101687 11.9847029,13.2691076 C11.8649193,13.5316932 11.8070367,13.8177616 11.8070367,14.1230856 C11.8070367,14.4282934 11.8649193,14.7143851 11.9847029,14.9847518 C12.100654,15.2514254 12.2552555,15.4833276 12.4562188,15.6804817 C12.6571125,15.8812824 12.8890147,16.0358839 13.1594976,16.1519279 C13.4299572,16.2639768 13.715956,16.3218826 14.0173545,16.3218826 Z" id="Fill-1" fill="#FFFFFF" mask="url(#mask-2)"></path>
                </g>
            </g>
        </g>
    </g>
</svg>