<?xml version="1.0" encoding="UTF-8"?>
<svg width="26px" height="26px" viewBox="0 0 26 26" version="1.1" xmlns="http://www.w3.org/2000/svg" xmlns:xlink="http://www.w3.org/1999/xlink">
    <!-- Generator: Sketch 53.2 (72643) - https://sketchapp.com -->
    <title>矩形</title>
    <desc>Created with Sketch.</desc>
    <defs>
        <polygon id="path-1" points="0.00146341463 0.0101146723 19.980561 0.0101146723 19.980561 12.9512053 0.00146341463 12.9512053"></polygon>
    </defs>
    <g id="Page-1" stroke="none" stroke-width="1" fill="none" fill-rule="evenodd">
        <g id="画板" transform="translate(-34.000000, -206.000000)">
            <g id="分组-2" transform="translate(34.000000, 206.000000)">
                <rect id="矩形" x="0" y="0" width="26" height="26"></rect>
                <g id="hetongshangchuan" transform="translate(3.000000, 6.000000)">
                    <mask id="mask-2" fill="white">
                        <use xlink:href="#path-1"></use>
                    </mask>
                    <g id="Clip-2"></g>
                    <path d="M8.8817842e-14,9.94388533 L8.8817842e-14,9.14464143 C0.0126829268,9.10137313 0.0315365854,9.05878777 0.0371463415,9.01459264 C0.157878049,8.07793411 0.566219512,7.29412923 1.27878049,6.67159264 C1.80402439,6.21266582 2.41092683,5.90388533 3.0785122,5.7157146 C3.21492683,5.67732435 3.254,5.6267146 3.24665854,5.48590972 C3.23695122,5.30137313 3.25285366,5.1132024 3.27819512,4.92932435 C3.53373171,3.06698289 5.69882927,2.10215362 7.19912195,3.23134874 C7.23321951,3.25705606 7.26904878,3.28049508 7.31382927,3.31203167 C7.34812195,3.23125118 7.37346341,3.17064143 7.39939024,3.11034874 C8.27314634,1.07756825 9.99865854,-0.0693585748 12.1594878,0.00325118131 C13.5635366,0.050421913 14.7849756,0.548495084 15.6848293,1.67712923 C16.3968293,2.57022679 16.7112195,3.61929996 16.8222195,4.73810484 C16.853561,5.05412923 16.8588049,5.3727146 16.8757561,5.68637313 C17.0287805,5.73581216 17.176439,5.77629996 17.3187805,5.83061703 C18.4579756,6.26573899 19.3422195,6.97505606 19.7622927,8.15929996 C19.8654634,8.45027557 19.9093902,8.76229996 19.980561,9.0647146 L19.980561,9.8639585 C19.9666585,9.90693411 19.9480732,9.94903167 19.9395854,9.99315362 C19.7412439,11.0205926 19.2262683,11.8332756 18.3107805,12.3645195 C17.6533902,12.7461048 16.9379756,12.9376902 16.177878,12.938178 C12.0312439,12.9408365 7.88443902,12.9457146 3.73780488,12.9305683 C3.28553659,12.9289341 2.81926829,12.8539585 2.38463415,12.7270561 C1.2772439,12.4038853 0.471804878,11.7308609 0.141097561,10.5819585 C0.0808780488,10.3730073 0.0463902439,10.156739 8.8817842e-14,9.94388533 Z M13.4890488,7.38329996 L10.5148537,4.47286094 L7.48829268,7.40539752 L9.32021951,7.40539752 L9.32021951,10.9447634 L11.6722439,10.9447634 L11.6722439,7.38329996 L13.4890488,7.38329996 Z" id="Fill-1" fill="#FFFFFF" mask="url(#mask-2)"></path>
                </g>
            </g>
        </g>
    </g>
</svg>