<?xml version="1.0" encoding="UTF-8"?>
<svg width="26px" height="26px" viewBox="0 0 26 26" version="1.1" xmlns="http://www.w3.org/2000/svg" xmlns:xlink="http://www.w3.org/1999/xlink">
    <!-- Generator: Sketch 53.2 (72643) - https://sketchapp.com -->
    <title>矩形</title>
    <desc>Created with Sketch.</desc>
    <g id="Page-1" stroke="none" stroke-width="1" fill="none" fill-rule="evenodd">
        <g id="首页-融资人-经办" transform="translate(-34.000000, -308.000000)">
            <g id="分组-39" transform="translate(34.000000, 308.000000)">
                <rect id="矩形" x="0" y="0" width="26" height="26"></rect>
                <path d="M5.69998008,4 L19.2999203,4 C19.7508013,4 20.1832794,4.17909731 20.5020537,4.49794629 C20.820828,4.81672057 21,5.24909912 21,5.69998008 L21,19.2999452 C21,19.7508013 20.820828,20.1832794 20.5020537,20.5020537 C20.1832794,20.820828 19.7508013,21 19.2999203,21 L5.69998008,21 C5.24909912,21 4.81672057,20.820828 4.49794629,20.5020537 C4.1790724,20.1832794 4,19.7508013 4,19.2999452 L4,5.69998008 C4,5.24909912 4.1790724,4.81672057 4.49794629,4.49794629 C4.81672057,4.17909731 5.24909912,4 5.69998008,4 Z M8.2500249,10.1624465 C7.94634141,10.1624465 7.66559294,10.324411 7.51376364,10.5874539 C7.36190945,10.850472 7.36190945,11.1745006 7.51376364,11.4375187 C7.66559294,11.7005616 7.94634141,11.8625261 8.2500249,11.8625261 L16.537434,11.8625261 C17.2948124,11.8625261 17.6739001,10.947068 17.1384011,10.411569 L15.2259795,8.49904785 C14.8924133,8.17688686 14.3622683,8.18154359 14.0343549,8.5093574 C13.7065411,8.83727083 13.7018844,9.36741579 14.0240454,9.70098203 L14.4856094,10.1624465 L8.2500249,10.1624465 Z M16.5391772,15.2624614 C17.0086352,15.2624614 17.3891672,14.8819294 17.3891672,14.4124714 C17.3891672,13.9430382 17.0086352,13.5624813 16.5391772,13.5624813 L8.25166845,13.5624813 C7.49429005,13.5624813 7.11522731,14.4779395 7.65072627,15.0134385 L9.56322253,16.9259596 C9.89678878,17.248021 10.4269337,17.2434639 10.7547475,16.9155505 C11.082661,16.5877366 11.087243,16.0575917 10.7651567,15.7240254 L10.3035927,15.2624614 L16.5391772,15.2624614 Z" id="jiaoyi" fill="#FFFFFF"></path>
            </g>
        </g>
    </g>
</svg>