<?xml version="1.0" encoding="UTF-8"?>
<svg width="26px" height="26px" viewBox="0 0 26 26" version="1.1" xmlns="http://www.w3.org/2000/svg" xmlns:xlink="http://www.w3.org/1999/xlink">
    <!-- Generator: Sketch 53.2 (72643) - https://sketchapp.com -->
    <title>矩形</title>
    <desc>Created with Sketch.</desc>
    <defs>
        <polygon id="path-1" points="0.00161392405 0 16.9956962 0 16.9956962 19.2594937 0.00161392405 19.2594937"></polygon>
    </defs>
    <g id="Page-1" stroke="none" stroke-width="1" fill="none" fill-rule="evenodd">
        <g id="首页-债务人-经办2" transform="translate(-33.000000, -207.000000)">
            <g id="分组-21" transform="translate(33.000000, 207.000000)">
                <rect id="矩形" x="0" y="0" width="26" height="26"></rect>
                <g id="yingshouzhangkuan" transform="translate(4.000000, 3.000000)">
                    <mask id="mask-2" fill="white">
                        <use xlink:href="#path-1"></use>
                    </mask>
                    <g id="Clip-2"></g>
                    <path d="M8.4979019,0 C8.1599731,0.337821203 0.821998418,2.84056013 0,2.84056013 L0,10.7853434 C0,13.9636978 1.30405063,15.3107326 2.84916772,16.4189335 C3.9121788,17.1893402 5.84237816,18.1038972 8.64205222,19.2594937 C8.97987342,19.2594937 13.4687073,16.9010127 14.8222516,15.9864557 C15.5474684,15.5043766 16.9956962,14.6393133 16.9956962,11.4609589 L16.9956962,2.84056013 L8.4979019,0 Z M12.5886076,4.65673576 L10.1268354,8.37306487 L12.1475222,8.37306487 C12.3368623,8.56240506 12.4637706,8.75174525 12.4637706,9.00351741 C12.4637706,9.25526266 12.3368623,9.50711551 12.1475222,9.63405063 L9.49420411,9.63405063 L9.49420411,10.7035981 L12.1453165,10.7035981 C12.3346566,10.8929383 12.4616725,11.0822785 12.4616725,11.3340237 C12.4616725,11.5857959 12.3346566,11.8375411 12.1453165,11.9645839 L9.49420411,11.9645839 L9.49420411,14.6716725 C9.55660918,15.426962 9.24245886,15.8681551 8.54739557,15.8681551 C7.85233228,15.8681551 7.4735443,15.4893671 7.53804747,14.6716725 L7.53804747,11.9623782 L4.88486392,11.9623782 C4.63298418,11.835443 4.50607595,11.5836978 4.50607595,11.3319256 C4.50607595,11.0177753 4.63298418,10.8283275 4.88486392,10.7013924 L7.53594937,10.7013924 L7.53594937,9.63184494 L4.94936709,9.63184494 C4.69762184,9.44250475 4.57068671,9.25316456 4.57068671,9.0014193 C4.57068671,8.74964715 4.69762184,8.4979019 4.94936709,8.37085918 L6.9700269,8.37085918 L4.50607595,4.65673576 C4.31670886,4.21554272 4.44364399,3.83896044 4.94726899,3.52268513 C5.45288449,3.27093987 5.83167247,3.33334494 6.14582278,3.83686234 L8.54518987,7.61559652 L11.0069351,3.83686234 C11.323318,3.39564241 11.7019984,3.27093987 12.1431915,3.45807437 C12.5886076,3.64962025 12.7779478,4.0907057 12.5886076,4.65673576 Z" id="Fill-1" fill="#FFFFFF" mask="url(#mask-2)"></path>
                </g>
            </g>
        </g>
    </g>
</svg>