<?xml version="1.0" encoding="UTF-8"?>
<svg width="26px" height="26px" viewBox="0 0 26 26" version="1.1" xmlns="http://www.w3.org/2000/svg" xmlns:xlink="http://www.w3.org/1999/xlink">
    <!-- Generator: Sketch 53.2 (72643) - https://sketchapp.com -->
    <title>矩形</title>
    <desc>Created with Sketch.</desc>
    <g id="Page-1" stroke="none" stroke-width="1" fill="none" fill-rule="evenodd">
        <g id="画板" transform="translate(-37.000000, -562.000000)">
            <g id="分组-18" transform="translate(37.000000, 562.000000)">
                <rect id="矩形" x="0" y="0" width="26" height="26"></rect>
                <g id="分组-17" transform="translate(3.000000, 4.000000)" fill="#FFFFFF">
                    <g id="分组-12">
                        <path d="M11.3767482,17.3052751 C11.0697317,17.4960678 10.7407634,17.699349 10.4209102,17.8932218 C10.2073419,18.0243957 9.94292391,18.0243957 9.72921749,17.8932218 C8.97586096,17.4361431 8.09862465,16.8583785 7.71414637,16.6520478 C7.26584148,16.9267687 6.33467237,17.4474528 5.47740777,17.9364309 C5.35104303,17.9859232 5.21607298,18.0064644 5.08160913,17.9964597 C4.96205502,17.9961213 4.84613631,17.9538306 4.75212206,17.8764022 C3.96098495,17.3876174 2.95742993,16.9286537 2.57364192,16.6531595 C2.2525761,16.8597318 1.5711453,17.4787722 0.94396943,17.8956384 C0.755572774,18.0347872 0.504085787,18.0347872 0.315689131,17.8956384 C0.116892465,17.756683 -0.00137314473,17.5214496 0.00147995558,17.2705565 L0.00147995558,0.688027331 C-0.0107147474,0.503784525 0.0528817789,0.323069978 0.176393412,0.191702731 C0.299720973,0.0602871513 0.470999027,-0.00921472572 0.646464696,0.000983393929 L14.3547373,0.000983393929 C14.5299729,-0.00921472572 14.7011129,0.0602871513 14.8244405,0.191702731 C14.947538,0.323069978 15.0109964,0.503929522 14.9984336,0.688027331 L14.9984336,11.0276378 C12.7492126,11.2770719 11,13.1842607 11,15.5 C11,16.1420365 11.1344568,16.7526689 11.3767482,17.3052751 Z M7.32716046,4.00100036 L2.67461816,4.00100036 C2.49086549,3.99439839 2.31196536,4.04513307 2.18332364,4.14057456 C2.05448385,4.23590841 1.98852897,4.36665608 2.00170014,4.49980772 C1.98833091,4.63281584 2.05428579,4.76374291 2.18272945,4.8591844 C2.31137117,4.95476941 2.49007324,5.00579114 2.67402397,4.99947621 L7.32597209,4.99947621 C7.50992282,5.00579114 7.68862489,4.95476941 7.81726661,4.8591844 C7.94590833,4.76374291 8.01166515,4.63281584 7.99829592,4.49980772 C8.01166515,4.36665608 7.94590833,4.23590841 7.81726661,4.14046692 C7.68862489,4.04498955 7.50972476,3.99396782 7.32597209,4.00056979 L7.32716046,4.00100036 Z M10.3698536,7 L3.63010119,7 C3.28208623,7 3,7.22386184 3,7.5 C3,7.77617406 3.28208623,8 3.63010119,8 L10.3698536,8 C10.7178685,8 11,7.77617406 11,7.5 C11,7.22386184 10.7178685,7 10.3698536,7 Z M10.3698536,11 L3.63010119,11 C3.28208623,11 3,11.2238259 3,11.5 C3,11.7761382 3.28208623,12 3.63010119,12 L10.3698536,12 C10.7178685,12 11,11.7761382 11,11.5 C11,11.2238259 10.7178685,11 10.3698536,11 Z" id="合并形状"></path>
                    </g>
                    <path d="M20.8369708,13.4341866 L16.5728042,17.7658088 C16.4575321,17.8829044 16.226988,18 15.9965113,18 C15.7659672,18 15.5355131,17.8829044 15.420241,17.7658088 L13.2305442,15.6584998 C13.1152721,15.4244001 13,15.3073045 13,15.0731819 C13,14.8389907 13.1152721,14.604891 13.2305442,14.4877954 C13.5762929,14.1366001 14.0372912,14.1366001 14.3830399,14.4877954 L15.8812393,16.0097865 L19.5692255,12.2634822 C19.9149517,11.9121726 20.3759725,11.9121726 20.7216987,12.2634822 C20.8369708,12.3804864 20.9522429,12.6146775 20.9522429,12.8487773 C21.0675374,13.0829684 20.9522429,13.317091 20.8369708,13.4341866 Z" id="yanzheng"></path>
                </g>
            </g>
        </g>
    </g>
</svg>