<?xml version="1.0" encoding="UTF-8"?>
<svg width="94px" height="64px" viewBox="0 0 94 64" version="1.1" xmlns="http://www.w3.org/2000/svg" xmlns:xlink="http://www.w3.org/1999/xlink">
    <!-- Generator: Sketch 53.2 (72643) - https://sketchapp.com -->
    <title>分组 13</title>
    <desc>Created with Sketch.</desc>
    <g id="Page-1" stroke="none" stroke-width="1" fill="none" fill-rule="evenodd">
        <g id="1-3文件上传" transform="translate(-772.000000, -232.000000)">
            <g id="分组-14" transform="translate(527.000000, 221.000000)">
                <g id="分组-5" transform="translate(208.000000, 11.000000)">
                    <g id="分组-13" transform="translate(37.000000, 0.000000)">
                        <g id="分组-9" transform="translate(0.000000, -0.000000)">
                            <g id="分组-12" transform="translate(19.352100, 2.935780)" fill="#479FFA">
                                <rect id="矩形" x="2.05249544" y="0" width="1.17285453" height="4.69724771" rx="0.586427267"></rect>
                                <path d="M2.7802924,-0.0780880145 L2.7802924,-0.0780880145 C2.97470577,-0.0913791526 3.14308355,0.0554494306 3.15637469,0.249862805 C3.15738939,0.264705133 3.15746436,0.279596779 3.15659916,0.294448572 L2.92044745,4.34816146 C2.90713293,4.57671479 2.72596069,4.75972055 2.49755301,4.77533572 L2.49755301,4.77533572 C2.30313963,4.78862686 2.13476186,4.64179828 2.12147072,4.4473849 C2.12045602,4.43254257 2.12038104,4.41765093 2.12124624,4.40279913 L2.35739795,0.349086241 C2.37071248,0.120532912 2.55188472,-0.0624728439 2.7802924,-0.0780880145 Z" id="矩形" transform="translate(2.638923, 2.348624) rotate(40.000000) translate(-2.638923, -2.348624) "></path>
                                <path d="M2.7094578,-0.18677716 L2.7094578,-0.18677716 C2.93373343,-0.188538302 3.11697244,-0.00815467126 3.11873358,0.216120955 C3.11877149,0.220948826 3.1187233,0.225776989 3.11858904,0.230603141 L3.00092583,4.46003529 C2.99439573,4.69476095 2.80319684,4.88218101 2.5683876,4.88402487 L2.5683876,4.88402487 C2.34411197,4.88578601 2.16087297,4.70540238 2.15911183,4.48112675 C2.15907392,4.47629888 2.1591221,4.47147072 2.15925637,4.46664457 L2.27691958,0.237212416 C2.28344967,0.00248675426 2.47464857,-0.184933302 2.7094578,-0.18677716 Z" id="矩形" transform="translate(2.638923, 2.348624) rotate(80.000000) translate(-2.638923, -2.348624) "></path>
                                <path d="M2.48241604,-0.144283643 L2.48241604,-0.144283643 C2.70843313,-0.133650028 2.89025181,0.0453388987 2.90442912,0.2711614 L3.16762437,4.46345208 C3.17994908,4.65976562 3.03079667,4.82890034 2.83448313,4.84122506 C2.82148061,4.84204137 2.80844309,4.84214362 2.79542936,4.84153135 L2.79542936,4.84153135 C2.56941227,4.83089773 2.3875936,4.65190881 2.37341628,4.42608631 L2.11022104,0.23379563 C2.09789632,0.0374820893 2.24704873,-0.131652635 2.44336228,-0.143977351 C2.4563648,-0.144793659 2.46940232,-0.14489591 2.48241604,-0.144283643 Z" id="矩形" transform="translate(2.638923, 2.348624) rotate(1200.000000) translate(-2.638923, -2.348624) "></path>
                            </g>
                            <g id="分组-12" opacity="0.435500372" transform="translate(8.796409, 0.000000)" fill="#479FFA">
                                <rect id="矩形" x="2.68779164" y="0" width="1.34389582" height="5.87155963" rx="0.67194791"></rect>
                                <path d="M3.39683075,-0.0687914692 L3.39683075,-0.0687914692 C3.6377383,-0.0922092994 3.85201636,0.0841009522 3.87543419,0.3250085 C3.87761066,0.347398692 3.87805999,0.369923228 3.87677817,0.392382406 L3.59210682,5.38020281 C3.57533412,5.6740828 3.34684649,5.91187174 3.05386919,5.9403511 L3.05386919,5.9403511 C2.81296164,5.96376893 2.59868358,5.78745868 2.57526575,5.54655113 C2.57308927,5.52416094 2.57263995,5.5016364 2.57392177,5.47917723 L2.85859312,0.491356826 C2.87536582,0.197476835 3.10385345,-0.0403121095 3.39683075,-0.0687914692 Z" id="矩形" transform="translate(3.225350, 2.935780) rotate(40.000000) translate(-3.225350, -2.935780) "></path>
                                <path d="M3.3040155,-0.164888448 L3.3040155,-0.164888448 C3.57836609,-0.172546617 3.80697936,0.0436503068 3.81463753,0.318000896 C3.81488377,0.326822412 3.81489499,0.335648923 3.81467117,0.344471036 L3.68392763,5.49783775 C3.67647388,5.7916333 3.44046009,6.02824768 3.14668443,6.03644808 L3.14668443,6.03644808 C2.87233385,6.04410625 2.64372058,5.82790933 2.63606241,5.55355874 C2.63581617,5.54473722 2.63580495,5.53591071 2.63602877,5.5270886 L2.76677231,0.37372188 C2.77422606,0.0799263323 3.01023985,-0.156688052 3.3040155,-0.164888448 Z" id="矩形" transform="translate(3.225350, 2.935780) rotate(80.000000) translate(-3.225350, -2.935780) "></path>
                                <path d="M3.06019663,-0.126643688 L3.06019663,-0.126643688 C3.34338988,-0.103365277 3.56588108,0.125476269 3.58118267,0.409212345 L3.85807524,5.5436065 C3.87094556,5.78225965 3.68791241,5.98615971 3.44925926,5.99903003 C3.42967783,6.00008604 3.41004727,5.99980983 3.39050331,5.99820332 L3.39050331,5.99820332 C3.10731006,5.97492491 2.88481886,5.74608336 2.86951727,5.46234729 L2.59262469,0.327953135 C2.57975438,0.0892999816 2.76278753,-0.114600079 3.00144068,-0.127470397 C3.02102211,-0.128526403 3.04065267,-0.128250197 3.06019663,-0.126643688 Z" id="矩形" transform="translate(3.225350, 2.935780) rotate(1200.000000) translate(-3.225350, -2.935780) "></path>
                            </g>
                            <g id="分组-12" opacity="0.227864583" transform="translate(86.791236, 18.201835)" fill="#479FFA">
                                <rect id="矩形" x="2.68779164" y="0" width="1.34389582" height="5.87155963" rx="0.67194791"></rect>
                                <path d="M3.39683075,-0.0687914692 L3.39683075,-0.0687914692 C3.6377383,-0.0922092994 3.85201636,0.0841009522 3.87543419,0.3250085 C3.87761066,0.347398692 3.87805999,0.369923228 3.87677817,0.392382406 L3.59210682,5.38020281 C3.57533412,5.6740828 3.34684649,5.91187174 3.05386919,5.9403511 L3.05386919,5.9403511 C2.81296164,5.96376893 2.59868358,5.78745868 2.57526575,5.54655113 C2.57308927,5.52416094 2.57263995,5.5016364 2.57392177,5.47917723 L2.85859312,0.491356826 C2.87536582,0.197476835 3.10385345,-0.0403121095 3.39683075,-0.0687914692 Z" id="矩形" transform="translate(3.225350, 2.935780) rotate(40.000000) translate(-3.225350, -2.935780) "></path>
                                <path d="M3.3040155,-0.164888448 L3.3040155,-0.164888448 C3.57836609,-0.172546617 3.80697936,0.0436503068 3.81463753,0.318000896 C3.81488377,0.326822412 3.81489499,0.335648923 3.81467117,0.344471036 L3.68392763,5.49783775 C3.67647388,5.7916333 3.44046009,6.02824768 3.14668443,6.03644808 L3.14668443,6.03644808 C2.87233385,6.04410625 2.64372058,5.82790933 2.63606241,5.55355874 C2.63581617,5.54473722 2.63580495,5.53591071 2.63602877,5.5270886 L2.76677231,0.37372188 C2.77422606,0.0799263323 3.01023985,-0.156688052 3.3040155,-0.164888448 Z" id="矩形" transform="translate(3.225350, 2.935780) rotate(80.000000) translate(-3.225350, -2.935780) "></path>
                                <path d="M3.06019663,-0.126643688 L3.06019663,-0.126643688 C3.34338988,-0.103365276 3.56588108,0.125476269 3.58118267,0.409212345 L3.85807524,5.5436065 C3.87094556,5.78225965 3.68791241,5.98615971 3.44925926,5.99903003 C3.42967783,6.00008604 3.41004727,5.99980983 3.39050331,5.99820332 L3.39050331,5.99820332 C3.10731006,5.97492491 2.88481886,5.74608336 2.86951727,5.46234729 L2.59262469,0.327953135 C2.57975438,0.0892999816 2.76278753,-0.114600079 3.00144068,-0.127470397 C3.02102211,-0.128526403 3.04065267,-0.128250197 3.06019663,-0.126643688 Z" id="矩形" transform="translate(3.225350, 2.935780) rotate(1200.000000) translate(-3.225350, -2.935780) "></path>
                            </g>
                            <path d="M17.4128246,52.3490843 L69.7212338,52.3490843 L70.0678311,52.4326456 C71.0211032,52.6624703 72.0046989,52.7798165 73.005935,52.7798165 C79.931115,52.7798165 85.5505173,47.1353046 85.5505173,40.1657752 C85.5505173,34.5338115 81.847201,29.6318445 76.5611088,28.0646421 L73.9308301,27.2848262 L74.4730214,24.595494 C74.7097395,23.4213442 74.8301157,22.2184469 74.8301157,20.9981935 C74.8301157,11.0550789 66.8108698,3 56.9253326,3 C49.2154359,3 42.4418724,7.94448053 39.9821498,15.1615714 L38.8414142,18.5086126 L35.7249829,16.8377392 C33.5584762,15.6761676 31.1384166,15.0605009 28.6234723,15.0605009 C21.6766377,15.0605009 15.66861,19.8131996 13.974505,26.4868417 L13.5467159,28.172045 L11.8718446,28.6386494 C6.67229046,30.0871997 3,34.8689416 3,40.3811413 C3,47.1127839 8.42741484,52.5644504 15.1157663,52.5644504 C15.8079859,52.5644504 16.4915562,52.5063872 17.1621732,52.391882 L17.4128246,52.3490843 Z" id="合并形状" stroke="#BEDDFC" stroke-width="6"></path>
                            <path d="M17.6671035,54.3490843 L69.4835485,54.3490843 L69.5990809,54.3769381 C70.7055609,54.6436998 71.8464916,54.7798165 73.005935,54.7798165 C81.0376855,54.7798165 87.5505173,48.2378829 87.5505173,40.1657752 C87.5505173,33.6435185 83.2603578,27.9647651 77.1296032,26.1471401 L76.2528436,25.8872014 L76.4335741,24.9907573 C76.6964897,23.6866649 76.8301157,22.3513648 76.8301157,20.9981935 C76.8301157,9.95250061 67.9174403,1 56.9253326,1 C48.3518653,1 40.8225131,6.49618167 38.0890775,14.5163761 L37.7088323,15.6320565 L36.6700218,15.0750987 C34.2147077,13.7586831 31.4702964,13.0605009 28.6234723,13.0605009 C20.7548013,13.0605009 13.9535987,18.440647 12.0359888,25.9947491 L11.8933924,26.5564835 L11.335102,26.7120183 C5.27482388,28.4003588 1,33.966668 1,40.3811413 C1,48.2153622 7.32084433,54.5644504 15.1157663,54.5644504 C15.9209173,54.5644504 16.7170937,54.4968223 17.4987934,54.3633502 L17.6671035,54.3490843 Z" id="合并形状" stroke="#479FFA" stroke-width="2"></path>
                            <rect id="矩形" fill="#F3F8FE" x="57.4698722" y="39.9266055" width="12.3149726" height="24.0733945"></rect>
                            <rect id="矩形" fill="#F3F8FE" x="9.38283628" y="33.4678899" width="12.3149726" height="24.0733945"></rect>
                            <g id="分组-10" transform="translate(56.883445, 39.926606)" fill="#479FFA">
                                <path d="M4.73167747,-0.26534535 L4.73167747,-0.26534535 C5.19517192,-0.29404989 5.59417803,0.0584169713 5.62288257,0.521911418 C5.62469038,0.551102248 5.62497395,0.580367519 5.62373212,0.609587899 L5.25676439,9.24439078 C5.23423648,9.77447567 4.81498718,10.2019292 4.28543835,10.2347245 L4.28543835,10.2347245 C3.8219439,10.2634291 3.42293778,9.9109622 3.39423324,9.44746775 C3.39242544,9.41827692 3.39214187,9.38901165 3.39338369,9.35979127 L3.76035143,0.724988387 C3.78287934,0.194903497 4.20212864,-0.232550015 4.73167747,-0.26534535 Z" id="矩形" transform="translate(4.508558, 4.984690) rotate(45.000000) translate(-4.508558, -4.984690) "></path>
                                <path d="M11.1756548,-0.15544969 L11.1756548,-0.15544969 C11.6391492,-0.18415423 12.0381554,0.168312631 12.0668599,0.631807078 C12.0686677,0.660997907 12.0689513,0.690263179 12.0677094,0.719483558 L11.7007417,9.35428644 C11.6782138,9.88437133 11.2589645,10.3118248 10.7294157,10.3446202 L10.7294157,10.3446202 C10.2659212,10.3733247 9.8669151,10.0208579 9.83821056,9.55736341 C9.83640275,9.52817258 9.83611918,9.49890731 9.83736101,9.46968693 L10.2043287,0.834884046 C10.2268567,0.304799156 10.646106,-0.122654355 11.1756548,-0.15544969 Z" id="矩形" transform="translate(10.952535, 5.094585) scale(-1, 1) rotate(45.000000) translate(-10.952535, -5.094585) "></path>
                                <rect id="矩形" transform="translate(7.559581, 12.133363) scale(-1, 1) translate(-7.559581, -12.133363) " x="6.45069994" y="2.93577982" width="2.2177613" height="18.3951667" rx="1.10888065"></rect>
                            </g>
                            <g id="分组-11" transform="translate(12.413138, 54.726780) rotate(17.000000) translate(-12.413138, -54.726780) translate(7.413138, 48.226780)">
                                <rect id="矩形" stroke="#DCEBFD" stroke-width="4" fill="#F3F8FE" x="2.23019041" y="2.24234182" width="5.13051594" height="8.45387454" rx="2.56525797"></rect>
                                <rect id="矩形" stroke="#5E9EF3" x="0.730190413" y="0.742341818" width="8.13051594" height="11.4538745" rx="4"></rect>
                                <rect id="矩形" fill="#4A9FF9" x="2.13135799" y="3.30471943" width="2.49014071" height="1"></rect>
                                <rect id="矩形" fill="#4A9FF9" x="1.84339022" y="4.99550999" width="5.25696372" height="1"></rect>
                                <rect id="矩形" fill="#4A9FF9" x="1.88046355" y="7.00995926" width="5.25696372" height="1"></rect>
                                <rect id="矩形" fill="#4A9FF9" x="1.8366428" y="8.75974854" width="5.25696372" height="1"></rect>
                            </g>
                            <g id="分组-11" transform="translate(14.163784, 38.540791) rotate(-29.000000) translate(-14.163784, -38.540791) translate(9.163784, 32.040791)">
                                <rect id="矩形" stroke="#DCEBFD" stroke-width="3" fill="#F3F8FE" x="1.73019041" y="1.74234182" width="6.13051594" height="9.45387454" rx="3.06525797"></rect>
                                <rect id="矩形" stroke="#5E9EF3" x="0.730190413" y="0.742341818" width="8.13051594" height="11.4538745" rx="4"></rect>
                                <rect id="矩形" fill="#4A9FF9" x="2.13135799" y="3.30471943" width="2.49014071" height="1"></rect>
                                <rect id="矩形" fill="#4A9FF9" x="1.84339022" y="4.99550999" width="5.25696372" height="1"></rect>
                                <rect id="矩形" fill="#4A9FF9" x="1.88046355" y="7.00995926" width="5.25696372" height="1"></rect>
                                <rect id="矩形" fill="#4A9FF9" x="1.8366428" y="8.75974854" width="5.25696372" height="1"></rect>
                            </g>
                            <g id="分组-11" transform="translate(26.973466, 42.201396) rotate(-17.000000) translate(-26.973466, -42.201396) translate(20.973466, 37.701396)">
                                <rect id="矩形" stroke="#DCEBFD" stroke-width="3" x="1.5" y="1.5" width="8.62065665" height="5.57933579" rx="2.7896679"></rect>
                                <rect id="矩形" stroke="#5E9EF3" x="0.5" y="0.5" width="10.6206566" height="7.57933579" rx="3.7896679"></rect>
                                <path d="M1.38341151,5.24966752 C3.197395,3.76558443 4.75001203,3.4827539 6.0412626,4.40117595 C7.97813845,5.77880902 9.44086866,5.25347989 10.2372451,4.50804064" id="路径-2" stroke="#5E9EF3" stroke-linecap="round" stroke-linejoin="round"></path>
                                <ellipse id="椭圆形" stroke="#5E9EF3" cx="8.71549249" cy="3.18265683" rx="1" ry="1"></ellipse>
                            </g>
                        </g>
                    </g>
                </g>
            </g>
        </g>
    </g>
</svg>