<?xml version="1.0" encoding="UTF-8"?>
<svg width="24px" height="24px" viewBox="0 0 24 24" version="1.1" xmlns="http://www.w3.org/2000/svg" xmlns:xlink="http://www.w3.org/1999/xlink">
    <!-- Generator: Sketch 53.2 (72643) - https://sketchapp.com -->
    <title>矩形</title>
    <desc>Created with Sketch.</desc>
    <g id="Page-1" stroke="none" stroke-width="1" fill="none" fill-rule="evenodd">
        <g id="画板" transform="translate(-367.000000, -149.000000)">
            <g id="jine" transform="translate(367.000000, 149.000000)">
                <g id="分组-29">
                    <rect id="矩形" x="0" y="0" width="24" height="24"></rect>
                    <g id="分组-28" transform="translate(3.000000, 3.000000)" fill-rule="nonzero">
                        <path d="M9.00022857,-1.42108547e-14 C4.02834286,-1.42108547e-14 -3.55271368e-15,4.02895238 -3.55271368e-15,9.00022857 C-3.55271368e-15,13.9715048 4.02895238,17.9992381 9.00022857,17.9992381 C13.9715048,17.9992381 17.9998476,13.9708952 17.9998476,8.99961905 C17.9998476,4.02834286 13.9715048,-1.42108547e-14 9.00022857,-1.42108547e-14 Z" id="形状" fill="#0263FF"></path>
                        <rect id="矩形" fill="#FFFFFF" x="8" y="9" width="7" height="2" rx="1"></rect>
                        <rect id="矩形" fill="#FFFFFF" transform="translate(8.413887, 6.990799) rotate(-90.000000) translate(-8.413887, -6.990799) " x="4.41388712" y="5.99079915" width="8" height="2" rx="1"></rect>
                    </g>
                </g>
            </g>
        </g>
    </g>
</svg>