<?xml version="1.0" encoding="UTF-8"?>
<svg width="28px" height="27px" viewBox="0 0 28 27" version="1.1" xmlns="http://www.w3.org/2000/svg" xmlns:xlink="http://www.w3.org/1999/xlink">
    <!-- Generator: Sketch 52.5 (67469) - http://www.bohemiancoding.com/sketch -->
    <title></title>
    <desc>手机装饰图标</desc>
    <g id="Page-1" stroke="none" stroke-width="1"  fill-rule="evenodd">
        <g id="切图" transform="translate(-263.000000, -1424.000000)" >
            <path d="M268.253677,1425.62076 C268.394112,1425.72383 268.652171,1425.94175 269.038456,1426.37508 C269.478236,1426.86846 269.972249,1427.51483 270.467194,1428.24429 C271.469967,1429.7223 272.066375,1430.92121 272.204272,1431.32179 C272.172271,1431.54212 272.036077,1431.77152 271.803304,1432.14829 C271.438513,1432.73874 270.938941,1433.54743 270.938941,1434.67434 C270.938941,1435.08862 270.938941,1436.34931 274.43758,1439.76901 C275.299565,1440.61155 276.187895,1441.38768 276.938907,1441.95438 C278.079802,1442.81525 278.834991,1443.16638 279.54552,1443.16638 C280.552117,1443.16638 281.385828,1442.73774 282.055747,1442.39336 C282.53029,1442.14938 282.943885,1441.93679 283.298716,1441.91295 C283.635522,1442.00355 284.787823,1442.53995 286.58299,1443.77591 C287.312155,1444.27795 288.014716,1444.80803 288.561131,1445.26851 C288.985136,1445.62579 289.231628,1445.86999 289.368337,1446.01851 C289.259998,1446.78979 288.807849,1447.58595 288.090894,1448.24998 C287.326805,1448.95763 286.345462,1449.4149 285.59082,1449.4149 C283.835781,1449.4149 281.629558,1448.68132 279.210738,1447.2935 C276.877316,1445.95469 274.445259,1444.06941 272.177476,1441.84149 C269.949726,1439.65291 268.052132,1437.30621 266.689869,1435.05511 C266.00816,1433.92861 265.482885,1432.85947 265.128568,1431.87734 C264.782155,1430.91709 264.606507,1430.0625 264.606507,1429.33725 C264.606507,1429.04375 264.734893,1428.67725 264.977723,1428.27742 C265.24571,1427.83622 265.641698,1427.3749 266.12286,1426.94331 C266.571378,1426.54104 267.082323,1426.17755 267.561525,1425.91981 C267.872693,1425.75249 268.106495,1425.66397 268.253677,1425.62076 Z M268.409116,1424 C266.818128,1424 263,1426.78635 263,1429.33725 C263,1436.79371 276.920369,1451 285.590755,1451 C287.977061,1451 291,1448.52759 291,1445.66278 C291,1444.68177 284.795342,1440.32566 283.363391,1440.32566 C281.891986,1440.32566 280.817983,1441.58128 279.545456,1441.58128 C278.272608,1441.58128 272.545352,1436.04792 272.545352,1434.67434 C272.545352,1433.30092 273.818039,1432.63378 273.818039,1431.22104 C273.818072,1430.20068 269.999976,1424 268.409116,1424 Z" id="icon21"></path>
        </g>
    </g>
</svg>
