<?xml version="1.0" encoding="UTF-8"?>
<svg width="82px" height="82px" viewBox="0 0 82 82" version="1.1" xmlns="http://www.w3.org/2000/svg" xmlns:xlink="http://www.w3.org/1999/xlink">
    <!-- Generator: Sketch 63 (92445) - https://sketch.com -->
    <title>矩形</title>
    <desc>Created with Sketch.</desc>
    <g id="页面-1" stroke="none" stroke-width="1" fill="none" fill-rule="evenodd">
        <g id="6" transform="translate(-935.000000, -634.000000)">
            <g id="编组-13" transform="translate(854.000000, 568.000000)">
                <g id="编组-11">
                    <g id="编组-14" transform="translate(47.000000, 66.000000)">
                        <rect id="矩形" x="35" y="1" width="80" height="80"></rect>
                        <g id="暂无相关数据" transform="translate(37.000000, 16.000000)" fill="#8A96A3" fill-rule="nonzero">
                            <path d="M7.60050275,34.1716699 L8.62519493,34.1716699 C8.90410485,34.1777742 9.12238471,34.4036317 9.12238471,34.6844285 C9.12238471,34.9652242 8.90410728,35.197187 8.62519493,35.197187 L7.60050275,35.197187 L7.60050275,36.2288076 C7.5944395,36.5034994 7.37009882,36.7293592 7.09118793,36.7293592 C6.95779597,36.7293592 6.83046751,36.6805252 6.73345553,36.5889613 C6.63644355,36.4973973 6.58187407,36.369208 6.58187407,36.2349141 L6.58187407,35.2032935 L5.55718189,35.2032935 C5.27827197,35.1971892 5.05999211,34.9713317 5.05999211,34.6905349 C5.05999211,34.4097392 5.27826954,34.1777764 5.55718189,34.1777764 L6.58187407,34.1777764 L6.58187407,33.1461558 C6.58793732,32.86536 6.812278,32.6456042 7.0911889,32.6456042 C7.37009882,32.6456042 7.60050372,32.8653576 7.60050372,33.1461558 L7.60050372,34.1716729 L7.60050275,34.1716699 Z M74.4720512,30.0940254 L74.4720512,29.0624048 C74.4720512,28.9281109 74.4174817,28.7999215 74.3204697,28.7083576 C74.2234577,28.6167936 74.0961288,28.5618552 73.9627373,28.5679597 C73.6898904,28.5679597 73.459485,28.787713 73.4534225,29.0685112 L73.4534225,30.0940283 L72.4287303,30.0940283 C72.2953383,30.0940283 72.1680099,30.1489667 72.0770614,30.2466347 C71.9861124,30.3443026 71.9315429,30.4724925 71.9376064,30.6067859 C71.9376064,30.8814776 72.1619473,31.1195444 72.4347962,31.1195444 L73.4594884,31.1195444 L73.4594884,32.151165 C73.4594884,32.4319608 73.6838293,32.6517165 73.9688032,32.6517165 C74.2477131,32.6517165 74.4720555,32.4319632 74.478118,32.151165 L74.478118,31.1195444 L75.5028102,31.1195444 C75.7817201,31.1195444 76,30.8936866 76,30.6067859 C76,30.3320941 75.7817226,30.1001308 75.5028102,30.0940273 L74.4720555,30.0940273 L74.4720512,30.0940254 Z M37.6680372,46.9234608 L12.1599067,46.9234608 C11.8931232,46.9234608 11.6324043,46.8135839 11.4444419,46.624352 C11.2564809,46.4351202 11.147342,46.1726369 11.147342,45.9040497 C11.147342,45.3424581 11.6081498,44.884641 12.1599042,44.884641 L16.7558579,44.884641 C16.3981255,44.2681129 16.2162256,43.5661211 16.2162256,42.8519222 L16.2162256,13.2584791 C16.2162256,12.1780255 16.646717,11.1403014 17.4046252,10.371166 C18.1625325,9.60813414 19.1993498,9.18083454 20.272547,9.18083454 L23.3102387,9.18083454 L23.3102387,8.15531745 C23.3102387,7.07486385 23.74073,6.03713973 24.4986383,5.26800435 L24.4986382,5.26800448 C25.2611724,4.50582222 26.2920338,4.07767301 27.3665599,4.07767301 L51.6741657,4.07767301 C52.7473629,4.07767301 53.7841801,4.50497115 54.5420874,5.26800448 C55.3060573,6.03103635 55.7304871,7.06876047 55.7304871,8.15531757 L55.7304871,37.7487607 C55.7304871,38.4873736 55.5364626,39.1832619 55.1908548,39.7814794 L60.7933034,39.7814794 C61.3511232,39.7814794 61.8058656,40.2331945 61.8058656,40.8008881 C61.8058656,41.3624797 61.3571843,41.8202968 60.7933034,41.8202968 L48.6364449,41.8202968 L48.6364449,42.8458139 C48.6364449,43.5844269 48.4424205,44.2803152 48.0968126,44.8785327 L48.6425074,44.8785327 C49.2003273,44.8785327 49.6550697,45.3302478 49.6550697,45.8979414 C49.6550697,46.4595329 49.1942619,46.9173501 48.6425074,46.9173501 L43.3129208,46.9173501 C43.7737287,47.6986974 43.6767167,48.7242096 43.0036944,49.4017825 C42.621709,49.7863507 42.1063298,50 41.5727648,50 C41.0331326,50 40.5177552,49.7863512 40.1418352,49.4017825 L37.6680259,46.9234536 L37.6680372,46.9234608 Z M41.3726887,44.8846434 L44.5922803,44.8846434 C45.70792,44.8846434 46.6113472,43.9751028 46.6113472,42.8397127 L46.6113472,13.2096486 C46.6113472,12.104776 45.7382374,11.2196593 44.6529152,11.2196593 L20.1936978,11.2196593 C19.1144381,11.2196593 18.2352658,12.1108795 18.2352658,13.2096486 L18.2352658,42.8397127 C18.2352658,43.9689993 19.1447555,44.8846434 20.2543327,44.8846434 L35.6368404,44.8846434 L35.1154005,44.3596729 C34.6000232,43.8469144 34.3999357,43.089986 34.5878981,42.3879991 L33.6299034,41.4235269 C30.6528418,43.657686 26.4631304,43.1998639 24.0317684,40.3674922 C21.6004016,37.5412191 21.751984,33.304849 24.3713108,30.6556315 C27.0027651,28.0002812 31.2227842,27.8415704 34.0361335,30.2954803 C36.8494877,32.7493903 37.3042302,36.9796569 35.0668882,39.9768234 L36.024883,40.9412956 C36.7221602,40.7520638 37.4740001,40.9535042 37.983315,41.4723647 L41.3726766,44.8846434 L41.3726887,44.8846434 Z M48.636462,39.7814671 L51.6862836,39.7814671 C52.8019233,39.7753628 53.7053505,38.8658279 53.7053505,37.7426448 L53.7053505,8.16140875 C53.7053505,7.03212217 52.8019233,6.12258647 51.6862836,6.12258647 L27.3483652,6.12258647 C26.2327255,6.12869071 25.3353608,7.03822569 25.3292983,8.16140875 L25.3292983,9.18081745 L44.5740685,9.18081745 C45.6472656,9.18081745 46.6840829,9.60811559 47.4419902,10.3711489 C48.20596,11.1341808 48.6303898,12.1719049 48.6303898,13.258462 L48.6303898,39.7814671 L48.636462,39.7814671 Z M12.9238474,2.29520546 L14.4335995,2.29520546 C14.8580278,2.29520546 15.2036318,2.63704417 15.2036318,3.05823733 C15.2036318,3.47943098 14.8580259,3.82126919 14.4335995,3.82126919 L12.9238474,3.82126919 L12.9238474,5.34122942 C12.9238474,5.76852755 12.5843045,6.11646831 12.1659401,6.11646831 C11.9658526,6.11646831 11.7718282,6.03100888 11.6263078,5.8845065 C11.4807894,5.73800413 11.4019674,5.5426678 11.4080304,5.34122551 L11.4080304,3.8273688 L9.8982783,3.8273688 C9.69212736,3.8273688 9.49810292,3.74801337 9.35258349,3.60761549 C9.20706504,3.46111311 9.12824305,3.26577678 9.12824305,3.06433449 C9.12824305,2.64314084 9.47384895,2.30130263 9.89827539,2.30130263 L11.4080275,2.30130263 L11.4080275,0.775238892 C11.4080275,0.347940754 11.7475704,0 12.1659348,0 C12.5842996,0 12.923842,0.347942707 12.923842,0.775238892 L12.923842,2.29519911 L12.9238474,2.29520546 Z M1.01559839,45.9040228 C1.01559839,45.3424313 1.47640869,44.8846141 2.0281631,44.8846141 L8.11566185,44.8846141 C8.6734817,44.8846141 9.12822413,45.3363292 9.12822413,45.9040228 C9.12822413,46.4656143 8.66741627,46.9234315 8.11566185,46.9234315 L2.0281631,46.9234315 C1.76137968,46.9234315 1.50066071,46.8135551 1.31269831,46.6243228 C1.11867386,46.4350909 1.01559839,46.1726076 1.01559839,45.9040204 L1.01559839,45.9040228 Z M32.9689673,39.3114478 C34.9455917,37.3214585 34.9455917,34.0923096 32.9689673,32.0962168 C30.9923429,30.1062275 27.7848813,30.1062275 25.8021943,32.0962168 C23.8255699,34.0862061 23.8255699,37.315355 25.8021943,39.3114478 C27.7848813,41.3014371 30.9923429,41.3014371 32.9689673,39.3114478 Z M22.2915557,15.3034025 C22.2915557,14.7418109 22.7463029,14.2839938 23.3041204,14.2839938 L34.4483923,14.2839938 C35.0062121,14.2839938 35.4609545,14.7418134 35.4609545,15.3034025 C35.4609545,15.864994 35.0062102,16.3228112 34.4483923,16.3228112 L23.3041204,16.3228112 C23.0373369,16.3228112 22.776618,16.2190387 22.5886556,16.0237024 C22.4006946,15.8344706 22.2915557,15.5719873 22.2915557,15.3034 L22.2915557,15.3034025 Z M22.2915566,20.4004704 C22.2915566,19.8388788 22.7402394,19.3810617 23.2980578,19.3810617 L39.523353,19.3810617 C40.0811728,19.3810617 40.5298527,19.8327768 40.5298527,20.4004704 C40.5298527,20.9620619 40.0811714,21.4198791 39.523353,21.4198791 L23.2980578,21.4198791 C23.0312744,21.4198791 22.7705555,21.3100027 22.582593,21.1207703 C22.3946321,20.9315385 22.2915566,20.6690552 22.2915566,20.4004679 L22.2915566,20.4004704 Z M22.2915557,25.5036418 C22.2915557,24.9420503 22.7463029,24.4842331 23.3041204,24.4842331 L30.3981431,24.4842331 C30.955963,24.4842331 31.4107054,24.9359482 31.4107054,25.5036418 C31.4107054,26.0652333 30.955961,26.5230505 30.3981431,26.5230505 L23.3041204,26.5230505 C23.0373369,26.5230505 22.776618,26.4192781 22.5886556,26.2239417 C22.4006946,26.0347099 22.2915557,25.7722266 22.2915557,25.5036393 L22.2915557,25.5036418 Z M3.04072539,19.381091 C1.95540315,19.381091 0.948898537,18.7950756 0.409271103,17.8489188 C-0.136423701,16.9027572 -0.136423701,15.7368446 0.409271103,14.7906879 C0.954965908,13.8445262 1.95540315,13.2585206 3.04072539,13.2585206 C4.72024745,13.2585206 6.07843722,14.6258735 6.07843722,16.3167516 C6.08448034,18.0137332 4.72024745,19.381091 3.04072539,19.381091 L3.04072539,19.381091 Z M3.04072539,17.8489188 C3.58642019,17.8489188 4.08360513,17.5559146 4.35645253,17.085887 C4.62929945,16.6097549 4.62929945,16.0298523 4.35645253,15.5537197 C4.08360561,15.0775876 3.58035282,14.7906879 3.04072539,14.7906879 C2.20399562,14.7906879 1.51884828,15.4743643 1.51884828,16.3228551 C1.52491152,17.1652424 2.20399562,17.8489188 3.04072539,17.8489188 L3.04072539,17.8489188 Z M65.8620247,13.2585206 C64.7767024,13.2585206 63.7701978,12.6725053 63.2305704,11.7263485 C62.6848756,10.7801868 62.6848756,9.61427428 63.2305704,8.6681175 C63.7762652,7.72195583 64.7767024,7.13595025 65.8620247,7.13595025 C67.5415467,7.13595025 68.8997164,8.50330312 68.8997164,10.1941812 C68.8997164,11.8911629 67.5415467,13.2585206 65.8620247,13.2585206 L65.8620247,13.2585206 Z M65.8620247,11.732452 C66.4077195,11.732452 66.9049044,11.4394477 67.1777518,10.9694201 C67.4505987,10.493288 67.4505987,9.91338546 67.1777518,9.43725288 C66.9049049,8.96112078 66.4016521,8.67422101 65.8620247,8.67422101 C65.0252949,8.67422101 64.3401475,9.35789744 64.3401475,10.2063883 C64.3401475,11.042672 65.0252949,11.732452 65.8620247,11.732452 Z" id="形状"></path>
                        </g>
                    </g>
                </g>
            </g>
        </g>
    </g>
</svg>