<?xml version="1.0" encoding="UTF-8"?>
<svg width="124px" height="124px" viewBox="0 0 124 124" version="1.1" xmlns="http://www.w3.org/2000/svg" xmlns:xlink="http://www.w3.org/1999/xlink">
    <!-- Generator: Sketch 53.2 (72643) - https://sketchapp.com -->
    <!-- <title>分组 45</title> -->
    <desc>Created with Sketch.</desc>
    <defs>
        <linearGradient x1="50%" y1="100%" x2="50%" y2="4.13802453%" id="linearGradient-1">
            <stop stop-color="#FFAC6E" offset="0%"></stop>
            <stop stop-color="#FFC6C4" offset="100%"></stop>
        </linearGradient>
        <circle id="path-2" cx="52" cy="52" r="52"></circle>
        <filter x="-17.8%" y="-10.1%" width="137.5%" height="137.5%" filterUnits="objectBoundingBox" id="filter-3">
            <feOffset dx="1" dy="9" in="SourceAlpha" result="shadowOffsetOuter1"></feOffset>
            <feGaussianBlur stdDeviation="5" in="shadowOffsetOuter1" result="shadowBlurOuter1"></feGaussianBlur>
            <feColorMatrix values="0 0 0 0 0.975685009   0 0 0 0 0.784248464   0 0 0 0 0.647971601  0 0 0 1 0" type="matrix" in="shadowBlurOuter1"></feColorMatrix>
        </filter>
        <linearGradient x1="50%" y1="98.1123555%" x2="50%" y2="2.94902991e-15%" id="linearGradient-4">
            <stop stop-color="#FFAC70" offset="0%"></stop>
            <stop stop-color="#FFC6C0" offset="100%"></stop>
        </linearGradient>
    </defs>
    <g id="Page-1" stroke="none" stroke-width="1" fill="none" fill-rule="evenodd">
        <g id="角色" transform="translate(-785.000000, -599.000000)">
            <g id="分组-46" transform="translate(785.000000, 599.000000)">
                <g id="分组-45" transform="translate(9.000000, 1.000000)">
                    <g id="分组-43">
                        <g id="分组-41">
                            <g id="分组-39">
                                <g id="椭圆形" opacity="0.282598586">
                                    <use fill="black" fill-opacity="1" filter="url(#filter-3)" xlink:href="#path-2"></use>
                                    <use fill="url(#linearGradient-1)" fill-rule="evenodd" xlink:href="#path-2"></use>
                                </g>
                                <circle id="椭圆形" fill="url(#linearGradient-4)" opacity="0.603608631" cx="52" cy="52" r="44"></circle>
                                <circle id="椭圆形" fill="#FFFFFF" cx="73.5" cy="88.5" r="1.5"></circle>
                                <circle id="椭圆形" fill="#FFFFFF" cx="87.5" cy="53.5" r="1.5"></circle>
                                <circle id="椭圆形" fill="#FFFFFF" cx="66.5" cy="21.5" r="1.5"></circle>
                                <circle id="椭圆形" fill="#FFFFFF" cx="7" cy="57" r="1"></circle>
                            </g>
                        </g>
                    </g>
                    <g id="分组-42" transform="translate(29.000000, 25.000000)">
                        <path d="M32.8339828,26.569104 C31.7228149,26.081027 30.5762215,25.6775077 29.4042012,25.3627177 C34.769273,22.3349324 37.4181713,16.0702522 35.8527628,10.1118864 C34.2873542,4.15371936 28.9016892,0 22.7412327,0 C16.5805776,0 11.1948464,4.15371936 9.62950409,10.1118864 C8.06409552,16.0702522 10.7129938,22.3349324 16.0779994,25.3627177 C6.77831643,27.9518893 0,35.8419034 0,45.155293 C0,45.9038631 0.607066779,46.5109298 1.3556368,46.5109298 C2.10440547,46.5109298 2.71120738,45.9038631 2.71120738,45.155293 C2.71120738,35.2454311 11.6992787,27.1114779 22.7479868,27.1114779 C25.8404649,27.0970428 28.9003649,27.7441702 31.7222852,29.0094886 C32.1684474,29.2443562 32.7083052,29.2125726 33.1234122,28.9265201 C33.5388504,28.6401367 33.7610045,28.1471598 33.7002184,27.6466343 C33.6394322,27.1459101 33.3057706,26.7204072 32.8339828,26.5422203 L32.8339828,26.569104 Z" id="路径" fill="#FF7900"></path>
                        <path d="M42.0546277,28.9227458 C40.1206618,28.360441 38.3089965,27.4409017 36.7133273,26.2115385 C35.1177244,27.4409017 33.3060591,28.360441 31.3720932,28.9227458 C29.9929498,29.3736095 28.5631512,29.6513849 27.1154082,29.7496492 L27.1154082,43.0624091 C27.111038,44.7193942 27.7139331,46.3204269 28.8098714,47.5630332 C29.1624045,47.9517864 29.5328159,48.3402747 29.9215691,48.7290279 C30.4637444,49.2712032 31.0195601,49.7864286 31.575442,50.2745055 L32.2805082,50.8709777 C33.4053828,51.8127656 34.612034,52.6520513 35.886424,53.3789025 C36.4078737,53.6737616 37.0459957,53.6737616 37.5674454,53.3789025 C38.8372003,52.6513229 40.039415,51.811971 41.1599193,50.8709777 L41.8649856,50.2745055 C42.8367692,49.4233009 43.760149,48.517998 44.6305561,47.5630332 C45.7215282,46.3183742 46.3193248,44.7175402 46.3115776,43.0624091 L46.3115776,29.7362074 C44.8643643,29.6423133 43.4344995,29.3689081 42.0546277,28.9227458 Z" id="路径" fill="#FF9800"></path>
                        <polygon id="路径" fill="#FFFFFF" points="41.119329 35.5112215 43.49171 35.5112215 43.49171 38.2226937 38.0689641 38.2226937 38.0689641 41.801461 43.49171 41.801461 43.49171 44.5129332 38.0689641 44.5129332 38.0689641 49.8270189 35.3577568 49.8270189 35.3577568 44.5129332 29.9350109 44.5129332 29.9350109 41.801461 35.3577568 41.801461 35.3577568 38.2226937 29.9350109 38.2226937 29.9350109 35.5112215 32.3073919 35.5112215 29.1218142 32.3256438 31.0332668 30.4141251 36.1440698 35.5249281 37.2963578 35.5249281 42.4071608 30.4141251 44.3186133 32.3256438"></polygon>
                    </g>
                </g>
            </g>
        </g>
    </g>
</svg>