<?xml version="1.0" encoding="UTF-8"?>
<svg width="20px" height="20px" viewBox="0 0 20 20" version="1.1" xmlns="http://www.w3.org/2000/svg" xmlns:xlink="http://www.w3.org/1999/xlink">
    <!-- Generator: Sketch 63 (92445) - https://sketch.com -->
    <title>矩形</title>
    <desc>Created with Sketch.</desc>
    <g id="页面-1" stroke="none" stroke-width="1" fill="none" fill-rule="evenodd">
        <g id="画板" transform="translate(-513.000000, -360.000000)">
            <g id="审批角色设置" transform="translate(513.000000, 360.000000)">
                <rect id="矩形" x="0" y="0" width="20" height="20"></rect>
                <g id="角色" transform="translate(2.000000, 2.000000)" fill="#08B347" fill-rule="nonzero">
                    <path d="M15.6577261,11.6924928 C15.9103436,11.7303855 15.9688671,11.9063758 15.7794037,12.0869979 L14.5756789,13.2591446 L14.5756788,13.2591446 C14.3816255,13.4733574 14.2885957,13.7604171 14.3201145,14.0477331 L14.6043101,15.7070162 C14.6346242,15.889743 14.5622071,15.9983688 14.4358974,15.9983688 L14.4358974,15.9983688 C14.3765563,15.9960905 14.3187003,15.9791677 14.2674847,15.9491076 L12.7812486,15.1651505 L12.7812486,15.1651505 C12.5184796,15.0433609 12.2154323,15.0433609 11.9526617,15.1651505 L10.4651631,15.9478451 L10.4651631,15.9478451 C10.4143348,15.9789562 10.3563111,15.9963633 10.2967504,15.9983688 C10.1683364,15.9983688 10.0967612,15.889743 10.1283378,15.7070169 L10.4121115,14.0477337 L10.4121115,14.0477336 C10.4447428,13.7603036 10.3515676,13.472797 10.1565456,13.2591452 L8.95324265,12.0869985 C8.7667268,11.9063764 8.82482859,11.7303856 9.07955154,11.6924933 L10.742616,11.4504009 L10.742616,11.4504009 C11.0269648,11.392355 11.2724744,11.2145146 11.4162637,10.9624269 L12.159802,9.45387666 L12.159802,9.45387668 C12.1915302,9.36191142 12.2716232,9.29511243 12.3677913,9.28041241 L12.3677913,9.28041241 C12.4647177,9.29319694 12.545565,9.36076126 12.5753587,9.45387668 L13.3201612,10.9624269 L13.3201612,10.9624269 C13.4631221,11.2150194 13.7090991,11.3927384 13.9938089,11.4491369 L15.6577261,11.6924928 Z M9.05514029,15.5238722 L9.05514031,15.5238721 C9.03031106,15.6719623 9.02733215,15.8228928 9.04629863,15.9718476 C8.64211066,15.9900922 8.22206329,15.9992145 7.78615653,15.9992145 L7.78615534,15.9992145 C5.54726211,15.9952825 3.31374388,15.7798815 1.11536633,15.3558825 L1.11536608,15.3558825 C0.827615747,15.3112571 0.548437297,15.2226475 0.287621369,15.0931603 L0.287621335,15.0931603 C0.116032073,14.87111 0.0240929032,14.5978128 0.0265835311,14.3172016 L0.0265835117,14.3172014 C-0.0253343612,13.9092838 -0.00106464544,13.4952723 0.098158595,13.0962156 L0.0981585792,13.0962158 C0.137373312,12.750145 0.307433823,12.4321681 0.57350132,12.207421 L0.573501355,12.2074209 C0.843214169,11.9976691 1.14758796,11.8367908 1.47282115,11.7320782 C1.8180653,11.6129268 3.41671404,11.0634821 3.78596447,10.9662242 L3.78596463,10.9662241 C4.12665253,10.8821776 4.45113572,10.7424833 4.74633294,10.5527721 L4.746333,10.5527721 C4.93508478,10.443149 5.10874748,10.3093984 5.26293672,10.1548982 L5.26293675,10.1548981 C5.47403387,9.95083541 5.59226995,9.66916945 5.59007619,9.37557224 C5.59007619,9.23873755 5.58333972,9.08885159 5.57407711,8.92759672 L5.57407712,8.92759684 C5.56830764,8.70728565 5.48046826,8.4970729 5.32777527,8.33815553 C5.17255556,8.18826895 5.01087959,8.04553956 4.84274814,7.90996753 L4.84274812,7.90996751 C4.7478166,7.822231 4.67174792,7.71607978 4.61918067,7.59798433 C4.55518419,7.4657809 4.49694162,7.33091059 4.44445391,7.19337449 C4.39056212,7.03001492 4.33751238,6.86623505 4.28530528,6.70203329 L4.2853053,6.7020333 C4.20434864,6.67885077 4.12820199,6.64134776 4.06047535,6.59130239 L4.06047529,6.59130233 C3.98381505,6.52377288 3.91426372,6.44857857 3.85290786,6.3668927 L3.85290785,6.36689268 C3.76492712,6.24136815 3.69952845,6.10145174 3.6596545,5.95344063 L3.65965453,5.95344072 C3.60850931,5.79734257 3.59044226,5.63230128 3.60660478,5.46883547 L3.60660474,5.46883583 C3.63088805,5.21054647 3.72814098,4.96449462 3.88700976,4.75940063 L3.88700948,4.75939035 C3.8659118,3.98456914 3.9653391,3.21117449 4.18173326,2.46688769 L4.18173335,2.46688735 C4.28644051,2.09910879 4.45010085,1.75074589 4.66633861,1.43536427 L4.66633865,1.43536421 C4.85236699,1.16532327 5.07969069,0.926207363 5.33998631,0.726771194 L5.33998604,0.726771397 C5.78809281,0.385616313 6.31247467,0.158611361 6.86789094,0.0653409401 L6.86789061,0.0653409951 C7.11718309,0.0241514159 7.36929276,0.00233295305 7.62195555,3.94717897e-05 L7.62195557,3.94717897e-05 C7.92030436,-0.0013946764 8.21755939,0.0362575237 8.50611754,0.112075112 L8.50611751,0.112075104 C8.77737251,0.181778154 9.04130563,0.277369047 9.29428562,0.397533249 L9.29428591,0.397533389 C9.52330181,0.504741014 9.74082862,0.634946165 9.94351323,0.786143216 L9.94351315,0.786143154 C10.1165165,0.911372362 10.2722385,1.0588841 10.4066465,1.22485616 L10.4066464,1.22485604 C10.6695623,1.56001736 10.8717626,1.93862718 11.0040877,2.34353234 L11.0040879,2.34353277 C11.1315277,2.71778165 11.2242647,3.10296335 11.2811257,3.49420599 L11.2811257,3.49420609 C11.3450958,3.91500814 11.3717244,4.34064301 11.3607003,4.76613726 L11.3607004,4.76613727 C11.4387642,4.80918717 11.5005788,4.87662131 11.5366912,4.95812656 L11.5366912,4.9581265 C11.5836043,5.04829567 11.6178889,5.14449078 11.6385803,5.24400496 L11.6385803,5.24400493 C11.6647918,5.38577447 11.6670688,5.53093339 11.6453169,5.67345543 L11.6453168,5.6734558 C11.6230437,5.85764195 11.5724867,6.03728903 11.4954301,6.20605798 L11.4954301,6.20605797 C11.4376927,6.32151639 11.3601741,6.4259676 11.2663892,6.51467239 L11.2663892,6.5146724 C11.17984,6.59441046 11.076764,6.654071 10.9645107,6.68939916 C10.9238111,6.85528529 10.8756734,7.01906517 10.8200974,7.18074036 L10.8200973,7.18074064 C10.7672279,7.31857174 10.7073639,7.45361752 10.6407393,7.58535049 L10.6407393,7.58535048 C10.5827361,7.70192796 10.5043071,7.8071648 10.4091734,7.89607115 L10.4091733,7.89607124 C10.3245144,7.97424102 10.2341653,8.0460136 10.1388714,8.11079649 L10.1388713,8.11079657 C10.0585562,8.16345819 9.98366675,8.22396201 9.91530386,8.29141865 L9.91530383,8.29141868 C9.84799172,8.35663563 9.79394697,8.43427135 9.7561552,8.5200377 L9.75615515,8.52003783 C9.65529441,8.77804125 9.61148639,9.05482283 9.6277411,9.33136221 L9.62774111,9.33136235 C9.65331004,9.7065331 9.83242884,10.0545648 10.1228729,10.293415 L10.1228728,10.293415 C10.1744226,10.3378808 10.2287009,10.3790818 10.2853902,10.4167767 L8.919148,10.6159238 L8.91914804,10.6159238 C8.21145346,10.6801854 7.68984661,11.3059793 7.75410918,12.0136754 C7.78405562,12.3434664 7.94000158,12.6490152 8.18950344,12.8667498 L9.31786412,13.9673214 L9.05008881,15.521342 L9.05514029,15.5238722 Z" id="形状"></path>
                </g>
            </g>
        </g>
    </g>
</svg>