<?xml version="1.0" encoding="UTF-8"?>
<svg width="26px" height="26px" viewBox="0 0 26 26" version="1.1" xmlns="http://www.w3.org/2000/svg" xmlns:xlink="http://www.w3.org/1999/xlink">
    <!-- Generator: Sketch 53.2 (72643) - https://sketchapp.com -->
    <title>矩形</title>
    <desc>Created with Sketch.</desc>
    <defs>
        <polygon id="path-1" points="0.00146341463 0.00487804878 14.9853171 0.00487804878 14.9853171 17.4878293 0.00146341463 17.4878293"></polygon>
    </defs>
    <g id="Page-1" stroke="none" stroke-width="1" fill="none" fill-rule="evenodd">
        <g id="画板" transform="translate(-35.000000, -309.000000)">
            <g id="分组-3" transform="translate(35.000000, 309.000000)">
                <rect id="矩形" x="0" y="0" width="26" height="26"></rect>
                <g id="huizhi" transform="translate(5.000000, 4.000000)">
                    <mask id="mask-2" fill="white">
                        <use xlink:href="#path-1"></use>
                    </mask>
                    <g id="Clip-2"></g>
                    <path d="M9.4595122,0.00487804878 L1.2487561,0.00487804878 C0.561926829,0.00487804878 0,0.566804878 0,1.25363415 L0,16.2390732 C0,16.9259024 0.561926829,17.4878293 1.2487561,17.4878293 L13.736561,17.4878293 C14.4233902,17.4878293 14.9853171,16.9259024 14.9853171,16.2390732 L14.9853171,5.53070732 C14.9853171,5.18731707 14.8605122,4.87512195 14.6107073,4.65656098 L10.3649024,0.379487805 C10.1150976,0.129780488 9.80297561,0.00487804878 9.4595122,0.00487804878 Z M1.2487561,5.00002439 L9.99029268,5.00002439 L9.99029268,3.75126829 L1.2487561,3.75126829 L1.2487561,5.00002439 Z M1.2487561,8.74629268 L9.99029268,8.74629268 L9.99029268,7.49753659 L1.2487561,7.49753659 L1.2487561,8.74629268 Z M1.2487561,12.4926829 L5.61946341,12.4926829 L5.61946341,11.2439268 L1.2487561,11.2439268 L1.2487561,12.4926829 Z M13.736561,13.741439 L11.3327073,16.1454146 L10.458561,15.2712683 L11.3327073,14.3970244 L7.49265854,14.3970244 L7.49265854,13.1482683 L11.3639512,13.1482683 L10.5522195,12.3366341 L11.4263415,11.4624878 L13.736561,13.741439 Z" id="Fill-1" fill="#08b448" mask="url(#mask-2)"></path>
                </g>
            </g>
        </g>
    </g>
</svg>
