<?xml version="1.0" encoding="UTF-8"?>
<svg width="26px" height="26px" viewBox="0 0 26 26" version="1.1" xmlns="http://www.w3.org/2000/svg" xmlns:xlink="http://www.w3.org/1999/xlink">
    <!-- Generator: Sketch 53.2 (72643) - https://sketchapp.com -->
    <title>矩形</title>
    <desc>Created with Sketch.</desc>
    <g id="Page-1" stroke="none" stroke-width="1" fill="none" fill-rule="evenodd">
        <g id="画板" transform="translate(-35.000000, -360.000000)">
            <g id="分组-4" transform="translate(35.000000, 360.000000)">
                <rect id="矩形" x="0" y="0" width="26" height="26"></rect>
                <path d="M4,5.525 L4,20.9749634 C4,21.2600586 4.24005127,21.4999634 4.525,21.4999634 L21.475,21.4999634 C21.7599487,21.4999634 22,21.2600586 22,20.9749634 L22,5.525 C22,5.24005127 21.7599487,5 21.475,5 L4.525,5 C4.24005127,5 4,5.24005127 4,5.525 Z M19.9749634,20.0000732 L6.02503662,20.0000732 C5.73994141,20.0000732 5.50003662,19.760022 5.50003662,19.4750732 L5.50003662,9.72496338 C5.50003662,9.44001465 5.73994141,9.2 6.02503662,9.2 L19.9749634,9.2 C20.2600586,9.2 20.4999634,9.44001465 20.4999634,9.72496338 L20.4999634,19.4750732 C20.4999634,19.760022 20.2600586,20.0000732 19.9749634,20.0000732 Z M14.8750366,14.6000366 L15.6250366,14.6000366 C15.910022,14.6000366 16.1500366,14.3599854 16.1500366,14.0750366 L16.1500366,13.9249634 C16.1500366,13.6400146 16.3899414,13.3999634 16.6750366,13.3999634 L18.325,13.3999634 C18.6099487,13.3999634 18.85,13.1600586 18.85,12.8749634 C18.85,12.5900146 18.6099487,12.3499634 18.325,12.3499634 L16.6750366,12.3499634 C16.3899414,12.3499634 16.1500366,12.1100586 16.1500366,11.8249634 L16.1500366,11.6750366 C16.1500366,11.3899414 15.910022,11.1500732 15.6250366,11.1500732 L14.8750366,11.1500732 C14.5899414,11.1500732 14.3500366,11.3899414 14.3500366,11.6750366 L14.3500366,11.8249634 C14.3500366,12.1100586 14.1099854,12.3499634 13.8250366,12.3499634 L7.97496338,12.3499634 C7.69001465,12.3499634 7.44996338,12.5900146 7.44996338,12.8749634 C7.44996338,13.1600586 7.69001465,13.3999634 7.97496338,13.3999634 L13.8250366,13.3999634 C14.1099854,13.3999634 14.3500366,13.6400146 14.3500366,13.9249634 L14.3500366,14.0750366 C14.3500366,14.3599854 14.5899414,14.6000366 14.8750366,14.6000366 Z M10.6750366,15.0500732 L9.92503662,15.0500732 C9.63994141,15.0500732 9.40003662,15.2899414 9.40003662,15.5750732 L9.40003662,15.7249634 C9.40003662,16.0099487 9.15998535,16.2499634 8.87503662,16.2499634 L7.675,16.2499634 C7.39001465,16.2499634 7.15,16.4900146 7.15,16.7749634 C7.15,17.0600586 7.39001465,17.2999634 7.675,17.2999634 L8.87503662,17.2999634 C9.15998535,17.2999634 9.40003662,17.5400146 9.40003662,17.8249634 L9.40003662,18.1249268 C9.40003662,18.4100586 9.63994141,18.6499268 9.92503662,18.6499268 L10.6750366,18.6499268 C10.960022,18.6499268 11.2000366,18.4100586 11.2000366,18.1249268 L11.2000366,17.9750366 C11.2000366,17.6900513 11.4399414,17.4500366 11.7250366,17.4500366 L18.1749268,17.4500366 C18.460022,17.4500366 18.6999268,17.2099854 18.6999268,16.9250366 C18.6999268,16.6399414 18.460022,16.4000366 18.1749268,16.4000366 L11.7250366,16.4000366 C11.4399414,16.4000366 11.2000366,16.1599854 11.2000366,15.8750366 L11.2000366,15.5750732 C11.2000366,15.2899414 10.960022,15.0500732 10.6750366,15.0500732 Z" id="jichuguanli" fill="#08b448"></path>
            </g>
        </g>
    </g>
</svg>
