<?xml version="1.0" encoding="UTF-8"?>
<svg width="20px" height="20px" viewBox="0 0 20 20" version="1.1" xmlns="http://www.w3.org/2000/svg" xmlns:xlink="http://www.w3.org/1999/xlink">
    <!-- Generator: Sketch 63 (92445) - https://sketch.com -->
    <title>矩形</title>
    <desc>Created with Sketch.</desc>
    <g id="页面-1" stroke="none" stroke-width="1" fill="none" fill-rule="evenodd">
        <g id="画板" transform="translate(-514.000000, -280.000000)">
            <g id="审批案件" transform="translate(514.000000, 280.000000)">
                <rect id="矩形" x="0" y="0" width="20" height="20"></rect>
                <path d="M14.1104087,5.48840648 C13.9928563,5.48840648 13.8810381,5.43438873 13.8077214,5.34186948 C13.5514382,5.01426941 13.1562557,4.81954529 12.7322574,4.81954529 C12.3101624,4.81954529 11.9149799,5.01426941 11.6586003,5.34186948 C11.58538,5.43438873 11.4735618,5.48840648 11.3560094,5.48840648 L4.91625984,5.48840648 C4.70421246,5.48840648 4.53076295,5.66185599 4.53076295,5.87390337 L4.53076295,6.46947196 C4.53076295,6.68151934 4.70421246,6.85496884 4.91625984,6.85496884 L11.3560094,6.85496884 C11.4735618,6.85496884 11.58538,6.90889022 11.6586003,7.00140947 C11.9149799,7.32913001 12.3101624,7.52385413 12.7322574,7.52385413 C13.1543764,7.52385413 13.5494626,7.32913001 13.8077214,7.00140947 C13.8810381,6.90889022 13.9928563,6.85496884 14.1104087,6.85496884 L15.0818609,6.85496884 C15.2939082,6.85496884 15.4673578,6.68151934 15.4673578,6.46947196 L15.4673578,5.87390337 C15.4673578,5.66185599 15.2939082,5.48840648 15.0818609,5.48840648 L14.1104087,5.48840648 Z M9.99906035,8.90583636 C9.57496559,8.90771566 9.17987947,9.10819813 8.92349995,9.43777388 C8.85027964,9.5322688 8.73848554,9.58816585 8.61895741,9.58816585 L4.91625984,9.58816585 C4.70421246,9.58816585 4.53076295,9.76163945 4.53076295,9.97366273 L4.53076295,10.5692313 C4.53076295,10.7812787 4.70421246,10.9547282 4.91625984,10.9547282 L8.62093308,10.9547282 C8.73848554,10.9547282 8.85027964,11.0086496 8.92349995,11.1031445 C9.17987947,11.430865 9.57496559,11.6254928 9.99718105,11.6254928 C10.419276,11.6254928 10.8143863,11.430865 11.0726451,11.1031445 C11.1459618,11.0106253 11.2576595,10.9566075 11.3753083,10.9566075 L15.0798852,10.9566075 C15.2919326,10.9566075 15.4653821,10.783158 15.4653821,10.5711106 L15.4653821,9.97556612 C15.4653821,9.76351874 15.2919326,9.59006924 15.0798852,9.59006924 L11.3791633,9.59006924 C11.2596352,9.59006924 11.1478411,9.5341481 11.0746208,9.43974955 C10.8182412,9.10629474 10.4231551,8.90771566 9.99906035,8.90583636 Z M7.26586335,13.0055957 C6.84186496,13.007475 6.44668247,13.2079575 6.19039932,13.5375332 C6.11708263,13.6320282 6.00526444,13.6879493 5.88583269,13.6879493 L4.91625984,13.6879493 C4.70421246,13.6879493 4.53076295,13.8613988 4.53076295,14.0734462 L4.53076295,14.6689907 C4.53076295,14.8810381 4.70421246,15.0544876 4.91625984,15.0544876 L5.88771199,15.0544876 C6.00526444,15.0544876 6.11708263,15.108433 6.19039932,15.2009282 C6.44668247,15.5286487 6.84186496,15.7232765 7.26395996,15.7232765 C7.68607904,15.7232765 8.08116516,15.5286487 8.33952036,15.2009282 C8.41274067,15.108433 8.52455886,15.0544876 8.64211132,15.0544876 L15.0818609,15.0544876 C15.2939082,15.0544876 15.4673578,14.8810381 15.4673578,14.6689907 L15.4673578,14.0734462 C15.4673578,13.8613988 15.2939082,13.6879493 15.0818609,13.6879493 L8.64408699,13.6879493 C8.52455886,13.6879493 8.41274067,13.6320282 8.33952036,13.5375332 C8.08504423,13.2079575 7.68993401,13.0094507 7.26586335,13.0055957 Z M16.3192818,17.5447974 L3.67883893,17.5447974 C2.75169483,17.5447974 2,16.7930785 2,15.8659585 L2,4.67883893 C2,3.75169483 2.75169483,3 3.67883893,3 L16.3211611,3 C17.2483052,3 18,3.75169483 18,4.67883893 L18,15.8659585 C17.9981207,16.7930785 17.2464259,17.5447974 16.3192818,17.5447974 Z" id="peizhi" fill="#08B347"></path>
            </g>
        </g>
    </g>
</svg>