<?xml version="1.0" encoding="UTF-8"?>
<svg width="20px" height="20px" viewBox="0 0 20 20" version="1.1" xmlns="http://www.w3.org/2000/svg" xmlns:xlink="http://www.w3.org/1999/xlink">
    <!-- Generator: Sketch 63 (92445) - https://sketch.com -->
    <title>矩形</title>
    <desc>Created with Sketch.</desc>
    <g id="页面-1" stroke="none" stroke-width="1" fill="none" fill-rule="evenodd">
        <g id="画板" transform="translate(-513.000000, -40.000000)">
            <g id="我的审批-点击" transform="translate(513.000000, 40.000000)">
                <rect id="矩形" x="0" y="0" width="20" height="20"></rect>
                <g id="审批" transform="translate(2.000000, 1.000000)" fill="#08B347">
                    <path d="M4.44444444,1.77777778 L1.62222222,1.77777778 C0.728888889,1.77777778 0,2.50444444 0,3.4 L0,16.1555556 C0,17.0488889 0.726666667,17.7777778 1.62222222,17.7777778 L14.3777778,17.7777778 C15.2711111,17.7777778 16,17.0511111 16,16.1555556 L16,3.4 C16,2.50666667 15.2733333,1.77777778 14.3777778,1.77777778 L11.5555556,1.77777778 L11.5555556,1.93777778 C11.5555556,2.83111111 10.8355556,3.55555556 9.94222222,3.55555556 L6.05777778,3.55555556 C5.16666667,3.55555556 4.44444444,2.83111111 4.44444444,1.93777778 L4.44444444,1.77777778 Z M12.1555556,8.45111111 L7.98666667,13.2333333 C7.87555556,13.4044444 7.65333333,13.5244444 7.40666667,13.5244444 C7.21333333,13.5244444 6.98666667,13.4733333 6.83111111,13.3288889 L4.36,11.2244444 C4.03333333,10.9 4.00222222,10.4355556 4.26444444,10.0711111 C4.61555556,9.71111111 5.09777778,9.68666667 5.43111111,9.96444444 L7.30444444,11.5466667 L10.9333333,7.37555556 C11.26,7.04444444 11.7422222,7.02222222 12.0755556,7.3 C12.4088889,7.63555556 12.4333333,8.12 12.1555556,8.45111111 L12.1555556,8.45111111 Z M5.33333333,1.33333333 C5.33333333,0.597777778 5.92444444,-1.77635684e-15 6.66444444,-1.77635684e-15 L9.33333333,-1.77635684e-15 C10.0688889,-1.77635684e-15 10.6644444,0.591111111 10.6644444,1.33333333 C10.6644444,2.06888889 10.0733333,2.66666667 9.33333333,2.66666667 L6.66444444,2.66666667 C5.92888889,2.66666667 5.33333333,2.07555556 5.33333333,1.33333333 Z" id="形状"></path>
                </g>
            </g>
        </g>
    </g>
</svg>