<?xml version="1.0" encoding="UTF-8"?>
<svg width="24px" height="24px" viewBox="0 0 24 24" version="1.1" xmlns="http://www.w3.org/2000/svg" xmlns:xlink="http://www.w3.org/1999/xlink">
    <!-- Generator: Sketch 53.2 (72643) - https://sketchapp.com -->
    <title>矩形</title>
    <desc>Created with Sketch.</desc>
    <g id="Page-1" stroke="none" stroke-width="1" fill="none" fill-rule="evenodd">
        <g id="画板" transform="translate(-293.000000, -149.000000)">
            <g id="分组-27" transform="translate(293.000000, 149.000000)">
                <rect id="矩形" x="0" y="0" width="24" height="24"></rect>
                <g id="jine" transform="translate(3.000000, 3.000000)" fill="#0263FF" fill-rule="nonzero">
                    <path d="M9.00022857,4.08562073e-14 C4.02834286,4.08562073e-14 -1.42108547e-14,4.02895238 -1.42108547e-14,9.00022857 C-1.42108547e-14,13.9715048 4.02895238,17.9992381 9.00022857,17.9992381 C13.9715048,17.9992381 17.9998476,13.9708952 17.9998476,8.99961905 C17.9998476,4.02834286 13.9715048,4.08562073e-14 9.00022857,4.08562073e-14 Z M11.9704381,10.1266286 C12.3702857,10.1266286 12.6969905,10.4533333 12.6969905,10.853181 C12.6969905,11.2530286 12.3702857,11.5797333 11.9704381,11.5797333 L9.72678095,11.5797333 L9.72678095,13.4528 C9.72678095,13.8526476 9.40007619,14.1793524 9.00022857,14.1793524 C8.59938182,14.1783473 8.27468124,13.8536468 8.27367619,13.4528 L8.27367619,11.5797333 L6.03184762,11.5797333 C5.63100086,11.5787283 5.30630029,11.2540277 5.30529524,10.853181 C5.30529524,10.4533333 5.632,10.1266286 6.03184762,10.1266286 L8.27550476,10.1266286 L8.27550476,9.05325714 L6.03184762,9.05325714 C5.63100086,9.05225209 5.30630029,8.72755152 5.30529524,8.32670476 C5.30529524,7.92685714 5.632,7.59954286 6.03184762,7.59954286 L7.6440381,7.59954286 L5.6935619,5.3248 C5.43511054,5.02002625 5.47046679,4.56393065 5.7728,4.30262857 C6.07733018,4.04273941 6.53471323,4.07817433 6.79558095,4.38186667 L9.00205714,6.9528381 L11.2085333,4.38186667 C11.4700513,4.07945949 11.9263396,4.04410938 12.2313143,4.30262857 C12.5336381,4.56289524 12.5689905,5.02186667 12.3105524,5.3248 L10.3600762,7.59954286 L11.9728762,7.59954286 C12.3727238,7.59954286 12.6994286,7.92685714 12.6994286,8.32670476 C12.6994286,8.72594286 12.3727238,9.05325714 11.9728762,9.05325714 L9.72678095,9.05325714 L9.72678095,10.126019 L11.9704381,10.126019 L11.9704381,10.1266286 Z" id="形状"></path>
                </g>
            </g>
        </g>
    </g>
</svg>