<?xml version="1.0" encoding="UTF-8"?>
<svg width="24px" height="24px" viewBox="0 0 24 24" version="1.1" xmlns="http://www.w3.org/2000/svg" xmlns:xlink="http://www.w3.org/1999/xlink">
    <!-- Generator: Sketch 53.2 (72643) - https://sketchapp.com -->
    <title>矩形</title>
    <desc>Created with Sketch.</desc>
    <g id="Page-1" stroke="none" stroke-width="1" fill="none" fill-rule="evenodd">
        <g id="画板" transform="translate(-480.000000, -150.000000)">
            <g id="分组-31" transform="translate(480.000000, 150.000000)">
                <rect id="矩形" x="0" y="0" width="24" height="24"></rect>
                <g id="分组-30" transform="translate(3.000000, 3.000000)" fill-rule="nonzero">
                    <g id="jine" fill="#0263FF">
                        <path d="M9.00022857,4.08562073e-14 C4.02834286,4.08562073e-14 -1.42108547e-14,4.02895238 -1.42108547e-14,9.00022857 C-1.42108547e-14,13.9715048 4.02895238,17.9992381 9.00022857,17.9992381 C13.9715048,17.9992381 17.9998476,13.9708952 17.9998476,8.99961905 C17.9998476,4.02834286 13.9715048,4.08562073e-14 9.00022857,4.08562073e-14 Z" id="形状"></path>
                    </g>
                    <path d="M13.8066402,6.07858175 L7.00107077,6.07858175 L7.00107077,4.96866055 L9.61035921,4.96866055 C9.49352481,4.68631076 9.36046542,4.38773845 9.21117702,4.07293467 L10.6618635,3.81005859 C10.8208881,4.10863538 10.9993824,4.49483217 11.1973518,4.96866055 L13.8066402,4.96866055 L13.8066402,6.07858175 Z M5.84246881,3.87821165 L7.12764073,4.21897693 C6.88423574,4.9978729 6.6343437,5.72645424 6.37795711,6.40474281 L6.37795711,13.448848 L5.14146594,13.448848 L5.14146594,9.15033737 C4.91104255,9.57223935 4.67737727,9.96005881 4.44046308,10.3138074 C4.36906428,9.79454342 4.26521304,9.1844174 4.12890625,8.48341103 C4.72605982,7.36699348 5.29724163,5.83194237 5.84246881,3.87821165 Z M13.2419435,7.6558382 L7.40025295,7.6558382 L7.40025295,6.61407005 L13.2419435,6.61407005 L13.2419435,7.6558382 Z M13.2419435,9.19415004 L7.40025295,9.19415004 L7.40025295,8.1523819 L13.2419435,8.1523819 L13.2419435,9.19415004 Z M7.38078065,13.448848 L7.38078065,9.71016604 L13.2419435,9.71016604 L13.2419435,13.448848 L11.9080908,13.448848 L11.9080908,12.9425681 L8.71463333,12.9425681 L8.71463333,13.448848 L7.38078065,13.448848 Z M11.9080908,10.8590318 L8.71463333,10.8590318 L8.71463333,11.7937023 L11.9080908,11.7937023 L11.9080908,10.8590318 Z" id="信" fill="#FFFFFF"></path>
                </g>
            </g>
        </g>
    </g>
</svg>