<?xml version="1.0" standalone="no"?><!DOCTYPE svg PUBLIC "-//W3C//DTD SVG 1.1//EN" "http://www.w3.org/Graphics/SVG/1.1/DTD/svg11.dtd"><svg class="icon" width="200px" height="200.00px" viewBox="0 0 1024 1024" version="1.1" xmlns="http://www.w3.org/2000/svg"><path d="M674.304722 802.0317m55.698257-55.698257l0 0q55.698257-55.698257 111.396514 0l111.396515 111.396514q55.698257 55.698257 0 111.396515l0 0q-55.698257 55.698257-111.396515 0l-111.396514-111.396515q-55.698257-55.698257 0-111.396514Z" fill="#0A74D8" /><path d="M813.550365 774.182571a433.230769 433.230769 0 1 1-612.68083-612.680829 433.230769 433.230769 0 0 1 612.68083 612.680829z m-55.698258-55.698257a354.461538 354.461538 0 1 0-501.284315-501.284315 354.461538 354.461538 0 0 0 501.284315 501.284315z" fill="#0A74D8" /></svg>