<?xml version="1.0" encoding="UTF-8"?>
<svg width="20px" height="20px" viewBox="0 0 20 20" version="1.1" xmlns="http://www.w3.org/2000/svg" xmlns:xlink="http://www.w3.org/1999/xlink">
    <!-- Generator: Sketch 63 (92445) - https://sketch.com -->
    <title>矩形</title>
    <desc>Created with Sketch.</desc>
    <g id="页面-1" stroke="none" stroke-width="1" fill="none" fill-rule="evenodd">
        <g id="6" transform="translate(-327.000000, -601.000000)" fill="#FF838E" fill-rule="nonzero">
            <g id="编组-13" transform="translate(256.000000, 571.000000)">
                <g id="编组-11">
                    <g id="DataEntry/Checkbox/Light/Normal-Disabled">
                        <g id="编组-15" transform="translate(12.000000, 29.000000)">
                            <g id="编组-14">
                                <g id="编组-16">
                                    <g id="女" transform="translate(59.000000, 1.000000)">
                                        <path d="M11.5942987,2.85714286 L11.5942989,2.85714286 C14.6589084,2.85738326 17.1430873,5.34193682 17.1428571,8.4065464 C17.1426249,11.471156 14.6580714,13.9553349 11.5934618,13.9551047 C10.3621937,13.9550114 9.16593223,13.5454067 8.19301606,12.7907841 L7.02512321,13.9551047 L9.23352638,16.162315 L8.25254494,17.1432964 L6.04533462,14.9360861 L3.98217725,16.9992435 L3.00119581,16.018262 L5.06435318,13.9551047 L2.85714286,11.7478943 L3.83812429,10.7669129 L6.04414178,12.9741232 L7.21084387,11.8074211 L7.21084402,11.8074213 C5.33236096,9.38602336 5.77248253,5.90027926 8.19388048,4.02178992 C9.1670708,3.26680521 10.3637989,2.85714286 11.5954981,2.85714286 L11.5942987,2.85714286 Z M11.5942987,4.24409913 L11.5942986,4.24409913 C9.29567923,4.24393619 7.43213175,6.10720923 7.43196434,8.40582651 C7.4318014,10.7044459 9.29507444,12.5679934 11.5936917,12.5681608 C11.5938885,12.5681608 11.5940852,12.5681608 11.594282,12.5681608 L11.5942819,12.5681608 C13.8929012,12.5679978 15.7561767,10.7044605 15.7560092,8.40582651 C15.7558463,6.10743734 13.8926689,4.24424562 11.5942819,4.24409913 L11.5942987,4.24409913 Z" id="形状"></path>
                                    </g>
                                </g>
                            </g>
                        </g>
                    </g>
                </g>
            </g>
        </g>
    </g>
</svg>