<?xml version="1.0" encoding="UTF-8"?>
<svg width="27px" height="32px" viewBox="0 0 27 32" version="1.1" xmlns="http://www.w3.org/2000/svg" xmlns:xlink="http://www.w3.org/1999/xlink">
    <!-- Generator: Sketch 52.5 (67469) - http://www.bohemiancoding.com/sketch -->
    <title></title>
    <desc>验证码装饰图标</desc>
    <g id="Page-1" stroke="none" stroke-width="1" fill-rule="evenodd">
        <g id="切图" transform="translate(-156.000000, -1418.000000)">
            <path d="M169.5,1450 C164.776968,1450 156,1442.84982 156,1436.09035 L156,1422.64957 L157.338192,1422.6105 C157.377551,1422.6105 160.368805,1422.53236 163.478134,1421.32112 C166.666181,1420.03175 168.712828,1418.58608 168.712828,1418.58608 L169.5,1418 L170.287172,1418.58608 C170.287172,1418.58608 172.373178,1420.07082 175.521866,1421.32112 C178.631195,1422.57143 181.622449,1422.6105 181.661808,1422.6105 L183,1422.64957 L183,1436.09035 C183,1442.84982 174.223032,1450 169.5,1450 Z M158.24344,1424.87668 L158.24344,1436.20757 C158.24344,1441.63858 166.233236,1447.89011 169.460641,1447.89011 C172.727405,1447.89011 180.677843,1441.67766 180.677843,1436.20757 L180.677843,1424.87668 C179.300292,1424.72039 177.017493,1424.36874 174.655977,1423.39194 C172.294461,1422.41514 170.483965,1421.3602 169.5,1420.73504 C168.516035,1421.3602 166.666181,1422.41514 164.265306,1423.39194 C161.90379,1424.32967 159.66035,1424.72039 158.24344,1424.87668 Z M168.752187,1441.16972 L163.005831,1436.32479 L164.776968,1434.25397 L168.476676,1437.34066 L175.482507,1429.36996 L177.529155,1431.12821 L168.752187,1441.16972 Z" id="icon19"></path>
        </g>
    </g>
</svg>
