<?xml version="1.0" encoding="UTF-8"?>
<svg width="20px" height="20px" viewBox="0 0 20 20" version="1.1" xmlns="http://www.w3.org/2000/svg" xmlns:xlink="http://www.w3.org/1999/xlink">
    <!-- Generator: Sketch 63 (92445) - https://sketch.com -->
    <title>矩形</title>
    <desc>Created with Sketch.</desc>
    <g id="页面-1" stroke="none" stroke-width="1" fill="none" fill-rule="evenodd">
        <g id="6" transform="translate(-602.000000, -601.000000)">
            <g id="编组-17" transform="translate(546.000000, 600.000000)">
                <g id="编组-15">
                    <g id="编组-14">
                        <g id="编组-16">
                            <g id="男" transform="translate(56.000000, 1.000000)">
                                <rect id="矩形" x="0" y="0" width="20" height="20"></rect>
                                <path d="M15.8160573,9.05970683 L17,9.05970683 L17,3 L10.9122945,3 L10.9122945,4.19194233 L14.9600987,4.19194233 L11.5602632,7.60577717 L11.5602632,7.60577722 C10.6299489,6.8646037 9.47588282,6.46064512 8.28642162,6.45983266 L8.216425,6.45983266 L8.21642478,6.45983266 C6.81447074,6.47355522 5.47606049,7.0466449 4.49860465,8.05175564 L4.49860488,8.05175542 C3.51773358,9.05014149 2.97816281,10.4001543 3.00067734,11.7995741 L3.00067718,11.7995652 C3.05398398,14.6816507 5.40184226,16.992189 8.28442155,16.9993136 L8.35441817,16.9993136 L8.35441797,16.9993136 C9.75572517,16.9852813 11.093398,16.4121983 12.0702382,15.4073906 C13.0561905,14.3974395 13.5881648,13.0675038 13.5701656,11.659572 L13.5701658,11.6595847 C13.5529067,10.4853603 13.1407897,9.35114952 12.4002318,8.43974049 L15.8140666,5.02390574 L15.8140666,9.05971049 L15.8160573,9.05970683 Z M11.2202796,14.5794398 L11.2202798,14.5794396 C10.4621727,15.3593613 9.42402293,15.8042835 8.3364193,15.8153798 L8.28242191,15.8153798 L8.2824219,15.8153798 C6.04588323,15.8103204 4.223962,14.0177387 4.18262025,11.781575 C4.16862092,10.6896278 4.5826009,9.65767775 5.34656394,8.87571558 L5.34656389,8.87571563 C6.10418348,8.09628146 7.14151455,7.65140298 8.22842446,7.63977542 L8.28442175,7.63977542 C10.5143139,7.63977542 12.352225,9.44968786 12.3822235,11.6735803 C12.3962228,12.7655274 11.9822429,13.7974775 11.2202797,14.5794397 L11.2202796,14.5794398 Z" id="形状" fill="#51ABF2" fill-rule="nonzero"></path>
                            </g>
                        </g>
                    </g>
                </g>
            </g>
        </g>
    </g>
</svg>