<?xml version="1.0" encoding="UTF-8"?>
<svg width="148px" height="186px" viewBox="0 0 148 186" version="1.1" xmlns="http://www.w3.org/2000/svg" xmlns:xlink="http://www.w3.org/1999/xlink">
    <!-- Generator: Sketch 53.2 (72643) - https://sketchapp.com -->
    <title>分组 13</title>
    <desc>Created with Sketch.</desc>
    <defs>
        <filter x="-9.0%" y="-16.4%" width="117.9%" height="132.8%" filterUnits="objectBoundingBox" id="filter-1">
            <feGaussianBlur stdDeviation="3" in="SourceGraphic"></feGaussianBlur>
        </filter>
        <filter x="-11.1%" y="-20.2%" width="122.2%" height="140.5%" filterUnits="objectBoundingBox" id="filter-2">
            <feGaussianBlur stdDeviation="3" in="SourceGraphic"></feGaussianBlur>
        </filter>
        <linearGradient x1="50%" y1="0%" x2="59.9803373%" y2="100%" id="linearGradient-3">
            <stop stop-color="#6FA7F4" offset="0%"></stop>
            <stop stop-color="#3A60F5" offset="100%"></stop>
        </linearGradient>
    </defs>
    <g id="Page-1" stroke="none" stroke-width="1" fill="none" fill-rule="evenodd">
        <g id="忘记密码-重置密码" transform="translate(-1078.000000, -395.000000)">
            <g id="分组-13" transform="translate(1077.000000, 395.000000)">
                <g id="分组-12">
                    <g id="分组-71" transform="translate(0.000000, 2.000000)">
                        <rect id="矩形" x="0" y="0" width="151" height="184"></rect>
                        <g id="分组-70" transform="translate(1.000000, 67.000000)">
                            <g id="分组-64">
                                <g id="分组-63" transform="translate(24.803150, 55.655172)" fill="#EAF4FF">
                                    <polygon id="矩形" filter="url(#filter-1)" points="0 27.8222308 50.1968504 0 100.393701 27.8222308 49.6752064 54.8737442"></polygon>
                                </g>
                                <g id="分组-63" transform="translate(0.000000, 0.711377)">
                                    <polygon id="矩形" fill="#CCE0FB" transform="translate(38.643920, 62.793373) rotate(-330.000000) translate(-38.643920, -62.793373) " points="-3.47557091 61.7947455 78.3266167 60.2792396 80.7810468 64.5304373 -3.49320651 65.3075068"></polygon>
                                    <polygon id="矩形" fill="#F5F9FF" transform="translate(110.637499, 62.838725) scale(-1, 1) rotate(-330.000000) translate(-110.637499, -62.838725) " points="67.8761284 61.8967261 150.821258 59.9829355 153.39887 64.1630139 70.0687822 65.6945141"></polygon>
                                    <polygon id="矩形" fill="#E2EEFD" points="1.18110236 40.7937327 74.5816739 0 147.982245 40.7937327 73.8188976 80.457418"></polygon>
                                </g>
                                <polygon id="矩形" fill="#91B6F9" opacity="0.567615327" filter="url(#filter-2)" points="33.6968504 37.4389138 74.1968504 14.885148 114.69685 37.4389138 73.7759758 59.3679066"></polygon>
                            </g>
                        </g>
                    </g>
                    <g id="分组-10" transform="translate(33.000000, 10.000000)">
                        <circle id="Oval-Copy" fill="#A9CBF9" opacity="0.490141369" cx="43" cy="43" r="43"></circle>
                        <g id="对号-彩色" transform="translate(14.000000, 12.000000)">
                            <path d="M53.4410825,12.2123563 C52.336258,11.4070628 50.8175722,10.6017693 49.5745633,9.93080674 C48.1933564,9.25984419 46.9503475,8.4545507 45.708044,7.78358814 C43.0838283,6.30733209 40.4603179,4.83107605 37.8367872,3.35481279 C36.5937711,2.68385023 35.2132768,2.01288767 33.970268,1.20759419 C32.8654433,0.536631628 30.9321837,0 28.9989248,0 L28.7232508,0 C27.0663735,0 24.8567316,0.670962558 23.8900985,1.20759419 C22.6470824,2.01288767 21.265882,2.68385023 20.0235793,3.48914372 C17.3993635,4.96539977 14.7758531,6.30732488 12.1523224,7.78358814 C10.9093063,8.58888163 9.52881203,9.25984419 8.28580315,10.0651377 C7.04350042,10.7361002 5.6622935,11.4070628 4.4192839,12.2123563 C2.34783347,13.5542814 0,16.6411316 0,19.8616135 L0,42.0040556 C0,45.2245374 2.34783347,48.4457114 4.4192839,49.6533128 C6.76711738,51.2632149 9.66701007,52.6058249 12.1523362,54.0820809 C14.7758465,55.558337 17.4000624,56.9002621 20.023593,58.5108563 C21.2658965,59.1818188 22.6471034,59.8527814 23.8901123,60.6580749 C24.9949369,61.3290374 26.9281965,62 28.7232646,62 L29.5517061,62 C32.4515988,62 36.0424484,59.5841195 38.1139199,58.3765253 C40.5992388,56.9009542 43.2234545,55.5583442 45.8476638,54.082773 C48.3329827,52.7408551 51.2335815,51.2645991 53.5807161,49.7883358 C55.513975,48.4464107 58,45.3602598 58,42.1390786 L58,19.7272753 C57.9985826,16.5067935 55.5125569,13.4199505 53.4411057,12.2123635 L53.4410825,12.2123563 Z" id="icon24" fill-rule="nonzero"></path>
                            <path d="M54.9985688,40.7089507 C54.9985688,43.5021454 52.781055,46.1622074 51.1182758,47.2266337 C49.039445,48.5566611 46.5452721,49.8866885 44.3277583,51.0835831 C41.9715606,52.4136034 39.7547547,53.478044 37.5372408,54.8080714 C35.7357778,55.871819 32.5481872,58 29.9153377,58 L29.2226309,58 C27.5598509,58 26.0350396,57.3349863 25.0649694,56.8031125 C23.8175257,56.1380988 22.7087724,55.6062251 21.6000119,54.8080714 C19.3832059,53.611184 17.0270082,52.4136034 14.6708106,51.0835831 C12.4532967,49.8866957 9.95912384,48.5566683 7.88029309,47.2266337 C6.07883002,46.1628862 4,43.3696843 4,40.5764895 L4,21.2896846 C4,18.4964898 6.07883002,15.836435 7.88029309,14.6395476 C8.98905366,13.9745339 10.2357828,13.4426601 11.3445361,12.7776392 C12.3146129,12.1126255 13.56205,11.4476118 14.6708106,10.7825981 C17.0270082,9.58571066 19.3832059,8.38882319 21.6000119,7.05878864 C22.7087724,6.39377494 23.8175257,5.86190117 24.9262863,5.19688747 C25.896363,4.53187377 27.6978261,4 29.2226309,4 L29.4992862,4 C31.1620662,4 32.8255614,4.39873384 33.9343147,5.06374754 C35.0430752,5.72876124 36.1518285,6.39377494 37.2605891,6.92564871 C39.6167868,8.25567611 41.8343006,9.45256358 44.1897897,10.7825981 C45.2985502,11.4476118 46.4073042,12.1126255 47.6547479,12.6444993 C48.6248247,13.1763802 50.0102377,13.9745267 50.9810223,14.6395476 C52.7824861,15.7032951 55,18.4964898 55,21.1565446 L55,40.7089221 L54.9985688,40.7089507 Z" id="icon24-path" fill="url(#linearGradient-3)" opacity="0.885951451"></path>
                            <path d="M44.553254,23.1802246 C44.2059449,22.8493301 43.498516,22.9869745 42.9732839,23.4873895 L27.1821342,38.5322536 L17.7756254,29.5702921 C17.4283163,29.2393976 16.8653602,29.2393976 16.5180533,29.5702921 L15.2604813,30.7684311 C14.9131729,31.0993327 14.9131729,31.6356826 15.2604813,31.9665771 L26.5800263,42.7518291 C26.9273347,43.0827236 27.4902908,43.0827236 27.8375984,42.7518291 L29.0951704,41.553683 C29.1585117,41.4933372 29.2104657,41.4262074 29.2503208,41.3543374 L45.4884368,25.8836249 C46.0136696,25.3832099 46.1581446,24.7092155 45.8108355,24.378321 L44.5532635,23.180182 L44.553254,23.1802246 Z" id="icon24-path" fill="#FFFFFF" fill-rule="nonzero"></path>
                        </g>
                    </g>
                    <g id="分组-11" transform="translate(103.000000, 0.000000)" stroke="#2475F7" stroke-width="2">
                        <path d="M1,9.10718528 L8,1.23440386" id="路径-25" transform="translate(4.500000, 5.234404) rotate(-4.000000) translate(-4.500000, -5.234404) "></path>
                        <path d="M4.72949993,12.8727814 L14.7294999,2" id="路径-25" transform="translate(9.729500, 7.000000) rotate(7.000000) translate(-9.729500, -7.000000) "></path>
                    </g>
                </g>
            </g>
        </g>
    </g>
</svg>