<?xml version="1.0" encoding="UTF-8"?>
<svg width="26px" height="26px" viewBox="0 0 26 26" version="1.1" xmlns="http://www.w3.org/2000/svg" xmlns:xlink="http://www.w3.org/1999/xlink">
    <!-- Generator: Sketch 53.2 (72643) - https://sketchapp.com -->
    <title>矩形</title>
    <desc>Created with Sketch.</desc>
    <g id="Page-1" stroke="none" stroke-width="1" fill="none" fill-rule="evenodd">
        <g id="首页-融资人-经办" transform="translate(-33.000000, -257.000000)">
            <g id="分组-38" transform="translate(33.000000, 257.000000)">
                <rect id="矩形" x="0" y="0" width="26" height="26"></rect>
                <g id="icon" transform="translate(4.000000, 4.000000)" fill="#08b448">
                    <path d="M12.375,9.52941176 C9.88971282,9.52941176 7.875,11.4256355 7.875,13.7646908 C7.875,16.1037762 9.88971282,18 12.375,18 C14.8602872,18 16.875,16.1037762 16.875,13.7646908 C16.875,11.4256355 14.8602872,9.52941176 12.375,9.52941176 M12.375,11.2984683 C13.8184848,11.2984683 14.9954029,12.4045786 14.9954029,13.7646908 C14.9954029,15.1248331 13.8201243,16.2309435 12.375,16.2309435 C10.9315152,16.2309435 9.7563652,15.1248331 9.7563652,13.7646908 C9.7563652,12.4045786 10.9315152,11.2984683 12.375,11.2984683" id="Fill-1"></path>
                    <path d="M6.10028894,13.2876263 C6.10028894,11.8576332 6.65746429,10.4861334 7.64917841,9.47494486 C8.64092212,8.46378653 9.98595974,7.89568683 11.3885433,7.89568683 C12.3156699,7.89568683 12.5337529,7.98995783 12.5337529,7.98995783 C13.3017329,8.31883543 13.9304487,7.89260982 13.9304487,7.04311495 L13.9304487,1.54450597 C13.9304487,0.695011095 13.2488025,0 12.4156431,0 L1.51480568,0 C0.681646282,0 0,0.695011095 0,1.54450597 L0,15.3047844 C0,16.1542793 0.681646282,16.8492904 1.51480568,16.8492904 L5.92910072,16.8492904 C6.76228971,16.8492904 7.08182527,16.2609488 6.63953479,15.5411709 C6.64104371,15.5396324 6.10028894,14.6591563 6.10028894,13.2876263 M17.1358638,18 C16.9616874,17.9997587 16.7916826,17.9459111 16.64801,17.8456369 L14.5423889,16.3767589 C14.1755739,16.0915929 14.0921397,15.5635546 14.352502,15.1753994 C14.6128939,14.7872442 15.125926,14.6750541 15.5194577,14.9202794 L17.6250787,16.3890066 C17.9371288,16.6083186 18.0732569,17.0088422 17.9611532,17.377932 C17.8490495,17.7469917 17.514691,17.9989442 17.1358638,18" id="Fill-3"></path>
                </g>
            </g>
        </g>
    </g>
</svg>
