<?xml version="1.0" encoding="UTF-8"?>
<svg width="20px" height="20px" viewBox="0 0 20 20" version="1.1" xmlns="http://www.w3.org/2000/svg" xmlns:xlink="http://www.w3.org/1999/xlink">
    <!-- Generator: Sketch 63 (92445) - https://sketch.com -->
    <title>矩形</title>
    <desc>Created with Sketch.</desc>
    <g id="页面-1" stroke="none" stroke-width="1" fill="none" fill-rule="evenodd">
        <g id="画板" transform="translate(-169.000000, -685.000000)">
            <g id="贷款申请-点击" transform="translate(169.000000, 685.000000)">
                <rect id="矩形" x="0" y="0" width="20" height="20"></rect>
                <path d="M6,12.0138419 C8.20002285,12.0138419 9.99996484,10.2075613 9.99996484,8 C9.99996484,10.2075613 11.8000006,12.0138419 14,12.0138419 C11.8000006,12.0138419 9.99996484,13.8201224 9.99996484,16.0277778 C9.99996484,13.8201224 8.20002285,12.0138419 6,12.0138419 Z M13.5635835,5.55230361 C13.6727169,5.41001612 13.781829,5.26779115 13.8544852,5.12550366 C14.5454434,3.95186109 14.5090727,2.60042168 13.7090876,2.17364257 C13.5272341,2.06692695 13.3454445,2.03135508 13.1272202,2.03135508 C12.9090812,2.03135508 12.7272277,2.06692695 12.5090887,2.17364257 C12.472718,2.20921444 12.3999553,2.20921444 12.3635845,2.20921444 C12.2545577,2.20921444 12.1454455,2.17364257 12.0727041,2.06692695 C11.5999702,1.42677911 10.8363132,1 9.96367191,1 C9.0909241,1 8.32728842,1.42677911 7.85453315,2.06692695 C7.78179174,2.17364257 7.67267962,2.20921444 7.56365273,2.20921444 C7.52728202,2.20921444 7.45454061,2.20921444 7.41816991,2.17364257 C7.2364016,2.03135508 7.01817736,1.9957832 6.83638775,1.9957832 C6.61816351,1.9957832 6.43630998,2.03135508 6.25454168,2.13807069 C5.49090599,2.56484981 5.41816458,3.91628922 6.10905885,5.08993178 C6.21817097,5.23221927 6.29091238,5.41001612 6.4000245,5.51673174 C6.5454221,5.6945911 6.50905139,5.94351085 6.29091238,6.05022647 C3.74549561,7.36609401 2,9.9978916 2,13.0208964 C2,14.5501952 2.50912597,15.9728409 3.34541784,17.1465043 C3.74549561,17.6799157 4.40001918,18 5.09089214,18 L14.9090866,18 C15.5999808,18 16.2544831,17.6799157 16.6544969,17.1465043 C17.490874,15.9728409 18,14.5501952 18,13.0208964 C18,9.9978916 16.2544831,7.36609401 13.6727169,6.08579834 C13.4545779,5.97908272 13.4182072,5.73016297 13.5635835,5.55230361 Z" id="Fill-1" fill="#08B347"></path>
            </g>
        </g>
    </g>
</svg>