<?xml version="1.0" encoding="UTF-8"?>
<svg width="20px" height="20px" viewBox="0 0 20 20" version="1.1" xmlns="http://www.w3.org/2000/svg" xmlns:xlink="http://www.w3.org/1999/xlink">
    <!-- Generator: Sketch 63 (92445) - https://sketch.com -->
    <title>member</title>
    <desc>Created with Sketch.</desc>
    <g id="页面-1" stroke="none" stroke-width="1" fill="none" fill-rule="evenodd">
        <g id="画板" transform="translate(-195.000000, -685.000000)">
            <g id="担保人管理-点击" transform="translate(195.000000, 685.000000)">
                <rect id="矩形" x="0" y="0" width="20" height="20"></rect>
                <path d="M17.8336856,14.7054104 C17.8901748,14.875069 17.9334781,15.0947003 17.9600792,15.3608645 C17.9866803,15.6270478 18,15.414105 18,15.6802883 C18,15.9465289 17.9800874,16.1993734 17.9434153,16.4389364 C17.9034945,16.6784804 17.843661,16.85821 17.7671446,16.9813358 C17.7105598,17.0611774 17.5475133,17.1443632 17.28133,17.2375245 C17.0150893,17.3306667 14.2368192,18.1225663 10.3305236,18.1225663 C6.76018184,18.1225663 3.68576391,17.5436095 3.19662418,17.4338034 C2.70748444,17.3239782 2.41470002,17.230836 2.31156331,17.1543195 C2.18509328,17.0611583 2.091932,16.7849422 2.03200302,16.3224992 C1.97216959,15.8566163 1.99542647,15.7401981 2.10859593,15.0148587 C2.17848122,14.5955852 2.34813986,14.2761996 2.6176674,14.0631613 C2.89052008,13.8469697 3.2132881,13.6772347 3.57930207,13.5541089 C3.94858384,13.4277153 5.65885303,12.8387067 6.05148723,12.7356082 C6.44412144,12.6324715 6.78689763,12.4860888 7.07966294,12.2930777 C7.31922599,12.146676 7.50218519,12.003542 7.63199947,11.8671157 C7.76173731,11.7307658 7.85489859,11.5943203 7.90487126,11.4579131 C7.95476749,11.3214677 7.98136862,11.1816971 7.98136862,11.0319511 C7.98136862,10.8855493 7.97468012,10.725847 7.96470469,10.5528441 C7.94144781,10.2799723 7.85487948,10.0703928 7.70188477,9.92399107 C7.5487945,9.77758931 7.37911675,9.62451815 7.18278054,9.46479671 C7.08961925,9.3849551 7.01312189,9.27512989 6.9432366,9.13199594 C6.8733513,8.98895754 6.81349876,8.84591914 6.75691403,8.69951737 C6.7003293,8.52978229 6.64374457,8.35341603 6.58717895,8.17380108 C6.50733734,8.15044865 6.42747662,8.1138721 6.34763501,8.053924 C6.2777306,7.99743482 6.2045775,7.9175741 6.12473589,7.81438007 C6.04489428,7.71128158 5.97833412,7.56487982 5.91842425,7.37186874 C5.86183952,7.18218282 5.84192689,7.00583567 5.86183952,6.85284095 C5.87850345,6.69973158 5.90844883,6.56664949 5.95500081,6.45349914 C5.99826586,6.32710555 6.06817027,6.21061095 6.16131244,6.09417368 C6.15133702,5.66494381 6.17126876,5.2323888 6.23121685,4.79981468 C6.2744819,4.43712586 6.35759132,4.05118016 6.47737285,3.64188203 C6.59723081,3.2325839 6.77025282,2.86330212 6.99647708,2.53720896 C7.21276414,2.23110487 7.45230807,1.97816482 7.71847225,1.77854169 C7.98471287,1.57891855 8.25424041,1.42256047 8.52701665,1.30941012 C8.79988844,1.19624066 9.07276023,1.11972419 9.35222497,1.06986619 C9.62844101,1.02660113 9.89793033,1 10.1607694,1 C10.4868625,1 10.8062481,1.0399208 11.1057401,1.11976241 C11.4052321,1.19962313 11.684716,1.29947292 11.9475359,1.42586651 C12.207088,1.55233653 12.4433833,1.68876287 12.6429873,1.84185314 C12.8492989,1.99486696 13.0122691,2.15130148 13.1387582,2.31100381 C13.4215863,2.67367352 13.6345291,3.0729389 13.777644,3.50883816 C13.9207015,3.94468009 14.0205704,4.35397822 14.0737726,4.73992392 C14.1436579,5.19248711 14.1702973,5.64833721 14.1602454,6.10080485 C14.240087,6.1440699 14.3033794,6.21397431 14.346568,6.30711648 C14.3898521,6.38695809 14.4297729,6.48682699 14.4563932,6.61322058 C14.4830134,6.73967149 14.4863768,6.88943662 14.4630817,7.07239583 C14.4297921,7.31203531 14.3732073,7.49835788 14.3033985,7.64139628 C14.2268056,7.7844538 14.1469448,7.8942599 14.0571469,7.97410151 C13.9540293,8.06726279 13.8474719,8.12719177 13.7343789,8.16050051 C13.6911138,8.34013458 13.6378734,8.51982598 13.5812886,8.68621681 C13.5247039,8.83261857 13.4581629,8.97900122 13.388354,9.11871448 C13.3117802,9.26182933 13.2319195,9.37163543 13.1421216,9.45151526 C13.0389275,9.54467654 12.9457662,9.61782965 12.8526241,9.68110288 C12.7594628,9.74093631 12.6829463,9.80749647 12.613061,9.8740184 C12.5431757,9.94392281 12.486591,10.0237835 12.4434024,10.1202891 C12.4001182,10.2167946 12.3635417,10.3332128 12.3401892,10.4696582 C12.3069569,10.6393933 12.2970006,10.8123962 12.3069569,10.9887624 C12.3169323,11.1617653 12.3635417,11.3413994 12.4434024,11.5144787 C12.523244,11.6874816 12.6529818,11.8571403 12.8360366,12.0168426 C13.0156515,12.1765449 13.2619031,12.3163155 13.5679881,12.4428047 C13.8508162,12.5558786 14.1636088,12.6557284 14.496314,12.7389333 C14.8323635,12.8254061 16.1799629,13.4043629 16.4894113,13.5241253 C16.7988405,13.6440024 17.0784008,13.7936528 17.3213081,13.9733442 C17.5574696,14.1729865 17.7304916,14.4092626 17.8336856,14.7054104 L17.8336856,14.7054104 Z M10.2739388,17.0178932 C10.3305236,17.0178932 10.4169772,16.9813167 10.5367588,16.908068 C10.6565212,16.8315706 10.7730349,16.7483657 10.8861279,16.6452481 C10.9992974,16.5421114 11.0990516,16.4388982 11.1822566,16.339144 C11.2687867,16.2359308 11.3087075,16.1594335 11.3087075,16.0995045 C11.3087075,16.0296956 11.2920436,15.9131819 11.2588304,15.740179 C11.2255216,15.5705204 11.1822375,15.3808345 11.1389533,15.1812304 C11.0957647,14.9748806 11.045792,14.7752766 11.0026034,14.5755579 C10.9593383,14.3759347 10.9160542,14.2162324 10.8828219,14.0898388 C10.9959149,13.9966011 11.0924204,13.9001529 11.172262,13.7936146 C11.2521036,13.6838849 11.2920245,13.5740597 11.2920245,13.4609094 C11.2920245,13.3677481 11.2620791,13.2779311 11.1988632,13.1814255 C11.1389342,13.08492 11.0657811,13.0050593 10.9859395,12.9351931 C10.8927782,12.8553324 10.7996169,12.7754908 10.6964038,12.69563 L9.84793855,12.69563 C9.73484553,12.7754717 9.63834,12.8553133 9.55849839,12.9351931 C9.48861309,13.0050593 9.42868411,13.0815757 9.37217582,13.1747179 C9.31559109,13.2678792 9.2856266,13.3544284 9.2856266,13.4475897 C9.2856266,13.5174941 9.3255474,13.607292 9.41209662,13.7204615 C9.4985694,13.833631 9.60176344,13.9433606 9.72481278,14.0432104 L9.72481311,14.0432094 C9.67730602,14.1900656 9.63185497,14.337578 9.58847315,14.4857054 C9.53188842,14.6753722 9.47864794,14.8783396 9.42867527,15.0912824 C9.37877904,15.3009383 9.33226529,15.5005805 9.29232537,15.6869031 C9.25238546,15.8732257 9.23574064,16.009652 9.23574064,16.1027942 C9.23574064,16.1593789 9.27566145,16.2392396 9.36211512,16.3423381 C9.44866434,16.4455513 9.54851413,16.5486498 9.66829565,16.6485187 C9.78805806,16.7516172 9.90449534,16.8381855 10.0176648,16.9113386 C10.1341594,16.9779179 10.2207086,17.0178932 10.2739491,17.0178932 L10.2739388,17.0178932 Z" id="形状" fill="#08B347"></path>
            </g>
        </g>
    </g>
</svg>