<?xml version="1.0" encoding="UTF-8"?>
<svg width="20px" height="20px" viewBox="0 0 20 20" version="1.1" xmlns="http://www.w3.org/2000/svg" xmlns:xlink="http://www.w3.org/1999/xlink">
    <!-- Generator: Sketch 63 (92445) - https://sketch.com -->
    <title>矩形</title>
    <desc>Created with Sketch.</desc>
    <g id="页面-1" stroke="none" stroke-width="1" fill="none" fill-rule="evenodd">
        <g id="画板" transform="translate(-514.000000, -320.000000)">
            <g id="审批业务" transform="translate(514.000000, 320.000000)">
                <rect id="矩形" x="0" y="0" width="20" height="20"></rect>
                <g id="饼图" transform="translate(2.000000, 2.000000)" fill="#08B347" fill-rule="nonzero">
                    <path d="M7.1520093,8.13401191 L12.0105413,12.9937018 L12.0105413,12.9937018 C11.3832239,13.6338628 10.6345102,14.1424542 9.80822286,14.4897036 L9.80822257,14.4897037 C8.96800794,14.8453714 8.06439488,15.0269602 7.15200895,15.0234938 L7.15200907,15.0234938 C5.94625569,15.0327783 4.76042898,14.715915 3.72000507,14.1064401 L3.72000461,14.1064398 C2.68590209,13.5115164 1.82776721,12.6533816 1.23284382,11.619279 L1.23284342,11.6192784 C0.623569352,10.5792 0.306712898,9.39378399 0.315789718,8.18843225 C0.315789718,6.94948344 0.621474284,5.80664001 1.23284342,4.75642826 L1.23284324,4.75642856 C1.82886483,3.72316732 2.6867428,2.86529478 3.72000403,2.26926777 L3.72000324,2.26926823 C4.76057551,1.66016785 5.94631175,1.3433313 7.15200724,1.35221453 L7.15200724,8.1340119 L7.1520093,8.13401191 Z" id="路径"></path>
                    <path d="M15.1275978,7.04790556 L8.28906326,7.04790556 L8.28906326,0.210529011 C9.52801207,0.210529011 10.6708555,0.516213577 11.7210673,1.12758271 L11.7210675,1.12758288 C12.7534929,1.7246918 13.6111158,2.58231829 14.2082283,3.61474367 C14.8172817,4.66495542 15.1275978,5.80779885 15.1275978,7.04790556 L15.1275978,7.04790556 Z M8.81474808,8.18611723 L15.6938087,8.18611723 C15.6938087,9.11822359 15.5154927,10.0028562 15.1600186,10.8423309 L15.1600186,10.8423308 C14.8135924,11.6694034 14.3049069,12.4186526 13.6640169,13.0458071 L8.81474808,8.18611723 L8.81474808,8.18611723 Z" id="形状"></path>
                </g>
            </g>
        </g>
    </g>
</svg>