<?xml version="1.0" encoding="UTF-8"?>
<svg width="54px" height="54px" viewBox="0 0 54 54" version="1.1" xmlns="http://www.w3.org/2000/svg" xmlns:xlink="http://www.w3.org/1999/xlink">
    <!-- Generator: Sketch 52.5 (67469) - http://www.bohemiancoding.com/sketch -->
    <title></title>
    <desc>返回首页装饰图标</desc>
    <g id="Page-1" stroke="none" stroke-width="1" fill="none" fill-rule="evenodd">
        <g id="切图" transform="translate(-357.000000, -1346.000000)" stroke="#FFFFFF">
            <g id="icon17" transform="translate(359.000000, 1348.000000)">
                <circle id="Oval-2" stroke-width="3" cx="25" cy="25" r="25"></circle>
                <path d="M38.3061488,24.9077238 L16.8907122,24.9077238 L26.1003569,15.7729669 C26.3647946,15.5118721 26.4691065,15.1291294 26.3737125,14.7699668 C26.2783185,14.4108042 25.9978375,14.130263 25.6386954,14.0347918 C25.2795533,13.9393206 24.8967882,14.0435503 24.6356367,14.307932 L13,25.9435689 L24.3732142,37.3073437 C24.7687511,37.7000586 25.4073737,37.6990207 25.801632,37.3050223 C26.1958903,36.9110239 26.1973494,36.2724021 25.8048956,35.8766063 L16.8850484,26.9790994 L38.3061488,26.9790994 C38.4898965,26.9796026 38.6662634,26.9068318 38.7961931,26.7769021 C38.9261228,26.6469724 38.9988936,26.4706055 38.9983904,26.2868578 L38.9983904,25.5980774 C38.998475,25.4146309 38.9255093,25.2387012 38.795616,25.1091622 C38.6657227,24.9796232 38.4895944,24.9071382 38.3061488,24.9077238 Z" id="路径" fill="#FFFFFF" stroke-linejoin="round"></path>
            </g>
        </g>
    </g>
</svg>
